<?xml version="1.0" encoding="UTF-8" standalone="no"?><svg xmlns="http://www.w3.org/2000/svg" xmlns:xlink="http://www.w3.org/1999/xlink" clip-rule="evenodd" stroke-miterlimit="4.00" viewBox="0 0 1024 768"><desc>SVG generated by Keynote</desc><defs></defs><g transform="matrix(1.00, 0.00, -0.00, -1.00, 0.0, 768.0)"><g><clipPath id="clip-21"><path d="M 0.0 768.0 L 1024.0 768.0 L 1024.0 0.0 L 0.0 0.0 Z M 0.0 768.0 "></path></clipPath><g clip-path="url(#clip-21)"><image xlink:href="../../7F7A4433-E76C-486C-A6DD-235F8769393F/assets/AC8A38799F83CDE46BAD7F0B4FE74D5F.jpeg" width="1024.00" height="768.00" transform="matrix(1.00, 0.00, -0.00, -1.00, 0.0, 768.0)"></image></g></g><text xml:space="preserve" font-family="Avenir-MediumOblique" font-style="italic" font-size="26.0" fill="#AB6153" transform="matrix(1.00, 0.00, -0.00, -1.00, 316.0, 227.0)">—</text><text xml:space="preserve" font-family="Avenir-MediumOblique" font-style="italic" font-size="26.0" fill="#AB6153" transform="matrix(1.00, 0.00, -0.00, -1.00, 342.5, 227.0)"> </text><text xml:space="preserve" font-family="Avenir-MediumOblique" font-style="italic" font-size="26.0" fill="#AB6153" transform="matrix(1.00, 0.00, -0.00, -1.00, 350.3, 227.0)">H</text><text xml:space="preserve" font-family="Avenir-MediumOblique" font-style="italic" font-size="26.0" fill="#AB6153" transform="matrix(1.00, 0.00, -0.00, -1.00, 370.1, 227.0)">a</text><text xml:space="preserve" font-family="Avenir-MediumOblique" font-style="italic" font-size="26.0" fill="#AB6153" transform="matrix(1.00, 0.00, -0.00, -1.00, 384.1, 227.0)">m</text><text xml:space="preserve" font-family="Avenir-MediumOblique" font-style="italic" font-size="26.0" fill="#AB6153" transform="matrix(1.00, 0.00, -0.00, -1.00, 406.7, 227.0)">a</text><text xml:space="preserve" font-family="Avenir-MediumOblique" font-style="italic" font-size="26.0" fill="#AB6153" transform="matrix(1.00, 0.00, -0.00, -1.00, 420.8, 227.0)">r</text><text xml:space="preserve" font-family="Avenir-MediumOblique" font-style="italic" font-size="26.0" fill="#AB6153" transform="matrix(1.00, 0.00, -0.00, -1.00, 430.9, 227.0)">i</text><text xml:space="preserve" font-family="Avenir-MediumOblique" font-style="italic" font-size="26.0" fill="#AB6153" transform="matrix(1.00, 0.00, -0.00, -1.00, 437.7, 227.0)">,</text><text xml:space="preserve" font-family="Avenir-MediumOblique" font-style="italic" font-size="26.0" fill="#AB6153" transform="matrix(1.00, 0.00, -0.00, -1.00, 445.4, 227.0)"> </text><text xml:space="preserve" font-family="Avenir-MediumOblique" font-style="italic" font-size="26.0" fill="#AB6153" transform="matrix(1.00, 0.00, -0.00, -1.00, 453.1, 227.0)">K</text><text xml:space="preserve" font-family="Avenir-MediumOblique" font-style="italic" font-size="26.0" fill="#AB6153" transform="matrix(1.00, 0.00, -0.00, -1.00, 470.5, 227.0)">o</text><text xml:space="preserve" font-family="Avenir-MediumOblique" font-style="italic" font-size="26.0" fill="#AB6153" transform="matrix(1.00, 0.00, -0.00, -1.00, 486.5, 227.0)">i</text><text xml:space="preserve" font-family="Avenir-MediumOblique" font-style="italic" font-size="26.0" fill="#AB6153" transform="matrix(1.00, 0.00, -0.00, -1.00, 493.2, 227.0)">v</text><text xml:space="preserve" font-family="Avenir-MediumOblique" font-style="italic" font-size="26.0" fill="#AB6153" transform="matrix(1.00, 0.00, -0.00, -1.00, 506.8, 227.0)">i</text><text xml:space="preserve" font-family="Avenir-MediumOblique" font-style="italic" font-size="26.0" fill="#AB6153" transform="matrix(1.00, 0.00, -0.00, -1.00, 513.5, 227.0)">s</text><text xml:space="preserve" font-family="Avenir-MediumOblique" font-style="italic" font-size="26.0" fill="#AB6153" transform="matrix(1.00, 0.00, -0.00, -1.00, 525.6, 227.0)">t</text><text xml:space="preserve" font-family="Avenir-MediumOblique" font-style="italic" font-size="26.0" fill="#AB6153" transform="matrix(1.00, 0.00, -0.00, -1.00, 535.7, 227.0)">o</text><text xml:space="preserve" font-family="Avenir-MediumOblique" font-style="italic" font-size="26.0" fill="#AB6153" transform="matrix(1.00, 0.00, -0.00, -1.00, 551.7, 227.0)">,</text><text xml:space="preserve" font-family="Avenir-MediumOblique" font-style="italic" font-size="26.0" fill="#AB6153" transform="matrix(1.00, 0.00, -0.00, -1.00, 559.4, 227.0)"> </text><text xml:space="preserve" font-family="Avenir-MediumOblique" font-style="italic" font-size="26.0" fill="#AB6153" transform="matrix(1.00, 0.00, -0.00, -1.00, 567.2, 227.0)">S</text><text xml:space="preserve" font-family="Avenir-MediumOblique" font-style="italic" font-size="26.0" fill="#AB6153" transform="matrix(1.00, 0.00, -0.00, -1.00, 582.2, 227.0)">a</text><text xml:space="preserve" font-family="Avenir-MediumOblique" font-style="italic" font-size="26.0" fill="#AB6153" transform="matrix(1.00, 0.00, -0.00, -1.00, 596.2, 227.0)">r</text><text xml:space="preserve" font-family="Avenir-MediumOblique" font-style="italic" font-size="26.0" fill="#AB6153" transform="matrix(1.00, 0.00, -0.00, -1.00, 606.3, 227.0)">s</text><text xml:space="preserve" font-family="Avenir-MediumOblique" font-style="italic" font-size="26.0" fill="#AB6153" transform="matrix(1.00, 0.00, -0.00, -1.00, 618.4, 227.0)">a</text><text xml:space="preserve" font-family="Avenir-MediumOblique" font-style="italic" font-size="26.0" fill="#AB6153" transform="matrix(1.00, 0.00, -0.00, -1.00, 632.4, 227.0)">,</text><text xml:space="preserve" font-family="Avenir-MediumOblique" font-style="italic" font-size="26.0" fill="#AB6153" transform="matrix(1.00, 0.00, -0.00, -1.00, 640.1, 227.0)"> </text><text xml:space="preserve" font-family="Avenir-MediumOblique" font-style="italic" font-size="26.0" fill="#AB6153" transform="matrix(1.00, 0.00, -0.00, -1.00, 647.9, 227.0)">2</text><text xml:space="preserve" font-family="Avenir-MediumOblique" font-style="italic" font-size="26.0" fill="#AB6153" transform="matrix(1.00, 0.00, -0.00, -1.00, 662.9, 227.0)">0</text><text xml:space="preserve" font-family="Avenir-MediumOblique" font-style="italic" font-size="26.0" fill="#AB6153" transform="matrix(1.00, 0.00, -0.00, -1.00, 677.8, 227.0)">1</text><text xml:space="preserve" font-family="Avenir-MediumOblique" font-style="italic" font-size="26.0" fill="#AB6153" transform="matrix(1.00, 0.00, -0.00, -1.00, 692.8, 227.0)">4</text><text xml:space="preserve" font-family="Futura-Medium" font-size="36.0" fill="#5B5753" transform="matrix(1.00, 0.00, -0.00, -1.00, 68.0, 514.0)">“</text><text xml:space="preserve" font-family="Futura-Medium" font-size="36.0" fill="#5B5753" transform="matrix(1.00, 0.00, -0.00, -1.00, 89.7, 514.0)">…</text><text xml:space="preserve" font-family="Futura-Medium" font-size="36.0" fill="#5B5753" transform="matrix(1.00, 0.00, -0.00, -1.00, 126.5, 514.0)">D</text><text xml:space="preserve" font-family="Futura-Medium" font-size="36.0" fill="#5B5753" transform="matrix(1.00, 0.00, -0.00, -1.00, 155.6, 514.0)">E</text><text xml:space="preserve" font-family="Futura-Medium" font-size="36.0" fill="#5B5753" transform="matrix(1.00, 0.00, -0.00, -1.00, 178.8, 514.0)">S</text><text xml:space="preserve" font-family="Futura-Medium" font-size="36.0" fill="#5B5753" transform="matrix(1.00, 0.00, -0.00, -1.00, 202.7, 514.0)">I</text><text xml:space="preserve" font-family="Futura-Medium" font-size="36.0" fill="#5B5753" transform="matrix(1.00, 0.00, -0.00, -1.00, 216.2, 514.0)">R</text><text xml:space="preserve" font-family="Futura-Medium" font-size="36.0" fill="#5B5753" transform="matrix(1.00, 0.00, -0.00, -1.00, 240.7, 514.0)">E</text><text xml:space="preserve" font-family="Futura-Medium" font-size="36.0" fill="#5B5753" transform="matrix(1.00, 0.00, -0.00, -1.00, 264.0, 514.0)">D</text><text xml:space="preserve" font-family="Futura-Medium" font-size="36.0" fill="#5B5753" transform="matrix(1.00, 0.00, -0.00, -1.00, 293.0, 514.0)"> </text><text xml:space="preserve" font-family="Futura-Medium" font-size="36.0" fill="#5B5753" transform="matrix(1.00, 0.00, -0.00, -1.00, 307.0, 514.0)">U</text><text xml:space="preserve" font-family="Futura-Medium" font-size="36.0" fill="#5B5753" transform="matrix(1.00, 0.00, -0.00, -1.00, 336.4, 514.0)">S</text><text xml:space="preserve" font-family="Futura-Medium" font-size="36.0" fill="#5B5753" transform="matrix(1.00, 0.00, -0.00, -1.00, 360.3, 514.0)">E</text><text xml:space="preserve" font-family="Futura-Medium" font-size="36.0" fill="#5B5753" transform="matrix(1.00, 0.00, -0.00, -1.00, 383.5, 514.0)"> </text><text xml:space="preserve" font-family="Futura-Medium" font-size="36.0" fill="#5B5753" transform="matrix(1.00, 0.00, -0.00, -1.00, 397.5, 514.0)">P</text><text xml:space="preserve" font-family="Futura-Medium" font-size="36.0" fill="#5B5753" transform="matrix(1.00, 0.00, -0.00, -1.00, 417.9, 514.0)">A</text><text xml:space="preserve" font-family="Futura-Medium" font-size="36.0" fill="#5B5753" transform="matrix(1.00, 0.00, -0.00, -1.00, 445.9, 514.0)">T</text><text xml:space="preserve" font-family="Futura-Medium" font-size="36.0" fill="#5B5753" transform="matrix(1.00, 0.00, -0.00, -1.00, 466.2, 514.0)">T</text><text xml:space="preserve" font-family="Futura-Medium" font-size="36.0" fill="#5B5753" transform="matrix(1.00, 0.00, -0.00, -1.00, 486.4, 514.0)">E</text><text xml:space="preserve" font-family="Futura-Medium" font-size="36.0" fill="#5B5753" transform="matrix(1.00, 0.00, -0.00, -1.00, 509.6, 514.0)">R</text><text xml:space="preserve" font-family="Futura-Medium" font-size="36.0" fill="#5B5753" transform="matrix(1.00, 0.00, -0.00, -1.00, 534.2, 514.0)">N</text><text xml:space="preserve" font-family="Futura-Medium" font-size="36.0" fill="#5B5753" transform="matrix(1.00, 0.00, -0.00, -1.00, 567.5, 514.0)">S</text><text xml:space="preserve" font-family="Futura-Medium" font-size="36.0" fill="#5B5753" transform="matrix(1.00, 0.00, -0.00, -1.00, 591.3, 514.0)"> </text><text xml:space="preserve" font-family="Futura-Medium" font-size="36.0" fill="#5B5753" transform="matrix(1.00, 0.00, -0.00, -1.00, 605.3, 514.0)">A</text><text xml:space="preserve" font-family="Futura-Medium" font-size="36.0" fill="#5B5753" transform="matrix(1.00, 0.00, -0.00, -1.00, 634.9, 514.0)">R</text><text xml:space="preserve" font-family="Futura-Medium" font-size="36.0" fill="#5B5753" transform="matrix(1.00, 0.00, -0.00, -1.00, 659.4, 514.0)">E</text><text xml:space="preserve" font-family="Futura-Medium" font-size="36.0" fill="#5B5753" transform="matrix(1.00, 0.00, -0.00, -1.00, 682.7, 514.0)"> </text><text xml:space="preserve" font-family="Futura-Medium" font-size="36.0" fill="#5B5753" transform="matrix(1.00, 0.00, -0.00, -1.00, 696.6, 514.0)">C</text><text xml:space="preserve" font-family="Futura-Medium" font-size="36.0" fill="#5B5753" transform="matrix(1.00, 0.00, -0.00, -1.00, 724.6, 514.0)">O</text><text xml:space="preserve" font-family="Futura-Medium" font-size="36.0" fill="#5B5753" transform="matrix(1.00, 0.00, -0.00, -1.00, 759.6, 514.0)">N</text><text xml:space="preserve" font-family="Futura-Medium" font-size="36.0" fill="#5B5753" transform="matrix(1.00, 0.00, -0.00, -1.00, 792.9, 514.0)">S</text><text xml:space="preserve" font-family="Futura-Medium" font-size="36.0" fill="#5B5753" transform="matrix(1.00, 0.00, -0.00, -1.00, 816.8, 514.0)">I</text><text xml:space="preserve" font-family="Futura-Medium" font-size="36.0" fill="#5B5753" transform="matrix(1.00, 0.00, -0.00, -1.00, 830.3, 514.0)">D</text><text xml:space="preserve" font-family="Futura-Medium" font-size="36.0" fill="#5B5753" transform="matrix(1.00, 0.00, -0.00, -1.00, 859.3, 514.0)">E</text><text xml:space="preserve" font-family="Futura-Medium" font-size="36.0" fill="#5B5753" transform="matrix(1.00, 0.00, -0.00, -1.00, 882.5, 514.0)">R</text><text xml:space="preserve" font-family="Futura-Medium" font-size="36.0" fill="#5B5753" transform="matrix(1.00, 0.00, -0.00, -1.00, 907.1, 514.0)">E</text><text xml:space="preserve" font-family="Futura-Medium" font-size="36.0" fill="#5B5753" transform="matrix(1.00, 0.00, -0.00, -1.00, 930.3, 514.0)">D</text><text xml:space="preserve" font-family="Futura-Medium" font-size="36.0" fill="#5B5753" transform="matrix(1.00, 0.00, -0.00, -1.00, 959.3, 514.0)"> </text><text xml:space="preserve" font-family="Futura-Medium" font-size="36.0" fill="#5B5753" transform="matrix(1.00, 0.00, -0.00, -1.00, 127.0, 467.0)">T</text><text xml:space="preserve" font-family="Futura-Medium" font-size="36.0" fill="#5B5753" transform="matrix(1.00, 0.00, -0.00, -1.00, 146.4, 467.0)">O</text><text xml:space="preserve" font-family="Futura-Medium" font-size="36.0" fill="#5B5753" transform="matrix(1.00, 0.00, -0.00, -1.00, 181.4, 467.0)"> </text><text xml:space="preserve" font-family="Futura-Medium" font-size="36.0" fill="#5B5753" transform="matrix(1.00, 0.00, -0.00, -1.00, 195.4, 467.0)">E</text><text xml:space="preserve" font-family="Futura-Medium" font-size="36.0" fill="#5B5753" transform="matrix(1.00, 0.00, -0.00, -1.00, 218.7, 467.0)">M</text><text xml:space="preserve" font-family="Futura-Medium" font-size="36.0" fill="#5B5753" transform="matrix(1.00, 0.00, -0.00, -1.00, 256.2, 467.0)">E</text><text xml:space="preserve" font-family="Futura-Medium" font-size="36.0" fill="#5B5753" transform="matrix(1.00, 0.00, -0.00, -1.00, 279.4, 467.0)">R</text><text xml:space="preserve" font-family="Futura-Medium" font-size="36.0" fill="#5B5753" transform="matrix(1.00, 0.00, -0.00, -1.00, 303.4, 467.0)">G</text><text xml:space="preserve" font-family="Futura-Medium" font-size="36.0" fill="#5B5753" transform="matrix(1.00, 0.00, -0.00, -1.00, 336.6, 467.0)">E</text><text xml:space="preserve" font-family="Futura-Medium" font-size="36.0" fill="#5B5753" transform="matrix(1.00, 0.00, -0.00, -1.00, 359.9, 467.0)"> </text><text xml:space="preserve" font-family="Futura-Medium" font-size="36.0" fill="#5B5753" transform="matrix(1.00, 0.00, -0.00, -1.00, 373.8, 467.0)">A</text><text xml:space="preserve" font-family="Futura-Medium" font-size="36.0" fill="#5B5753" transform="matrix(1.00, 0.00, -0.00, -1.00, 403.4, 467.0)">S</text><text xml:space="preserve" font-family="Futura-Medium" font-size="36.0" fill="#5B5753" transform="matrix(1.00, 0.00, -0.00, -1.00, 427.2, 467.0)"> </text><text xml:space="preserve" font-family="Futura-Medium" font-size="36.0" fill="#5B5753" transform="matrix(1.00, 0.00, -0.00, -1.00, 441.2, 467.0)">A</text><text xml:space="preserve" font-family="Futura-Medium" font-size="36.0" fill="#5B5753" transform="matrix(1.00, 0.00, -0.00, -1.00, 470.7, 467.0)"> </text><text xml:space="preserve" font-family="Futura-Medium" font-size="36.0" fill="#5B5753" transform="matrix(1.00, 0.00, -0.00, -1.00, 484.7, 467.0)">R</text><text xml:space="preserve" font-family="Futura-Medium" font-size="36.0" fill="#5B5753" transform="matrix(1.00, 0.00, -0.00, -1.00, 509.3, 467.0)">E</text><text xml:space="preserve" font-family="Futura-Medium" font-size="36.0" fill="#5B5753" transform="matrix(1.00, 0.00, -0.00, -1.00, 532.5, 467.0)">S</text><text xml:space="preserve" font-family="Futura-Medium" font-size="36.0" fill="#5B5753" transform="matrix(1.00, 0.00, -0.00, -1.00, 556.4, 467.0)">U</text><text xml:space="preserve" font-family="Futura-Medium" font-size="36.0" fill="#5B5753" transform="matrix(1.00, 0.00, -0.00, -1.00, 585.9, 467.0)">L</text><text xml:space="preserve" font-family="Futura-Medium" font-size="36.0" fill="#5B5753" transform="matrix(1.00, 0.00, -0.00, -1.00, 603.0, 467.0)">T</text><text xml:space="preserve" font-family="Futura-Medium" font-size="36.0" fill="#5B5753" transform="matrix(1.00, 0.00, -0.00, -1.00, 623.2, 467.0)"> </text><text xml:space="preserve" font-family="Futura-Medium" font-size="36.0" fill="#5B5753" transform="matrix(1.00, 0.00, -0.00, -1.00, 637.2, 467.0)">O</text><text xml:space="preserve" font-family="Futura-Medium" font-size="36.0" fill="#5B5753" transform="matrix(1.00, 0.00, -0.00, -1.00, 672.2, 467.0)">F</text><text xml:space="preserve" font-family="Futura-Medium" font-size="36.0" fill="#5B5753" transform="matrix(1.00, 0.00, -0.00, -1.00, 693.4, 467.0)"> </text><text xml:space="preserve" font-family="Futura-Medium" font-size="36.0" fill="#5B5753" transform="matrix(1.00, 0.00, -0.00, -1.00, 707.4, 467.0)">P</text><text xml:space="preserve" font-family="Futura-Medium" font-size="36.0" fill="#5B5753" transform="matrix(1.00, 0.00, -0.00, -1.00, 729.7, 467.0)">O</text><text xml:space="preserve" font-family="Futura-Medium" font-size="36.0" fill="#5B5753" transform="matrix(1.00, 0.00, -0.00, -1.00, 764.8, 467.0)">S</text><text xml:space="preserve" font-family="Futura-Medium" font-size="36.0" fill="#5B5753" transform="matrix(1.00, 0.00, -0.00, -1.00, 788.7, 467.0)">I</text><text xml:space="preserve" font-family="Futura-Medium" font-size="36.0" fill="#5B5753" transform="matrix(1.00, 0.00, -0.00, -1.00, 802.1, 467.0)">T</text><text xml:space="preserve" font-family="Futura-Medium" font-size="36.0" fill="#5B5753" transform="matrix(1.00, 0.00, -0.00, -1.00, 822.4, 467.0)">I</text><text xml:space="preserve" font-family="Futura-Medium" font-size="36.0" fill="#5B5753" transform="matrix(1.00, 0.00, -0.00, -1.00, 835.9, 467.0)">V</text><text xml:space="preserve" font-family="Futura-Medium" font-size="36.0" fill="#5B5753" transform="matrix(1.00, 0.00, -0.00, -1.00, 863.1, 467.0)">E</text><text xml:space="preserve" font-family="Futura-Medium" font-size="36.0" fill="#5B5753" transform="matrix(1.00, 0.00, -0.00, -1.00, 886.4, 467.0)">,</text><text xml:space="preserve" font-family="Futura-Medium" font-size="36.0" fill="#5B5753" transform="matrix(1.00, 0.00, -0.00, -1.00, 900.4, 467.0)"> </text><text xml:space="preserve" font-family="Futura-Medium" font-size="36.0" fill="#5B5753" transform="matrix(1.00, 0.00, -0.00, -1.00, 100.0, 420.0)">I</text><text xml:space="preserve" font-family="Futura-Medium" font-size="36.0" fill="#5B5753" transform="matrix(1.00, 0.00, -0.00, -1.00, 113.5, 420.0)">N</text><text xml:space="preserve" font-family="Futura-Medium" font-size="36.0" fill="#5B5753" transform="matrix(1.00, 0.00, -0.00, -1.00, 146.8, 420.0)">T</text><text xml:space="preserve" font-family="Futura-Medium" font-size="36.0" fill="#5B5753" transform="matrix(1.00, 0.00, -0.00, -1.00, 167.0, 420.0)">R</text><text xml:space="preserve" font-family="Futura-Medium" font-size="36.0" fill="#5B5753" transform="matrix(1.00, 0.00, -0.00, -1.00, 191.6, 420.0)">I</text><text xml:space="preserve" font-family="Futura-Medium" font-size="36.0" fill="#5B5753" transform="matrix(1.00, 0.00, -0.00, -1.00, 205.1, 420.0)">N</text><text xml:space="preserve" font-family="Futura-Medium" font-size="36.0" fill="#5B5753" transform="matrix(1.00, 0.00, -0.00, -1.00, 238.4, 420.0)">S</text><text xml:space="preserve" font-family="Futura-Medium" font-size="36.0" fill="#5B5753" transform="matrix(1.00, 0.00, -0.00, -1.00, 262.2, 420.0)">I</text><text xml:space="preserve" font-family="Futura-Medium" font-size="36.0" fill="#5B5753" transform="matrix(1.00, 0.00, -0.00, -1.00, 275.7, 420.0)">C</text><text xml:space="preserve" font-family="Futura-Medium" font-size="36.0" fill="#5B5753" transform="matrix(1.00, 0.00, -0.00, -1.00, 304.5, 420.0)">A</text><text xml:space="preserve" font-family="Futura-Medium" font-size="36.0" fill="#5B5753" transform="matrix(1.00, 0.00, -0.00, -1.00, 334.0, 420.0)">L</text><text xml:space="preserve" font-family="Futura-Medium" font-size="36.0" fill="#5B5753" transform="matrix(1.00, 0.00, -0.00, -1.00, 352.9, 420.0)">L</text><text xml:space="preserve" font-family="Futura-Medium" font-size="36.0" fill="#5B5753" transform="matrix(1.00, 0.00, -0.00, -1.00, 369.4, 420.0)">Y</text><text xml:space="preserve" font-family="Futura-Medium" font-size="36.0" fill="#5B5753" transform="matrix(1.00, 0.00, -0.00, -1.00, 393.9, 420.0)"> </text><text xml:space="preserve" font-family="Futura-Medium" font-size="36.0" fill="#5B5753" transform="matrix(1.00, 0.00, -0.00, -1.00, 407.9, 420.0)">M</text><text xml:space="preserve" font-family="Futura-Medium" font-size="36.0" fill="#5B5753" transform="matrix(1.00, 0.00, -0.00, -1.00, 445.4, 420.0)">O</text><text xml:space="preserve" font-family="Futura-Medium" font-size="36.0" fill="#5B5753" transform="matrix(1.00, 0.00, -0.00, -1.00, 479.5, 420.0)">T</text><text xml:space="preserve" font-family="Futura-Medium" font-size="36.0" fill="#5B5753" transform="matrix(1.00, 0.00, -0.00, -1.00, 499.8, 420.0)">I</text><text xml:space="preserve" font-family="Futura-Medium" font-size="36.0" fill="#5B5753" transform="matrix(1.00, 0.00, -0.00, -1.00, 513.2, 420.0)">V</text><text xml:space="preserve" font-family="Futura-Medium" font-size="36.0" fill="#5B5753" transform="matrix(1.00, 0.00, -0.00, -1.00, 538.2, 420.0)">A</text><text xml:space="preserve" font-family="Futura-Medium" font-size="36.0" fill="#5B5753" transform="matrix(1.00, 0.00, -0.00, -1.00, 566.2, 420.0)">T</text><text xml:space="preserve" font-family="Futura-Medium" font-size="36.0" fill="#5B5753" transform="matrix(1.00, 0.00, -0.00, -1.00, 586.5, 420.0)">I</text><text xml:space="preserve" font-family="Futura-Medium" font-size="36.0" fill="#5B5753" transform="matrix(1.00, 0.00, -0.00, -1.00, 600.0, 420.0)">N</text><text xml:space="preserve" font-family="Futura-Medium" font-size="36.0" fill="#5B5753" transform="matrix(1.00, 0.00, -0.00, -1.00, 633.6, 420.0)">G</text><text xml:space="preserve" font-family="Futura-Medium" font-size="36.0" fill="#5B5753" transform="matrix(1.00, 0.00, -0.00, -1.00, 666.8, 420.0)">,</text><text xml:space="preserve" font-family="Futura-Medium" font-size="36.0" fill="#5B5753" transform="matrix(1.00, 0.00, -0.00, -1.00, 680.7, 420.0)"> </text><text xml:space="preserve" font-family="Futura-Medium" font-size="36.0" fill="#5B5753" transform="matrix(1.00, 0.00, -0.00, -1.00, 694.7, 420.0)">“</text><text xml:space="preserve" font-family="Futura-Medium" font-size="36.0" fill="#5B5753" transform="matrix(1.00, 0.00, -0.00, -1.00, 716.4, 420.0)">G</text><text xml:space="preserve" font-family="Futura-Medium" font-size="36.0" fill="#5B5753" transform="matrix(1.00, 0.00, -0.00, -1.00, 748.4, 420.0)">A</text><text xml:space="preserve" font-family="Futura-Medium" font-size="36.0" fill="#5B5753" transform="matrix(1.00, 0.00, -0.00, -1.00, 777.9, 420.0)">M</text><text xml:space="preserve" font-family="Futura-Medium" font-size="36.0" fill="#5B5753" transform="matrix(1.00, 0.00, -0.00, -1.00, 815.4, 420.0)">E</text><text xml:space="preserve" font-family="Futura-Medium" font-size="36.0" fill="#5B5753" transform="matrix(1.00, 0.00, -0.00, -1.00, 838.7, 420.0)">F</text><text xml:space="preserve" font-family="Futura-Medium" font-size="36.0" fill="#5B5753" transform="matrix(1.00, 0.00, -0.00, -1.00, 859.9, 420.0)">U</text><text xml:space="preserve" font-family="Futura-Medium" font-size="36.0" fill="#5B5753" transform="matrix(1.00, 0.00, -0.00, -1.00, 889.4, 420.0)">L</text><text xml:space="preserve" font-family="Futura-Medium" font-size="36.0" fill="#5B5753" transform="matrix(1.00, 0.00, -0.00, -1.00, 906.4, 420.0)">”</text><text xml:space="preserve" font-family="Futura-Medium" font-size="36.0" fill="#5B5753" transform="matrix(1.00, 0.00, -0.00, -1.00, 928.0, 420.0)"> </text><text xml:space="preserve" font-family="Futura-Medium" font-size="36.0" fill="#5B5753" transform="matrix(1.00, 0.00, -0.00, -1.00, 167.0, 373.0)">E</text><text xml:space="preserve" font-family="Futura-Medium" font-size="36.0" fill="#5B5753" transform="matrix(1.00, 0.00, -0.00, -1.00, 190.2, 373.0)">X</text><text xml:space="preserve" font-family="Futura-Medium" font-size="36.0" fill="#5B5753" transform="matrix(1.00, 0.00, -0.00, -1.00, 215.3, 373.0)">P</text><text xml:space="preserve" font-family="Futura-Medium" font-size="36.0" fill="#5B5753" transform="matrix(1.00, 0.00, -0.00, -1.00, 237.7, 373.0)">E</text><text xml:space="preserve" font-family="Futura-Medium" font-size="36.0" fill="#5B5753" transform="matrix(1.00, 0.00, -0.00, -1.00, 260.9, 373.0)">R</text><text xml:space="preserve" font-family="Futura-Medium" font-size="36.0" fill="#5B5753" transform="matrix(1.00, 0.00, -0.00, -1.00, 285.5, 373.0)">I</text><text xml:space="preserve" font-family="Futura-Medium" font-size="36.0" fill="#5B5753" transform="matrix(1.00, 0.00, -0.00, -1.00, 299.0, 373.0)">E</text><text xml:space="preserve" font-family="Futura-Medium" font-size="36.0" fill="#5B5753" transform="matrix(1.00, 0.00, -0.00, -1.00, 322.2, 373.0)">N</text><text xml:space="preserve" font-family="Futura-Medium" font-size="36.0" fill="#5B5753" transform="matrix(1.00, 0.00, -0.00, -1.00, 355.8, 373.0)">C</text><text xml:space="preserve" font-family="Futura-Medium" font-size="36.0" fill="#5B5753" transform="matrix(1.00, 0.00, -0.00, -1.00, 383.8, 373.0)">E</text><text xml:space="preserve" font-family="Futura-Medium" font-size="36.0" fill="#5B5753" transform="matrix(1.00, 0.00, -0.00, -1.00, 407.1, 373.0)">S</text><text xml:space="preserve" font-family="Futura-Medium" font-size="36.0" fill="#5B5753" transform="matrix(1.00, 0.00, -0.00, -1.00, 431.0, 373.0)"> </text><text xml:space="preserve" font-family="Futura-Medium" font-size="36.0" fill="#5B5753" transform="matrix(1.00, 0.00, -0.00, -1.00, 444.9, 373.0)">B</text><text xml:space="preserve" font-family="Futura-Medium" font-size="36.0" fill="#5B5753" transform="matrix(1.00, 0.00, -0.00, -1.00, 469.1, 373.0)">R</text><text xml:space="preserve" font-family="Futura-Medium" font-size="36.0" fill="#5B5753" transform="matrix(1.00, 0.00, -0.00, -1.00, 493.1, 373.0)">O</text><text xml:space="preserve" font-family="Futura-Medium" font-size="36.0" fill="#5B5753" transform="matrix(1.00, 0.00, -0.00, -1.00, 528.1, 373.0)">U</text><text xml:space="preserve" font-family="Futura-Medium" font-size="36.0" fill="#5B5753" transform="matrix(1.00, 0.00, -0.00, -1.00, 557.6, 373.0)">G</text><text xml:space="preserve" font-family="Futura-Medium" font-size="36.0" fill="#5B5753" transform="matrix(1.00, 0.00, -0.00, -1.00, 590.8, 373.0)">H</text><text xml:space="preserve" font-family="Futura-Medium" font-size="36.0" fill="#5B5753" transform="matrix(1.00, 0.00, -0.00, -1.00, 620.1, 373.0)">T</text><text xml:space="preserve" font-family="Futura-Medium" font-size="36.0" fill="#5B5753" transform="matrix(1.00, 0.00, -0.00, -1.00, 640.3, 373.0)"> </text><text xml:space="preserve" font-family="Futura-Medium" font-size="36.0" fill="#5B5753" transform="matrix(1.00, 0.00, -0.00, -1.00, 654.3, 373.0)">B</text><text xml:space="preserve" font-family="Futura-Medium" font-size="36.0" fill="#5B5753" transform="matrix(1.00, 0.00, -0.00, -1.00, 677.1, 373.0)">Y</text><text xml:space="preserve" font-family="Futura-Medium" font-size="36.0" fill="#5B5753" transform="matrix(1.00, 0.00, -0.00, -1.00, 701.6, 373.0)"> </text><text xml:space="preserve" font-family="Futura-Medium" font-size="36.0" fill="#5B5753" transform="matrix(1.00, 0.00, -0.00, -1.00, 715.6, 373.0)">G</text><text xml:space="preserve" font-family="Futura-Medium" font-size="36.0" fill="#5B5753" transform="matrix(1.00, 0.00, -0.00, -1.00, 747.6, 373.0)">A</text><text xml:space="preserve" font-family="Futura-Medium" font-size="36.0" fill="#5B5753" transform="matrix(1.00, 0.00, -0.00, -1.00, 777.1, 373.0)">M</text><text xml:space="preserve" font-family="Futura-Medium" font-size="36.0" fill="#5B5753" transform="matrix(1.00, 0.00, -0.00, -1.00, 814.6, 373.0)">E</text><text xml:space="preserve" font-family="Futura-Medium" font-size="36.0" fill="#5B5753" transform="matrix(1.00, 0.00, -0.00, -1.00, 837.9, 373.0)">/</text><text xml:space="preserve" font-family="Futura-Medium" font-size="36.0" fill="#5B5753" transform="matrix(1.00, 0.00, -0.00, -1.00, 203.0, 326.0)">M</text><text xml:space="preserve" font-family="Futura-Medium" font-size="36.0" fill="#5B5753" transform="matrix(1.00, 0.00, -0.00, -1.00, 240.5, 326.0)">O</text><text xml:space="preserve" font-family="Futura-Medium" font-size="36.0" fill="#5B5753" transform="matrix(1.00, 0.00, -0.00, -1.00, 274.6, 326.0)">T</text><text xml:space="preserve" font-family="Futura-Medium" font-size="36.0" fill="#5B5753" transform="matrix(1.00, 0.00, -0.00, -1.00, 294.8, 326.0)">I</text><text xml:space="preserve" font-family="Futura-Medium" font-size="36.0" fill="#5B5753" transform="matrix(1.00, 0.00, -0.00, -1.00, 308.3, 326.0)">V</text><text xml:space="preserve" font-family="Futura-Medium" font-size="36.0" fill="#5B5753" transform="matrix(1.00, 0.00, -0.00, -1.00, 333.3, 326.0)">A</text><text xml:space="preserve" font-family="Futura-Medium" font-size="36.0" fill="#5B5753" transform="matrix(1.00, 0.00, -0.00, -1.00, 361.3, 326.0)">T</text><text xml:space="preserve" font-family="Futura-Medium" font-size="36.0" fill="#5B5753" transform="matrix(1.00, 0.00, -0.00, -1.00, 381.5, 326.0)">I</text><text xml:space="preserve" font-family="Futura-Medium" font-size="36.0" fill="#5B5753" transform="matrix(1.00, 0.00, -0.00, -1.00, 395.0, 326.0)">O</text><text xml:space="preserve" font-family="Futura-Medium" font-size="36.0" fill="#5B5753" transform="matrix(1.00, 0.00, -0.00, -1.00, 430.0, 326.0)">N</text><text xml:space="preserve" font-family="Futura-Medium" font-size="36.0" fill="#5B5753" transform="matrix(1.00, 0.00, -0.00, -1.00, 463.5, 326.0)">A</text><text xml:space="preserve" font-family="Futura-Medium" font-size="36.0" fill="#5B5753" transform="matrix(1.00, 0.00, -0.00, -1.00, 493.1, 326.0)">L</text><text xml:space="preserve" font-family="Futura-Medium" font-size="36.0" fill="#5B5753" transform="matrix(1.00, 0.00, -0.00, -1.00, 511.9, 326.0)"> </text><text xml:space="preserve" font-family="Futura-Medium" font-size="36.0" fill="#5B5753" transform="matrix(1.00, 0.00, -0.00, -1.00, 525.9, 326.0)">A</text><text xml:space="preserve" font-family="Futura-Medium" font-size="36.0" fill="#5B5753" transform="matrix(1.00, 0.00, -0.00, -1.00, 555.4, 326.0)">F</text><text xml:space="preserve" font-family="Futura-Medium" font-size="36.0" fill="#5B5753" transform="matrix(1.00, 0.00, -0.00, -1.00, 576.6, 326.0)">F</text><text xml:space="preserve" font-family="Futura-Medium" font-size="36.0" fill="#5B5753" transform="matrix(1.00, 0.00, -0.00, -1.00, 597.8, 326.0)">O</text><text xml:space="preserve" font-family="Futura-Medium" font-size="36.0" fill="#5B5753" transform="matrix(1.00, 0.00, -0.00, -1.00, 632.9, 326.0)">R</text><text xml:space="preserve" font-family="Futura-Medium" font-size="36.0" fill="#5B5753" transform="matrix(1.00, 0.00, -0.00, -1.00, 657.4, 326.0)">D</text><text xml:space="preserve" font-family="Futura-Medium" font-size="36.0" fill="#5B5753" transform="matrix(1.00, 0.00, -0.00, -1.00, 685.1, 326.0)">A</text><text xml:space="preserve" font-family="Futura-Medium" font-size="36.0" fill="#5B5753" transform="matrix(1.00, 0.00, -0.00, -1.00, 714.7, 326.0)">N</text><text xml:space="preserve" font-family="Futura-Medium" font-size="36.0" fill="#5B5753" transform="matrix(1.00, 0.00, -0.00, -1.00, 748.2, 326.0)">C</text><text xml:space="preserve" font-family="Futura-Medium" font-size="36.0" fill="#5B5753" transform="matrix(1.00, 0.00, -0.00, -1.00, 776.3, 326.0)">E</text><text xml:space="preserve" font-family="Futura-Medium" font-size="36.0" fill="#5B5753" transform="matrix(1.00, 0.00, -0.00, -1.00, 799.5, 326.0)">S</text><text xml:space="preserve" font-family="Futura-Medium" font-size="36.0" fill="#5B5753" transform="matrix(1.00, 0.00, -0.00, -1.00, 823.4, 326.0)"> </text><text xml:space="preserve" font-family="Futura-Medium" font-size="36.0" fill="#5B5753" transform="matrix(1.00, 0.00, -0.00, -1.00, 205.0, 279.0)">I</text><text xml:space="preserve" font-family="Futura-Medium" font-size="36.0" fill="#5B5753" transform="matrix(1.00, 0.00, -0.00, -1.00, 218.5, 279.0)">M</text><text xml:space="preserve" font-family="Futura-Medium" font-size="36.0" fill="#5B5753" transform="matrix(1.00, 0.00, -0.00, -1.00, 256.0, 279.0)">P</text><text xml:space="preserve" font-family="Futura-Medium" font-size="36.0" fill="#5B5753" transform="matrix(1.00, 0.00, -0.00, -1.00, 278.3, 279.0)">L</text><text xml:space="preserve" font-family="Futura-Medium" font-size="36.0" fill="#5B5753" transform="matrix(1.00, 0.00, -0.00, -1.00, 297.2, 279.0)">E</text><text xml:space="preserve" font-family="Futura-Medium" font-size="36.0" fill="#5B5753" transform="matrix(1.00, 0.00, -0.00, -1.00, 320.5, 279.0)">M</text><text xml:space="preserve" font-family="Futura-Medium" font-size="36.0" fill="#5B5753" transform="matrix(1.00, 0.00, -0.00, -1.00, 358.0, 279.0)">E</text><text xml:space="preserve" font-family="Futura-Medium" font-size="36.0" fill="#5B5753" transform="matrix(1.00, 0.00, -0.00, -1.00, 381.3, 279.0)">N</text><text xml:space="preserve" font-family="Futura-Medium" font-size="36.0" fill="#5B5753" transform="matrix(1.00, 0.00, -0.00, -1.00, 414.5, 279.0)">T</text><text xml:space="preserve" font-family="Futura-Medium" font-size="36.0" fill="#5B5753" transform="matrix(1.00, 0.00, -0.00, -1.00, 434.8, 279.0)">E</text><text xml:space="preserve" font-family="Futura-Medium" font-size="36.0" fill="#5B5753" transform="matrix(1.00, 0.00, -0.00, -1.00, 458.1, 279.0)">D</text><text xml:space="preserve" font-family="Futura-Medium" font-size="36.0" fill="#5B5753" transform="matrix(1.00, 0.00, -0.00, -1.00, 487.1, 279.0)"> </text><text xml:space="preserve" font-family="Futura-Medium" font-size="36.0" fill="#5B5753" transform="matrix(1.00, 0.00, -0.00, -1.00, 501.1, 279.0)">I</text><text xml:space="preserve" font-family="Futura-Medium" font-size="36.0" fill="#5B5753" transform="matrix(1.00, 0.00, -0.00, -1.00, 514.6, 279.0)">N</text><text xml:space="preserve" font-family="Futura-Medium" font-size="36.0" fill="#5B5753" transform="matrix(1.00, 0.00, -0.00, -1.00, 547.8, 279.0)">T</text><text xml:space="preserve" font-family="Futura-Medium" font-size="36.0" fill="#5B5753" transform="matrix(1.00, 0.00, -0.00, -1.00, 567.3, 279.0)">O</text><text xml:space="preserve" font-family="Futura-Medium" font-size="36.0" fill="#5B5753" transform="matrix(1.00, 0.00, -0.00, -1.00, 602.3, 279.0)"> </text><text xml:space="preserve" font-family="Futura-Medium" font-size="36.0" fill="#5B5753" transform="matrix(1.00, 0.00, -0.00, -1.00, 616.3, 279.0)">A</text><text xml:space="preserve" font-family="Futura-Medium" font-size="36.0" fill="#5B5753" transform="matrix(1.00, 0.00, -0.00, -1.00, 645.8, 279.0)"> </text><text xml:space="preserve" font-family="Futura-Medium" font-size="36.0" fill="#5B5753" transform="matrix(1.00, 0.00, -0.00, -1.00, 659.8, 279.0)">S</text><text xml:space="preserve" font-family="Futura-Medium" font-size="36.0" fill="#5B5753" transform="matrix(1.00, 0.00, -0.00, -1.00, 683.7, 279.0)">E</text><text xml:space="preserve" font-family="Futura-Medium" font-size="36.0" fill="#5B5753" transform="matrix(1.00, 0.00, -0.00, -1.00, 707.0, 279.0)">R</text><text xml:space="preserve" font-family="Futura-Medium" font-size="36.0" fill="#5B5753" transform="matrix(1.00, 0.00, -0.00, -1.00, 730.5, 279.0)">V</text><text xml:space="preserve" font-family="Futura-Medium" font-size="36.0" fill="#5B5753" transform="matrix(1.00, 0.00, -0.00, -1.00, 757.8, 279.0)">I</text><text xml:space="preserve" font-family="Futura-Medium" font-size="36.0" fill="#5B5753" transform="matrix(1.00, 0.00, -0.00, -1.00, 771.2, 279.0)">C</text><text xml:space="preserve" font-family="Futura-Medium" font-size="36.0" fill="#5B5753" transform="matrix(1.00, 0.00, -0.00, -1.00, 799.3, 279.0)">E</text><text xml:space="preserve" font-family="Baskerville-SemiBold" font-weight="bold" font-size="90.0" fill="#5B5753" transform="matrix(1.00, 0.00, -0.00, -1.00, 486.0, 127.0)">”</text><text xml:space="preserve" font-family="Baskerville-SemiBold" font-weight="bold" font-size="90.0" fill="#5B5753" transform="matrix(1.00, 0.00, -0.00, -1.00, 486.0, 560.0)">“</text></g></svg>