<?xml version="1.0" encoding="UTF-8" standalone="no"?><svg xmlns="http://www.w3.org/2000/svg" xmlns:xlink="http://www.w3.org/1999/xlink" clip-rule="evenodd" stroke-miterlimit="4.00" viewBox="0 0 1024 768"><desc>SVG generated by Keynote</desc><defs></defs><g transform="matrix(1.00, 0.00, -0.00, -1.00, 0.0, 768.0)"><g><clipPath id="clip-24"><path d="M 0.0 768.0 L 1024.0 768.0 L 1024.0 0.0 L 0.0 0.0 Z M 0.0 768.0 "></path></clipPath><g clip-path="url(#clip-24)"><image xlink:href="../../7F7A4433-E76C-486C-A6DD-235F8769393F/assets/AC8A38799F83CDE46BAD7F0B4FE74D5F.jpeg" width="1024.00" height="768.00" transform="matrix(1.00, 0.00, -0.00, -1.00, 0.0, 768.0)"></image></g></g><text xml:space="preserve" font-family="Futura-Medium" font-size="71.8" fill="#5B5753" transform="matrix(1.00, 0.00, -0.00, -1.00, 57.0, 404.0)">W</text><text xml:space="preserve" font-family="Futura-Medium" font-size="71.8" fill="#5B5753" transform="matrix(1.00, 0.00, -0.00, -1.00, 134.5, 404.0)">H</text><text xml:space="preserve" font-family="Futura-Medium" font-size="71.8" fill="#5B5753" transform="matrix(1.00, 0.00, -0.00, -1.00, 188.6, 404.0)">Y</text><text xml:space="preserve" font-family="Futura-Medium" font-size="71.8" fill="#5B5753" transform="matrix(1.00, 0.00, -0.00, -1.00, 233.1, 404.0)"> </text><text xml:space="preserve" font-family="Futura-Medium" font-size="71.8" fill="#5B5753" transform="matrix(1.00, 0.00, -0.00, -1.00, 256.7, 404.0)">D</text><text xml:space="preserve" font-family="Futura-Medium" font-size="71.8" fill="#5B5753" transform="matrix(1.00, 0.00, -0.00, -1.00, 310.3, 404.0)">I</text><text xml:space="preserve" font-family="Futura-Medium" font-size="71.8" fill="#5B5753" transform="matrix(1.00, 0.00, -0.00, -1.00, 332.8, 404.0)">D</text><text xml:space="preserve" font-family="Futura-Medium" font-size="71.8" fill="#5B5753" transform="matrix(1.00, 0.00, -0.00, -1.00, 386.4, 404.0)"> </text><text xml:space="preserve" font-family="Futura-Medium" font-size="71.8" fill="#5B5753" transform="matrix(1.00, 0.00, -0.00, -1.00, 409.9, 404.0)">G</text><text xml:space="preserve" font-family="Futura-Medium" font-size="71.8" fill="#5B5753" transform="matrix(1.00, 0.00, -0.00, -1.00, 469.4, 404.0)">A</text><text xml:space="preserve" font-family="Futura-Medium" font-size="71.8" fill="#5B5753" transform="matrix(1.00, 0.00, -0.00, -1.00, 524.0, 404.0)">M</text><text xml:space="preserve" font-family="Futura-Medium" font-size="71.8" fill="#5B5753" transform="matrix(1.00, 0.00, -0.00, -1.00, 594.4, 404.0)">I</text><text xml:space="preserve" font-family="Futura-Medium" font-size="71.8" fill="#5B5753" transform="matrix(1.00, 0.00, -0.00, -1.00, 617.0, 404.0)">F</text><text xml:space="preserve" font-family="Futura-Medium" font-size="71.8" fill="#5B5753" transform="matrix(1.00, 0.00, -0.00, -1.00, 654.9, 404.0)">I</text><text xml:space="preserve" font-family="Futura-Medium" font-size="71.8" fill="#5B5753" transform="matrix(1.00, 0.00, -0.00, -1.00, 677.5, 404.0)">C</text><text xml:space="preserve" font-family="Futura-Medium" font-size="71.8" fill="#5B5753" transform="matrix(1.00, 0.00, -0.00, -1.00, 730.5, 404.0)">A</text><text xml:space="preserve" font-family="Futura-Medium" font-size="71.8" fill="#5B5753" transform="matrix(1.00, 0.00, -0.00, -1.00, 782.0, 404.0)">T</text><text xml:space="preserve" font-family="Futura-Medium" font-size="71.8" fill="#5B5753" transform="matrix(1.00, 0.00, -0.00, -1.00, 818.1, 404.0)">I</text><text xml:space="preserve" font-family="Futura-Medium" font-size="71.8" fill="#5B5753" transform="matrix(1.00, 0.00, -0.00, -1.00, 840.7, 404.0)">O</text><text xml:space="preserve" font-family="Futura-Medium" font-size="71.8" fill="#5B5753" transform="matrix(1.00, 0.00, -0.00, -1.00, 906.2, 404.0)">N</text><text xml:space="preserve" font-family="Futura-Medium" font-size="71.8" fill="#5B5753" transform="matrix(1.00, 0.00, -0.00, -1.00, 968.2, 404.0)"> </text><text xml:space="preserve" font-family="Futura-Medium" font-size="71.8" fill="#5B5753" transform="matrix(1.00, 0.00, -0.00, -1.00, 195.0, 308.0)">B</text><text xml:space="preserve" font-family="Futura-Medium" font-size="71.8" fill="#5B5753" transform="matrix(1.00, 0.00, -0.00, -1.00, 238.9, 308.0)">E</text><text xml:space="preserve" font-family="Futura-Medium" font-size="71.8" fill="#5B5753" transform="matrix(1.00, 0.00, -0.00, -1.00, 280.9, 308.0)">C</text><text xml:space="preserve" font-family="Futura-Medium" font-size="71.8" fill="#5B5753" transform="matrix(1.00, 0.00, -0.00, -1.00, 332.2, 308.0)">O</text><text xml:space="preserve" font-family="Futura-Medium" font-size="71.8" fill="#5B5753" transform="matrix(1.00, 0.00, -0.00, -1.00, 397.7, 308.0)">M</text><text xml:space="preserve" font-family="Futura-Medium" font-size="71.8" fill="#5B5753" transform="matrix(1.00, 0.00, -0.00, -1.00, 468.2, 308.0)">E</text><text xml:space="preserve" font-family="Futura-Medium" font-size="71.8" fill="#5B5753" transform="matrix(1.00, 0.00, -0.00, -1.00, 510.2, 308.0)"> </text><text xml:space="preserve" font-family="Futura-Medium" font-size="71.8" fill="#5B5753" transform="matrix(1.00, 0.00, -0.00, -1.00, 533.7, 308.0)">S</text><text xml:space="preserve" font-family="Futura-Medium" font-size="71.8" fill="#5B5753" transform="matrix(1.00, 0.00, -0.00, -1.00, 577.0, 308.0)">O</text><text xml:space="preserve" font-family="Futura-Medium" font-size="71.8" fill="#5B5753" transform="matrix(1.00, 0.00, -0.00, -1.00, 642.5, 308.0)"> </text><text xml:space="preserve" font-family="Futura-Medium" font-size="71.8" fill="#5B5753" transform="matrix(1.00, 0.00, -0.00, -1.00, 666.1, 308.0)">B</text><text xml:space="preserve" font-family="Futura-Medium" font-size="71.8" fill="#5B5753" transform="matrix(1.00, 0.00, -0.00, -1.00, 710.0, 308.0)">I</text><text xml:space="preserve" font-family="Futura-Medium" font-size="71.8" fill="#5B5753" transform="matrix(1.00, 0.00, -0.00, -1.00, 732.6, 308.0)">G</text><text xml:space="preserve" font-family="Futura-Medium" font-size="71.8" fill="#5B5753" transform="matrix(1.00, 0.00, -0.00, -1.00, 794.5, 308.0)">?</text></g></svg>