<?xml version="1.0" encoding="UTF-8" standalone="no"?><svg xmlns="http://www.w3.org/2000/svg" xmlns:xlink="http://www.w3.org/1999/xlink" clip-rule="evenodd" stroke-miterlimit="4.00" viewBox="0 0 1024 768"><desc>SVG generated by Keynote</desc><defs></defs><g transform="matrix(1.00, 0.00, -0.00, -1.00, 0.0, 768.0)"><g><clipPath id="clip-101"><path d="M 0.0 768.0 L 1024.0 768.0 L 1024.0 0.0 L 0.0 0.0 Z M 0.0 768.0 "></path></clipPath><g clip-path="url(#clip-101)"><image xlink:href="../../AF96F424-7C09-4F78-963E-46EE187EF601/assets/D52BF74205EDDA1E3AD886EF31563845.jpeg" width="1024.00" height="768.00" transform="matrix(1.00, 0.00, -0.00, -1.00, 0.0, 768.0)"></image></g></g><image xlink:href="6FC5364EACF2A1705768BB2E66A0E383.png" width="1007.00" height="898.00" transform="matrix(1.00, 0.00, -0.00, -1.00, 8.5, 832.1)"></image><image xlink:href="167FC314AB79C28F63BE5131372AEBFE.png" width="927.00" height="511.00" transform="matrix(1.00, 0.00, -0.00, -1.00, 49.0, 639.0)"></image><text xml:space="preserve" font-family="Futura-Medium" font-size="39.6" fill="#5B5753" transform="matrix(1.00, 0.00, -0.00, -1.00, 451.0, 677.0)">N</text><text xml:space="preserve" font-family="Futura-Medium" font-size="39.6" fill="#5B5753" transform="matrix(1.00, 0.00, -0.00, -1.00, 485.2, 677.0)">I</text><text xml:space="preserve" font-family="Futura-Medium" font-size="39.6" fill="#5B5753" transform="matrix(1.00, 0.00, -0.00, -1.00, 497.7, 677.0)">K</text><text xml:space="preserve" font-family="Futura-Medium" font-size="39.6" fill="#5B5753" transform="matrix(1.00, 0.00, -0.00, -1.00, 524.7, 677.0)">E</text><text xml:space="preserve" font-family="Futura-Medium" font-size="39.6" fill="#5B5753" transform="matrix(1.00, 0.00, -0.00, -1.00, 547.9, 677.0)">+</text></g></svg>