<?xml version="1.0" encoding="UTF-8" standalone="no"?><svg xmlns="http://www.w3.org/2000/svg" xmlns:xlink="http://www.w3.org/1999/xlink" clip-rule="evenodd" stroke-miterlimit="4.00" viewBox="0 0 1024 768"><desc>SVG generated by Keynote</desc><defs></defs><g transform="matrix(1.00, 0.00, -0.00, -1.00, 0.0, 768.0)"><g><clipPath id="clip-107"><path d="M 0.0 768.0 L 1024.0 768.0 L 1024.0 0.0 L 0.0 0.0 Z M 0.0 768.0 "></path></clipPath><g clip-path="url(#clip-107)"><image xlink:href="../../7F7A4433-E76C-486C-A6DD-235F8769393F/assets/AC8A38799F83CDE46BAD7F0B4FE74D5F.jpeg" width="1024.00" height="768.00" transform="matrix(1.00, 0.00, -0.00, -1.00, 0.0, 768.0)"></image></g></g><text xml:space="preserve" font-family="Avenir-MediumOblique" font-style="italic" font-size="26.0" fill="#AB6153" transform="matrix(1.00, 0.00, -0.00, -1.00, 428.0, 194.0)">—</text><text xml:space="preserve" font-family="Avenir-MediumOblique" font-style="italic" font-size="26.0" fill="#AB6153" transform="matrix(1.00, 0.00, -0.00, -1.00, 454.5, 194.0)"> </text><text xml:space="preserve" font-family="Avenir-MediumOblique" font-style="italic" font-size="26.0" fill="#AB6153" transform="matrix(1.00, 0.00, -0.00, -1.00, 462.3, 194.0)">J</text><text xml:space="preserve" font-family="Avenir-MediumOblique" font-style="italic" font-size="26.0" fill="#AB6153" transform="matrix(1.00, 0.00, -0.00, -1.00, 475.3, 194.0)">u</text><text xml:space="preserve" font-family="Avenir-MediumOblique" font-style="italic" font-size="26.0" fill="#AB6153" transform="matrix(1.00, 0.00, -0.00, -1.00, 490.3, 194.0)">d</text><text xml:space="preserve" font-family="Avenir-MediumOblique" font-style="italic" font-size="26.0" fill="#AB6153" transform="matrix(1.00, 0.00, -0.00, -1.00, 506.7, 194.0)">d</text><text xml:space="preserve" font-family="Avenir-MediumOblique" font-style="italic" font-size="26.0" fill="#AB6153" transform="matrix(1.00, 0.00, -0.00, -1.00, 523.1, 194.0)"> </text><text xml:space="preserve" font-family="Avenir-MediumOblique" font-style="italic" font-size="26.0" fill="#AB6153" transform="matrix(1.00, 0.00, -0.00, -1.00, 530.9, 194.0)">A</text><text xml:space="preserve" font-family="Avenir-MediumOblique" font-style="italic" font-size="26.0" fill="#AB6153" transform="matrix(1.00, 0.00, -0.00, -1.00, 549.7, 194.0)">n</text><text xml:space="preserve" font-family="Avenir-MediumOblique" font-style="italic" font-size="26.0" fill="#AB6153" transform="matrix(1.00, 0.00, -0.00, -1.00, 564.7, 194.0)">t</text><text xml:space="preserve" font-family="Avenir-MediumOblique" font-style="italic" font-size="26.0" fill="#AB6153" transform="matrix(1.00, 0.00, -0.00, -1.00, 574.8, 194.0)">i</text><text xml:space="preserve" font-family="Avenir-MediumOblique" font-style="italic" font-size="26.0" fill="#AB6153" transform="matrix(1.00, 0.00, -0.00, -1.00, 581.6, 194.0)">n</text><text xml:space="preserve" font-family="Avenir-MediumOblique" font-style="italic" font-size="26.0" fill="#AB6153" transform="matrix(1.00, 0.00, -0.00, -1.00, 596.5, 194.0)"> </text><text xml:space="preserve" font-family="Futura-Medium" font-size="35.0" fill="#5B5753" transform="matrix(1.00, 0.00, -0.00, -1.00, 93.0, 527.0)">W</text><text xml:space="preserve" font-family="Futura-Medium" font-size="35.0" fill="#5B5753" transform="matrix(1.00, 0.00, -0.00, -1.00, 132.9, 527.0)">H</text><text xml:space="preserve" font-family="Futura-Medium" font-size="35.0" fill="#5B5753" transform="matrix(1.00, 0.00, -0.00, -1.00, 161.4, 527.0)">I</text><text xml:space="preserve" font-family="Futura-Medium" font-size="35.0" fill="#5B5753" transform="matrix(1.00, 0.00, -0.00, -1.00, 174.5, 527.0)">L</text><text xml:space="preserve" font-family="Futura-Medium" font-size="35.0" fill="#5B5753" transform="matrix(1.00, 0.00, -0.00, -1.00, 192.8, 527.0)">E</text><text xml:space="preserve" font-family="Futura-Medium" font-size="35.0" fill="#5B5753" transform="matrix(1.00, 0.00, -0.00, -1.00, 215.4, 527.0)"> </text><text xml:space="preserve" font-family="Futura-Medium" font-size="35.0" fill="#5B5753" transform="matrix(1.00, 0.00, -0.00, -1.00, 229.0, 527.0)">O</text><text xml:space="preserve" font-family="Futura-Medium" font-size="35.0" fill="#5B5753" transform="matrix(1.00, 0.00, -0.00, -1.00, 263.1, 527.0)">N</text><text xml:space="preserve" font-family="Futura-Medium" font-size="35.0" fill="#5B5753" transform="matrix(1.00, 0.00, -0.00, -1.00, 295.4, 527.0)">L</text><text xml:space="preserve" font-family="Futura-Medium" font-size="35.0" fill="#5B5753" transform="matrix(1.00, 0.00, -0.00, -1.00, 313.8, 527.0)">I</text><text xml:space="preserve" font-family="Futura-Medium" font-size="35.0" fill="#5B5753" transform="matrix(1.00, 0.00, -0.00, -1.00, 326.9, 527.0)">N</text><text xml:space="preserve" font-family="Futura-Medium" font-size="35.0" fill="#5B5753" transform="matrix(1.00, 0.00, -0.00, -1.00, 359.2, 527.0)">E</text><text xml:space="preserve" font-family="Futura-Medium" font-size="35.0" fill="#5B5753" transform="matrix(1.00, 0.00, -0.00, -1.00, 381.9, 527.0)"> </text><text xml:space="preserve" font-family="Futura-Medium" font-size="35.0" fill="#5B5753" transform="matrix(1.00, 0.00, -0.00, -1.00, 395.4, 527.0)">P</text><text xml:space="preserve" font-family="Futura-Medium" font-size="35.0" fill="#5B5753" transform="matrix(1.00, 0.00, -0.00, -1.00, 415.2, 527.0)">A</text><text xml:space="preserve" font-family="Futura-Medium" font-size="35.0" fill="#5B5753" transform="matrix(1.00, 0.00, -0.00, -1.00, 443.9, 527.0)">R</text><text xml:space="preserve" font-family="Futura-Medium" font-size="35.0" fill="#5B5753" transform="matrix(1.00, 0.00, -0.00, -1.00, 467.5, 527.0)">T</text><text xml:space="preserve" font-family="Futura-Medium" font-size="35.0" fill="#5B5753" transform="matrix(1.00, 0.00, -0.00, -1.00, 487.2, 527.0)">I</text><text xml:space="preserve" font-family="Futura-Medium" font-size="35.0" fill="#5B5753" transform="matrix(1.00, 0.00, -0.00, -1.00, 500.3, 527.0)">C</text><text xml:space="preserve" font-family="Futura-Medium" font-size="35.0" fill="#5B5753" transform="matrix(1.00, 0.00, -0.00, -1.00, 527.6, 527.0)">I</text><text xml:space="preserve" font-family="Futura-Medium" font-size="35.0" fill="#5B5753" transform="matrix(1.00, 0.00, -0.00, -1.00, 540.7, 527.0)">P</text><text xml:space="preserve" font-family="Futura-Medium" font-size="35.0" fill="#5B5753" transform="matrix(1.00, 0.00, -0.00, -1.00, 560.5, 527.0)">A</text><text xml:space="preserve" font-family="Futura-Medium" font-size="35.0" fill="#5B5753" transform="matrix(1.00, 0.00, -0.00, -1.00, 589.2, 527.0)">N</text><text xml:space="preserve" font-family="Futura-Medium" font-size="35.0" fill="#5B5753" transform="matrix(1.00, 0.00, -0.00, -1.00, 621.5, 527.0)">T</text><text xml:space="preserve" font-family="Futura-Medium" font-size="35.0" fill="#5B5753" transform="matrix(1.00, 0.00, -0.00, -1.00, 641.2, 527.0)">S</text><text xml:space="preserve" font-family="Futura-Medium" font-size="35.0" fill="#5B5753" transform="matrix(1.00, 0.00, -0.00, -1.00, 664.4, 527.0)"> </text><text xml:space="preserve" font-family="Futura-Medium" font-size="35.0" fill="#5B5753" transform="matrix(1.00, 0.00, -0.00, -1.00, 678.0, 527.0)">A</text><text xml:space="preserve" font-family="Futura-Medium" font-size="35.0" fill="#5B5753" transform="matrix(1.00, 0.00, -0.00, -1.00, 706.7, 527.0)">R</text><text xml:space="preserve" font-family="Futura-Medium" font-size="35.0" fill="#5B5753" transform="matrix(1.00, 0.00, -0.00, -1.00, 730.6, 527.0)">E</text><text xml:space="preserve" font-family="Futura-Medium" font-size="35.0" fill="#5B5753" transform="matrix(1.00, 0.00, -0.00, -1.00, 753.2, 527.0)"> </text><text xml:space="preserve" font-family="Futura-Medium" font-size="35.0" fill="#5B5753" transform="matrix(1.00, 0.00, -0.00, -1.00, 766.8, 527.0)">U</text><text xml:space="preserve" font-family="Futura-Medium" font-size="35.0" fill="#5B5753" transform="matrix(1.00, 0.00, -0.00, -1.00, 795.4, 527.0)">S</text><text xml:space="preserve" font-family="Futura-Medium" font-size="35.0" fill="#5B5753" transform="matrix(1.00, 0.00, -0.00, -1.00, 818.7, 527.0)">U</text><text xml:space="preserve" font-family="Futura-Medium" font-size="35.0" fill="#5B5753" transform="matrix(1.00, 0.00, -0.00, -1.00, 846.2, 527.0)">A</text><text xml:space="preserve" font-family="Futura-Medium" font-size="35.0" fill="#5B5753" transform="matrix(1.00, 0.00, -0.00, -1.00, 874.9, 527.0)">L</text><text xml:space="preserve" font-family="Futura-Medium" font-size="35.0" fill="#5B5753" transform="matrix(1.00, 0.00, -0.00, -1.00, 893.2, 527.0)">L</text><text xml:space="preserve" font-family="Futura-Medium" font-size="35.0" fill="#5B5753" transform="matrix(1.00, 0.00, -0.00, -1.00, 909.3, 527.0)">Y</text><text xml:space="preserve" font-family="Futura-Medium" font-size="35.0" fill="#5B5753" transform="matrix(1.00, 0.00, -0.00, -1.00, 933.1, 527.0)"> </text><text xml:space="preserve" font-family="Futura-Medium" font-size="35.0" fill="#5B5753" transform="matrix(1.00, 0.00, -0.00, -1.00, 135.0, 481.0)">U</text><text xml:space="preserve" font-family="Futura-Medium" font-size="35.0" fill="#5B5753" transform="matrix(1.00, 0.00, -0.00, -1.00, 163.6, 481.0)">N</text><text xml:space="preserve" font-family="Futura-Medium" font-size="35.0" fill="#5B5753" transform="matrix(1.00, 0.00, -0.00, -1.00, 196.0, 481.0)">P</text><text xml:space="preserve" font-family="Futura-Medium" font-size="35.0" fill="#5B5753" transform="matrix(1.00, 0.00, -0.00, -1.00, 215.8, 481.0)">A</text><text xml:space="preserve" font-family="Futura-Medium" font-size="35.0" fill="#5B5753" transform="matrix(1.00, 0.00, -0.00, -1.00, 244.5, 481.0)">I</text><text xml:space="preserve" font-family="Futura-Medium" font-size="35.0" fill="#5B5753" transform="matrix(1.00, 0.00, -0.00, -1.00, 257.6, 481.0)">D</text><text xml:space="preserve" font-family="Futura-Medium" font-size="35.0" fill="#5B5753" transform="matrix(1.00, 0.00, -0.00, -1.00, 285.8, 481.0)">,</text><text xml:space="preserve" font-family="Futura-Medium" font-size="35.0" fill="#5B5753" transform="matrix(1.00, 0.00, -0.00, -1.00, 299.4, 481.0)">T</text><text xml:space="preserve" font-family="Futura-Medium" font-size="35.0" fill="#5B5753" transform="matrix(1.00, 0.00, -0.00, -1.00, 319.1, 481.0)">H</text><text xml:space="preserve" font-family="Futura-Medium" font-size="35.0" fill="#5B5753" transform="matrix(1.00, 0.00, -0.00, -1.00, 347.6, 481.0)">E</text><text xml:space="preserve" font-family="Futura-Medium" font-size="35.0" fill="#5B5753" transform="matrix(1.00, 0.00, -0.00, -1.00, 370.2, 481.0)">Y</text><text xml:space="preserve" font-family="Futura-Medium" font-size="35.0" fill="#5B5753" transform="matrix(1.00, 0.00, -0.00, -1.00, 394.0, 481.0)"> </text><text xml:space="preserve" font-family="Futura-Medium" font-size="35.0" fill="#5B5753" transform="matrix(1.00, 0.00, -0.00, -1.00, 407.6, 481.0)">R</text><text xml:space="preserve" font-family="Futura-Medium" font-size="35.0" fill="#5B5753" transform="matrix(1.00, 0.00, -0.00, -1.00, 431.5, 481.0)">A</text><text xml:space="preserve" font-family="Futura-Medium" font-size="35.0" fill="#5B5753" transform="matrix(1.00, 0.00, -0.00, -1.00, 460.2, 481.0)">R</text><text xml:space="preserve" font-family="Futura-Medium" font-size="35.0" fill="#5B5753" transform="matrix(1.00, 0.00, -0.00, -1.00, 484.1, 481.0)">E</text><text xml:space="preserve" font-family="Futura-Medium" font-size="35.0" fill="#5B5753" transform="matrix(1.00, 0.00, -0.00, -1.00, 506.7, 481.0)">L</text><text xml:space="preserve" font-family="Futura-Medium" font-size="35.0" fill="#5B5753" transform="matrix(1.00, 0.00, -0.00, -1.00, 522.8, 481.0)">Y</text><text xml:space="preserve" font-family="Futura-Medium" font-size="35.0" fill="#5B5753" transform="matrix(1.00, 0.00, -0.00, -1.00, 546.6, 481.0)"> </text><text xml:space="preserve" font-family="Futura-Medium" font-size="35.0" fill="#5B5753" transform="matrix(1.00, 0.00, -0.00, -1.00, 560.2, 481.0)">W</text><text xml:space="preserve" font-family="Futura-Medium" font-size="35.0" fill="#5B5753" transform="matrix(1.00, 0.00, -0.00, -1.00, 598.9, 481.0)">O</text><text xml:space="preserve" font-family="Futura-Medium" font-size="35.0" fill="#5B5753" transform="matrix(1.00, 0.00, -0.00, -1.00, 633.0, 481.0)">R</text><text xml:space="preserve" font-family="Futura-Medium" font-size="35.0" fill="#5B5753" transform="matrix(1.00, 0.00, -0.00, -1.00, 656.8, 481.0)">K</text><text xml:space="preserve" font-family="Futura-Medium" font-size="35.0" fill="#5B5753" transform="matrix(1.00, 0.00, -0.00, -1.00, 682.8, 481.0)"> </text><text xml:space="preserve" font-family="Futura-Medium" font-size="35.0" fill="#5B5753" transform="matrix(1.00, 0.00, -0.00, -1.00, 696.4, 481.0)">F</text><text xml:space="preserve" font-family="Futura-Medium" font-size="35.0" fill="#5B5753" transform="matrix(1.00, 0.00, -0.00, -1.00, 717.1, 481.0)">O</text><text xml:space="preserve" font-family="Futura-Medium" font-size="35.0" fill="#5B5753" transform="matrix(1.00, 0.00, -0.00, -1.00, 751.1, 481.0)">R</text><text xml:space="preserve" font-family="Futura-Medium" font-size="35.0" fill="#5B5753" transform="matrix(1.00, 0.00, -0.00, -1.00, 775.0, 481.0)"> </text><text xml:space="preserve" font-family="Futura-Medium" font-size="35.0" fill="#5B5753" transform="matrix(1.00, 0.00, -0.00, -1.00, 788.6, 481.0)">F</text><text xml:space="preserve" font-family="Futura-Medium" font-size="35.0" fill="#5B5753" transform="matrix(1.00, 0.00, -0.00, -1.00, 809.2, 481.0)">R</text><text xml:space="preserve" font-family="Futura-Medium" font-size="35.0" fill="#5B5753" transform="matrix(1.00, 0.00, -0.00, -1.00, 833.1, 481.0)">E</text><text xml:space="preserve" font-family="Futura-Medium" font-size="35.0" fill="#5B5753" transform="matrix(1.00, 0.00, -0.00, -1.00, 855.7, 481.0)">E</text><text xml:space="preserve" font-family="Futura-Medium" font-size="35.0" fill="#5B5753" transform="matrix(1.00, 0.00, -0.00, -1.00, 878.3, 481.0)">.</text><text xml:space="preserve" font-family="Futura-Medium" font-size="35.0" fill="#5B5753" transform="matrix(1.00, 0.00, -0.00, -1.00, 891.8, 481.0)"> </text><text xml:space="preserve" font-family="Futura-Medium" font-size="35.0" fill="#5B5753" transform="matrix(1.00, 0.00, -0.00, -1.00, 905.4, 481.0)"> </text><text xml:space="preserve" font-family="Futura-Medium" font-size="35.0" fill="#5B5753" transform="matrix(1.00, 0.00, -0.00, -1.00, 225.0, 389.0)"> </text><text xml:space="preserve" font-family="Futura-Medium" font-size="35.0" fill="#5B5753" transform="matrix(1.00, 0.00, -0.00, -1.00, 238.6, 389.0)">I</text><text xml:space="preserve" font-family="Futura-Medium" font-size="35.0" fill="#5B5753" transform="matrix(1.00, 0.00, -0.00, -1.00, 251.7, 389.0)">N</text><text xml:space="preserve" font-family="Futura-Medium" font-size="35.0" fill="#5B5753" transform="matrix(1.00, 0.00, -0.00, -1.00, 284.1, 389.0)">S</text><text xml:space="preserve" font-family="Futura-Medium" font-size="35.0" fill="#5B5753" transform="matrix(1.00, 0.00, -0.00, -1.00, 307.8, 389.0)">T</text><text xml:space="preserve" font-family="Futura-Medium" font-size="35.0" fill="#5B5753" transform="matrix(1.00, 0.00, -0.00, -1.00, 327.5, 389.0)">E</text><text xml:space="preserve" font-family="Futura-Medium" font-size="35.0" fill="#5B5753" transform="matrix(1.00, 0.00, -0.00, -1.00, 350.1, 389.0)">A</text><text xml:space="preserve" font-family="Futura-Medium" font-size="35.0" fill="#5B5753" transform="matrix(1.00, 0.00, -0.00, -1.00, 378.8, 389.0)">D</text><text xml:space="preserve" font-family="Futura-Medium" font-size="35.0" fill="#5B5753" transform="matrix(1.00, 0.00, -0.00, -1.00, 407.0, 389.0)">,</text><text xml:space="preserve" font-family="Futura-Medium" font-size="35.0" fill="#5B5753" transform="matrix(1.00, 0.00, -0.00, -1.00, 420.6, 389.0)"> </text><text xml:space="preserve" font-family="Futura-Medium" font-size="35.0" fill="#5B5753" transform="matrix(1.00, 0.00, -0.00, -1.00, 434.2, 389.0)">P</text><text xml:space="preserve" font-family="Futura-Medium" font-size="35.0" fill="#5B5753" transform="matrix(1.00, 0.00, -0.00, -1.00, 455.9, 389.0)">O</text><text xml:space="preserve" font-family="Futura-Medium" font-size="35.0" fill="#5B5753" transform="matrix(1.00, 0.00, -0.00, -1.00, 488.8, 389.0)">W</text><text xml:space="preserve" font-family="Futura-Medium" font-size="35.0" fill="#5B5753" transform="matrix(1.00, 0.00, -0.00, -1.00, 528.7, 389.0)">E</text><text xml:space="preserve" font-family="Futura-Medium" font-size="35.0" fill="#5B5753" transform="matrix(1.00, 0.00, -0.00, -1.00, 551.4, 389.0)">R</text><text xml:space="preserve" font-family="Futura-Medium" font-size="35.0" fill="#5B5753" transform="matrix(1.00, 0.00, -0.00, -1.00, 575.3, 389.0)">F</text><text xml:space="preserve" font-family="Futura-Medium" font-size="35.0" fill="#5B5753" transform="matrix(1.00, 0.00, -0.00, -1.00, 595.9, 389.0)">U</text><text xml:space="preserve" font-family="Futura-Medium" font-size="35.0" fill="#5B5753" transform="matrix(1.00, 0.00, -0.00, -1.00, 624.5, 389.0)">L</text><text xml:space="preserve" font-family="Futura-Medium" font-size="35.0" fill="#5B5753" transform="matrix(1.00, 0.00, -0.00, -1.00, 642.8, 389.0)"> </text><text xml:space="preserve" font-family="Futura-Medium" font-size="35.0" fill="#5B5753" transform="matrix(1.00, 0.00, -0.00, -1.00, 656.4, 389.0)">S</text><text xml:space="preserve" font-family="Futura-Medium" font-size="35.0" fill="#5B5753" transform="matrix(1.00, 0.00, -0.00, -1.00, 679.6, 389.0)">O</text><text xml:space="preserve" font-family="Futura-Medium" font-size="35.0" fill="#5B5753" transform="matrix(1.00, 0.00, -0.00, -1.00, 713.7, 389.0)">C</text><text xml:space="preserve" font-family="Futura-Medium" font-size="35.0" fill="#5B5753" transform="matrix(1.00, 0.00, -0.00, -1.00, 741.0, 389.0)">I</text><text xml:space="preserve" font-family="Futura-Medium" font-size="35.0" fill="#5B5753" transform="matrix(1.00, 0.00, -0.00, -1.00, 754.1, 389.0)">A</text><text xml:space="preserve" font-family="Futura-Medium" font-size="35.0" fill="#5B5753" transform="matrix(1.00, 0.00, -0.00, -1.00, 782.8, 389.0)">L</text><text xml:space="preserve" font-family="Futura-Medium" font-size="35.0" fill="#5B5753" transform="matrix(1.00, 0.00, -0.00, -1.00, 801.2, 389.0)"> </text><text xml:space="preserve" font-family="Futura-Medium" font-size="35.0" fill="#5B5753" transform="matrix(1.00, 0.00, -0.00, -1.00, 83.0, 343.0)">P</text><text xml:space="preserve" font-family="Futura-Medium" font-size="35.0" fill="#5B5753" transform="matrix(1.00, 0.00, -0.00, -1.00, 104.7, 343.0)">S</text><text xml:space="preserve" font-family="Futura-Medium" font-size="35.0" fill="#5B5753" transform="matrix(1.00, 0.00, -0.00, -1.00, 127.7, 343.0)">Y</text><text xml:space="preserve" font-family="Futura-Medium" font-size="35.0" fill="#5B5753" transform="matrix(1.00, 0.00, -0.00, -1.00, 150.1, 343.0)">C</text><text xml:space="preserve" font-family="Futura-Medium" font-size="35.0" fill="#5B5753" transform="matrix(1.00, 0.00, -0.00, -1.00, 178.1, 343.0)">H</text><text xml:space="preserve" font-family="Futura-Medium" font-size="35.0" fill="#5B5753" transform="matrix(1.00, 0.00, -0.00, -1.00, 206.6, 343.0)">O</text><text xml:space="preserve" font-family="Futura-Medium" font-size="35.0" fill="#5B5753" transform="matrix(1.00, 0.00, -0.00, -1.00, 240.7, 343.0)">L</text><text xml:space="preserve" font-family="Futura-Medium" font-size="35.0" fill="#5B5753" transform="matrix(1.00, 0.00, -0.00, -1.00, 257.9, 343.0)">O</text><text xml:space="preserve" font-family="Futura-Medium" font-size="35.0" fill="#5B5753" transform="matrix(1.00, 0.00, -0.00, -1.00, 292.0, 343.0)">G</text><text xml:space="preserve" font-family="Futura-Medium" font-size="35.0" fill="#5B5753" transform="matrix(1.00, 0.00, -0.00, -1.00, 324.3, 343.0)">I</text><text xml:space="preserve" font-family="Futura-Medium" font-size="35.0" fill="#5B5753" transform="matrix(1.00, 0.00, -0.00, -1.00, 337.4, 343.0)">C</text><text xml:space="preserve" font-family="Futura-Medium" font-size="35.0" fill="#5B5753" transform="matrix(1.00, 0.00, -0.00, -1.00, 365.4, 343.0)">A</text><text xml:space="preserve" font-family="Futura-Medium" font-size="35.0" fill="#5B5753" transform="matrix(1.00, 0.00, -0.00, -1.00, 394.1, 343.0)">L</text><text xml:space="preserve" font-family="Futura-Medium" font-size="35.0" fill="#5B5753" transform="matrix(1.00, 0.00, -0.00, -1.00, 412.4, 343.0)"> </text><text xml:space="preserve" font-family="Futura-Medium" font-size="35.0" fill="#5B5753" transform="matrix(1.00, 0.00, -0.00, -1.00, 426.0, 343.0)">P</text><text xml:space="preserve" font-family="Futura-Medium" font-size="35.0" fill="#5B5753" transform="matrix(1.00, 0.00, -0.00, -1.00, 447.7, 343.0)">R</text><text xml:space="preserve" font-family="Futura-Medium" font-size="35.0" fill="#5B5753" transform="matrix(1.00, 0.00, -0.00, -1.00, 471.0, 343.0)">O</text><text xml:space="preserve" font-family="Futura-Medium" font-size="35.0" fill="#5B5753" transform="matrix(1.00, 0.00, -0.00, -1.00, 505.1, 343.0)">C</text><text xml:space="preserve" font-family="Futura-Medium" font-size="35.0" fill="#5B5753" transform="matrix(1.00, 0.00, -0.00, -1.00, 532.4, 343.0)">E</text><text xml:space="preserve" font-family="Futura-Medium" font-size="35.0" fill="#5B5753" transform="matrix(1.00, 0.00, -0.00, -1.00, 555.0, 343.0)">S</text><text xml:space="preserve" font-family="Futura-Medium" font-size="35.0" fill="#5B5753" transform="matrix(1.00, 0.00, -0.00, -1.00, 578.2, 343.0)">S</text><text xml:space="preserve" font-family="Futura-Medium" font-size="35.0" fill="#5B5753" transform="matrix(1.00, 0.00, -0.00, -1.00, 601.4, 343.0)">E</text><text xml:space="preserve" font-family="Futura-Medium" font-size="35.0" fill="#5B5753" transform="matrix(1.00, 0.00, -0.00, -1.00, 624.0, 343.0)">S</text><text xml:space="preserve" font-family="Futura-Medium" font-size="35.0" fill="#5B5753" transform="matrix(1.00, 0.00, -0.00, -1.00, 647.2, 343.0)"> </text><text xml:space="preserve" font-family="Futura-Medium" font-size="35.0" fill="#5B5753" transform="matrix(1.00, 0.00, -0.00, -1.00, 660.8, 343.0)">S</text><text xml:space="preserve" font-family="Futura-Medium" font-size="35.0" fill="#5B5753" transform="matrix(1.00, 0.00, -0.00, -1.00, 684.0, 343.0)">U</text><text xml:space="preserve" font-family="Futura-Medium" font-size="35.0" fill="#5B5753" transform="matrix(1.00, 0.00, -0.00, -1.00, 712.6, 343.0)">C</text><text xml:space="preserve" font-family="Futura-Medium" font-size="35.0" fill="#5B5753" transform="matrix(1.00, 0.00, -0.00, -1.00, 740.7, 343.0)">H</text><text xml:space="preserve" font-family="Futura-Medium" font-size="35.0" fill="#5B5753" transform="matrix(1.00, 0.00, -0.00, -1.00, 769.2, 343.0)"> </text><text xml:space="preserve" font-family="Futura-Medium" font-size="35.0" fill="#5B5753" transform="matrix(1.00, 0.00, -0.00, -1.00, 782.8, 343.0)">A</text><text xml:space="preserve" font-family="Futura-Medium" font-size="35.0" fill="#5B5753" transform="matrix(1.00, 0.00, -0.00, -1.00, 811.5, 343.0)">S</text><text xml:space="preserve" font-family="Futura-Medium" font-size="35.0" fill="#5B5753" transform="matrix(1.00, 0.00, -0.00, -1.00, 834.7, 343.0)"> </text><text xml:space="preserve" font-family="Futura-Medium" font-size="35.0" fill="#5B5753" transform="matrix(1.00, 0.00, -0.00, -1.00, 848.3, 343.0)">S</text><text xml:space="preserve" font-family="Futura-Medium" font-size="35.0" fill="#5B5753" transform="matrix(1.00, 0.00, -0.00, -1.00, 871.5, 343.0)">E</text><text xml:space="preserve" font-family="Futura-Medium" font-size="35.0" fill="#5B5753" transform="matrix(1.00, 0.00, -0.00, -1.00, 894.1, 343.0)">L</text><text xml:space="preserve" font-family="Futura-Medium" font-size="35.0" fill="#5B5753" transform="matrix(1.00, 0.00, -0.00, -1.00, 912.4, 343.0)">F</text><text xml:space="preserve" font-family="Futura-Medium" font-size="35.0" fill="#5B5753" transform="matrix(1.00, 0.00, -0.00, -1.00, 934.0, 343.0)">-</text><text xml:space="preserve" font-family="Futura-Medium" font-size="35.0" fill="#5B5753" transform="matrix(1.00, 0.00, -0.00, -1.00, 115.0, 297.0)">E</text><text xml:space="preserve" font-family="Futura-Medium" font-size="35.0" fill="#5B5753" transform="matrix(1.00, 0.00, -0.00, -1.00, 137.6, 297.0)">F</text><text xml:space="preserve" font-family="Futura-Medium" font-size="35.0" fill="#5B5753" transform="matrix(1.00, 0.00, -0.00, -1.00, 158.2, 297.0)">F</text><text xml:space="preserve" font-family="Futura-Medium" font-size="35.0" fill="#5B5753" transform="matrix(1.00, 0.00, -0.00, -1.00, 178.8, 297.0)">I</text><text xml:space="preserve" font-family="Futura-Medium" font-size="35.0" fill="#5B5753" transform="matrix(1.00, 0.00, -0.00, -1.00, 191.9, 297.0)">C</text><text xml:space="preserve" font-family="Futura-Medium" font-size="35.0" fill="#5B5753" transform="matrix(1.00, 0.00, -0.00, -1.00, 219.8, 297.0)">A</text><text xml:space="preserve" font-family="Futura-Medium" font-size="35.0" fill="#5B5753" transform="matrix(1.00, 0.00, -0.00, -1.00, 247.3, 297.0)">C</text><text xml:space="preserve" font-family="Futura-Medium" font-size="35.0" fill="#5B5753" transform="matrix(1.00, 0.00, -0.00, -1.00, 274.6, 297.0)">Y</text><text xml:space="preserve" font-family="Futura-Medium" font-size="35.0" fill="#5B5753" transform="matrix(1.00, 0.00, -0.00, -1.00, 296.8, 297.0)">,</text><text xml:space="preserve" font-family="Futura-Medium" font-size="35.0" fill="#5B5753" transform="matrix(1.00, 0.00, -0.00, -1.00, 310.4, 297.0)"> </text><text xml:space="preserve" font-family="Futura-Medium" font-size="35.0" fill="#5B5753" transform="matrix(1.00, 0.00, -0.00, -1.00, 324.0, 297.0)">G</text><text xml:space="preserve" font-family="Futura-Medium" font-size="35.0" fill="#5B5753" transform="matrix(1.00, 0.00, -0.00, -1.00, 356.3, 297.0)">R</text><text xml:space="preserve" font-family="Futura-Medium" font-size="35.0" fill="#5B5753" transform="matrix(1.00, 0.00, -0.00, -1.00, 379.6, 297.0)">O</text><text xml:space="preserve" font-family="Futura-Medium" font-size="35.0" fill="#5B5753" transform="matrix(1.00, 0.00, -0.00, -1.00, 413.6, 297.0)">U</text><text xml:space="preserve" font-family="Futura-Medium" font-size="35.0" fill="#5B5753" transform="matrix(1.00, 0.00, -0.00, -1.00, 442.3, 297.0)">P</text><text xml:space="preserve" font-family="Futura-Medium" font-size="35.0" fill="#5B5753" transform="matrix(1.00, 0.00, -0.00, -1.00, 464.0, 297.0)"> </text><text xml:space="preserve" font-family="Futura-Medium" font-size="35.0" fill="#5B5753" transform="matrix(1.00, 0.00, -0.00, -1.00, 477.6, 297.0)">I</text><text xml:space="preserve" font-family="Futura-Medium" font-size="35.0" fill="#5B5753" transform="matrix(1.00, 0.00, -0.00, -1.00, 490.7, 297.0)">D</text><text xml:space="preserve" font-family="Futura-Medium" font-size="35.0" fill="#5B5753" transform="matrix(1.00, 0.00, -0.00, -1.00, 518.9, 297.0)">E</text><text xml:space="preserve" font-family="Futura-Medium" font-size="35.0" fill="#5B5753" transform="matrix(1.00, 0.00, -0.00, -1.00, 541.5, 297.0)">N</text><text xml:space="preserve" font-family="Futura-Medium" font-size="35.0" fill="#5B5753" transform="matrix(1.00, 0.00, -0.00, -1.00, 573.9, 297.0)">T</text><text xml:space="preserve" font-family="Futura-Medium" font-size="35.0" fill="#5B5753" transform="matrix(1.00, 0.00, -0.00, -1.00, 593.6, 297.0)">I</text><text xml:space="preserve" font-family="Futura-Medium" font-size="35.0" fill="#5B5753" transform="matrix(1.00, 0.00, -0.00, -1.00, 606.7, 297.0)">F</text><text xml:space="preserve" font-family="Futura-Medium" font-size="35.0" fill="#5B5753" transform="matrix(1.00, 0.00, -0.00, -1.00, 627.3, 297.0)">I</text><text xml:space="preserve" font-family="Futura-Medium" font-size="35.0" fill="#5B5753" transform="matrix(1.00, 0.00, -0.00, -1.00, 640.4, 297.0)">C</text><text xml:space="preserve" font-family="Futura-Medium" font-size="35.0" fill="#5B5753" transform="matrix(1.00, 0.00, -0.00, -1.00, 668.3, 297.0)">A</text><text xml:space="preserve" font-family="Futura-Medium" font-size="35.0" fill="#5B5753" transform="matrix(1.00, 0.00, -0.00, -1.00, 695.5, 297.0)">T</text><text xml:space="preserve" font-family="Futura-Medium" font-size="35.0" fill="#5B5753" transform="matrix(1.00, 0.00, -0.00, -1.00, 715.2, 297.0)">I</text><text xml:space="preserve" font-family="Futura-Medium" font-size="35.0" fill="#5B5753" transform="matrix(1.00, 0.00, -0.00, -1.00, 728.3, 297.0)">O</text><text xml:space="preserve" font-family="Futura-Medium" font-size="35.0" fill="#5B5753" transform="matrix(1.00, 0.00, -0.00, -1.00, 762.4, 297.0)">N</text><text xml:space="preserve" font-family="Futura-Medium" font-size="35.0" fill="#5B5753" transform="matrix(1.00, 0.00, -0.00, -1.00, 795.9, 297.0)">,</text><text xml:space="preserve" font-family="Futura-Medium" font-size="35.0" fill="#5B5753" transform="matrix(1.00, 0.00, -0.00, -1.00, 809.5, 297.0)"> </text><text xml:space="preserve" font-family="Futura-Medium" font-size="35.0" fill="#5B5753" transform="matrix(1.00, 0.00, -0.00, -1.00, 823.1, 297.0)">A</text><text xml:space="preserve" font-family="Futura-Medium" font-size="35.0" fill="#5B5753" transform="matrix(1.00, 0.00, -0.00, -1.00, 851.8, 297.0)">N</text><text xml:space="preserve" font-family="Futura-Medium" font-size="35.0" fill="#5B5753" transform="matrix(1.00, 0.00, -0.00, -1.00, 884.1, 297.0)">D</text><text xml:space="preserve" font-family="Futura-Medium" font-size="35.0" fill="#5B5753" transform="matrix(1.00, 0.00, -0.00, -1.00, 912.4, 297.0)"> </text><text xml:space="preserve" font-family="Futura-Medium" font-size="35.0" fill="#5B5753" transform="matrix(1.00, 0.00, -0.00, -1.00, 136.0, 251.0)">S</text><text xml:space="preserve" font-family="Futura-Medium" font-size="35.0" fill="#5B5753" transform="matrix(1.00, 0.00, -0.00, -1.00, 159.2, 251.0)">O</text><text xml:space="preserve" font-family="Futura-Medium" font-size="35.0" fill="#5B5753" transform="matrix(1.00, 0.00, -0.00, -1.00, 193.3, 251.0)">C</text><text xml:space="preserve" font-family="Futura-Medium" font-size="35.0" fill="#5B5753" transform="matrix(1.00, 0.00, -0.00, -1.00, 220.6, 251.0)">I</text><text xml:space="preserve" font-family="Futura-Medium" font-size="35.0" fill="#5B5753" transform="matrix(1.00, 0.00, -0.00, -1.00, 233.7, 251.0)">A</text><text xml:space="preserve" font-family="Futura-Medium" font-size="35.0" fill="#5B5753" transform="matrix(1.00, 0.00, -0.00, -1.00, 262.5, 251.0)">L</text><text xml:space="preserve" font-family="Futura-Medium" font-size="35.0" fill="#5B5753" transform="matrix(1.00, 0.00, -0.00, -1.00, 280.8, 251.0)"> </text><text xml:space="preserve" font-family="Futura-Medium" font-size="35.0" fill="#5B5753" transform="matrix(1.00, 0.00, -0.00, -1.00, 294.4, 251.0)">A</text><text xml:space="preserve" font-family="Futura-Medium" font-size="35.0" fill="#5B5753" transform="matrix(1.00, 0.00, -0.00, -1.00, 323.1, 251.0)">P</text><text xml:space="preserve" font-family="Futura-Medium" font-size="35.0" fill="#5B5753" transform="matrix(1.00, 0.00, -0.00, -1.00, 344.8, 251.0)">P</text><text xml:space="preserve" font-family="Futura-Medium" font-size="35.0" fill="#5B5753" transform="matrix(1.00, 0.00, -0.00, -1.00, 366.5, 251.0)">R</text><text xml:space="preserve" font-family="Futura-Medium" font-size="35.0" fill="#5B5753" transform="matrix(1.00, 0.00, -0.00, -1.00, 389.8, 251.0)">O</text><text xml:space="preserve" font-family="Futura-Medium" font-size="35.0" fill="#5B5753" transform="matrix(1.00, 0.00, -0.00, -1.00, 422.7, 251.0)">V</text><text xml:space="preserve" font-family="Futura-Medium" font-size="35.0" fill="#5B5753" transform="matrix(1.00, 0.00, -0.00, -1.00, 446.9, 251.0)">A</text><text xml:space="preserve" font-family="Futura-Medium" font-size="35.0" fill="#5B5753" transform="matrix(1.00, 0.00, -0.00, -1.00, 475.6, 251.0)">L</text><text xml:space="preserve" font-family="Futura-Medium" font-size="35.0" fill="#5B5753" transform="matrix(1.00, 0.00, -0.00, -1.00, 494.0, 251.0)"> </text><text xml:space="preserve" font-family="Futura-Medium" font-size="35.0" fill="#5B5753" transform="matrix(1.00, 0.00, -0.00, -1.00, 507.6, 251.0)">P</text><text xml:space="preserve" font-family="Futura-Medium" font-size="35.0" fill="#5B5753" transform="matrix(1.00, 0.00, -0.00, -1.00, 529.3, 251.0)">R</text><text xml:space="preserve" font-family="Futura-Medium" font-size="35.0" fill="#5B5753" transform="matrix(1.00, 0.00, -0.00, -1.00, 552.6, 251.0)">O</text><text xml:space="preserve" font-family="Futura-Medium" font-size="35.0" fill="#5B5753" transform="matrix(1.00, 0.00, -0.00, -1.00, 585.5, 251.0)">V</text><text xml:space="preserve" font-family="Futura-Medium" font-size="35.0" fill="#5B5753" transform="matrix(1.00, 0.00, -0.00, -1.00, 611.9, 251.0)">I</text><text xml:space="preserve" font-family="Futura-Medium" font-size="35.0" fill="#5B5753" transform="matrix(1.00, 0.00, -0.00, -1.00, 625.0, 251.0)">D</text><text xml:space="preserve" font-family="Futura-Medium" font-size="35.0" fill="#5B5753" transform="matrix(1.00, 0.00, -0.00, -1.00, 653.3, 251.0)">E</text><text xml:space="preserve" font-family="Futura-Medium" font-size="35.0" fill="#5B5753" transform="matrix(1.00, 0.00, -0.00, -1.00, 675.8, 251.0)"> </text><text xml:space="preserve" font-family="Futura-Medium" font-size="35.0" fill="#5B5753" transform="matrix(1.00, 0.00, -0.00, -1.00, 689.4, 251.0)">R</text><text xml:space="preserve" font-family="Futura-Medium" font-size="35.0" fill="#5B5753" transform="matrix(1.00, 0.00, -0.00, -1.00, 713.3, 251.0)">E</text><text xml:space="preserve" font-family="Futura-Medium" font-size="35.0" fill="#5B5753" transform="matrix(1.00, 0.00, -0.00, -1.00, 735.9, 251.0)">W</text><text xml:space="preserve" font-family="Futura-Medium" font-size="35.0" fill="#5B5753" transform="matrix(1.00, 0.00, -0.00, -1.00, 773.6, 251.0)">A</text><text xml:space="preserve" font-family="Futura-Medium" font-size="35.0" fill="#5B5753" transform="matrix(1.00, 0.00, -0.00, -1.00, 802.3, 251.0)">R</text><text xml:space="preserve" font-family="Futura-Medium" font-size="35.0" fill="#5B5753" transform="matrix(1.00, 0.00, -0.00, -1.00, 826.2, 251.0)">D</text><text xml:space="preserve" font-family="Futura-Medium" font-size="35.0" fill="#5B5753" transform="matrix(1.00, 0.00, -0.00, -1.00, 854.4, 251.0)">S</text><text xml:space="preserve" font-family="Futura-Medium" font-size="35.0" fill="#5B5753" transform="matrix(1.00, 0.00, -0.00, -1.00, 877.6, 251.0)">.</text><text xml:space="preserve" font-family="Baskerville-SemiBold" font-weight="bold" font-size="90.0" fill="#5B5753" transform="matrix(1.00, 0.00, -0.00, -1.00, 486.0, 101.0)">”</text><text xml:space="preserve" font-family="Baskerville-SemiBold" font-weight="bold" font-size="90.0" fill="#5B5753" transform="matrix(1.00, 0.00, -0.00, -1.00, 486.0, 550.0)">“</text></g></svg>