<?xml version="1.0" encoding="UTF-8" standalone="no"?><svg xmlns="http://www.w3.org/2000/svg" xmlns:xlink="http://www.w3.org/1999/xlink" clip-rule="evenodd" stroke-miterlimit="4.00" viewBox="0 0 1024 768"><desc>SVG generated by Keynote</desc><defs></defs><g transform="matrix(1.00, 0.00, -0.00, -1.00, 0.0, 768.0)"><g><clipPath id="clip-33"><path d="M 0.0 768.0 L 1024.0 768.0 L 1024.0 0.0 L 0.0 0.0 Z M 0.0 768.0 "></path></clipPath><g clip-path="url(#clip-33)"><image xlink:href="../../AF96F424-7C09-4F78-963E-46EE187EF601/assets/D52BF74205EDDA1E3AD886EF31563845.jpeg" width="1024.00" height="768.00" transform="matrix(1.00, 0.00, -0.00, -1.00, 0.0, 768.0)"></image></g></g><text xml:space="preserve" font-family="Futura-Medium" font-size="39.6" fill="#5B5753" transform="matrix(1.00, 0.00, -0.00, -1.00, 282.0, 677.0)">S</text><text xml:space="preserve" font-family="Futura-Medium" font-size="39.6" fill="#5B5753" transform="matrix(1.00, 0.00, -0.00, -1.00, 305.9, 677.0)">O</text><text xml:space="preserve" font-family="Futura-Medium" font-size="39.6" fill="#5B5753" transform="matrix(1.00, 0.00, -0.00, -1.00, 342.1, 677.0)"> </text><text xml:space="preserve" font-family="Futura-Medium" font-size="39.6" fill="#5B5753" transform="matrix(1.00, 0.00, -0.00, -1.00, 355.1, 677.0)">L</text><text xml:space="preserve" font-family="Futura-Medium" font-size="39.6" fill="#5B5753" transform="matrix(1.00, 0.00, -0.00, -1.00, 373.4, 677.0)">E</text><text xml:space="preserve" font-family="Futura-Medium" font-size="39.6" fill="#5B5753" transform="matrix(1.00, 0.00, -0.00, -1.00, 396.6, 677.0)">T</text><text xml:space="preserve" font-family="Futura-Medium" font-size="39.6" fill="#5B5753" transform="matrix(1.00, 0.00, -0.00, -1.00, 416.5, 677.0)">’</text><text xml:space="preserve" font-family="Futura-Medium" font-size="39.6" fill="#5B5753" transform="matrix(1.00, 0.00, -0.00, -1.00, 430.2, 677.0)">S</text><text xml:space="preserve" font-family="Futura-Medium" font-size="39.6" fill="#5B5753" transform="matrix(1.00, 0.00, -0.00, -1.00, 454.1, 677.0)"> </text><text xml:space="preserve" font-family="Futura-Medium" font-size="39.6" fill="#5B5753" transform="matrix(1.00, 0.00, -0.00, -1.00, 467.1, 677.0)">P</text><text xml:space="preserve" font-family="Futura-Medium" font-size="39.6" fill="#5B5753" transform="matrix(1.00, 0.00, -0.00, -1.00, 489.3, 677.0)">L</text><text xml:space="preserve" font-family="Futura-Medium" font-size="39.6" fill="#5B5753" transform="matrix(1.00, 0.00, -0.00, -1.00, 509.3, 677.0)">A</text><text xml:space="preserve" font-family="Futura-Medium" font-size="39.6" fill="#5B5753" transform="matrix(1.00, 0.00, -0.00, -1.00, 536.8, 677.0)">Y</text><text xml:space="preserve" font-family="Futura-Medium" font-size="39.6" fill="#5B5753" transform="matrix(1.00, 0.00, -0.00, -1.00, 561.4, 677.0)"> </text><text xml:space="preserve" font-family="Futura-Medium" font-size="39.6" fill="#5B5753" transform="matrix(1.00, 0.00, -0.00, -1.00, 574.4, 677.0)">A</text><text xml:space="preserve" font-family="Futura-Medium" font-size="39.6" fill="#5B5753" transform="matrix(1.00, 0.00, -0.00, -1.00, 604.5, 677.0)"> </text><text xml:space="preserve" font-family="Futura-Medium" font-size="39.6" fill="#5B5753" transform="matrix(1.00, 0.00, -0.00, -1.00, 617.5, 677.0)">G</text><text xml:space="preserve" font-family="Futura-Medium" font-size="39.6" fill="#5B5753" transform="matrix(1.00, 0.00, -0.00, -1.00, 650.3, 677.0)">A</text><text xml:space="preserve" font-family="Futura-Medium" font-size="39.6" fill="#5B5753" transform="matrix(1.00, 0.00, -0.00, -1.00, 680.4, 677.0)">M</text><text xml:space="preserve" font-family="Futura-Medium" font-size="39.6" fill="#5B5753" transform="matrix(1.00, 0.00, -0.00, -1.00, 719.3, 677.0)">E</text><g><clipPath id="clip-34"><path d="M 53.0 580.0 L 971.0 580.0 L 971.0 72.0 L 53.0 72.0 Z M 53.0 580.0 "></path></clipPath><g clip-path="url(#clip-34)"><path d="M 53.0 453.0 L 359.0 453.0 L 359.0 326.0 L 53.0 326.0 Z M 53.0 453.0 " fill="#ABCCC3" fill-opacity="0.17"></path><path d="M 359.0 453.0 L 665.0 453.0 L 665.0 326.0 L 359.0 326.0 Z M 359.0 453.0 " fill="#ABCCC3" fill-opacity="0.17"></path><path d="M 665.0 453.0 L 971.0 453.0 L 971.0 326.0 L 665.0 326.0 Z M 665.0 453.0 " fill="#ABCCC3" fill-opacity="0.17"></path><path d="M 53.0 199.0 L 359.0 199.0 L 359.0 72.0 L 53.0 72.0 Z M 53.0 199.0 " fill="#ABCCC3" fill-opacity="0.17"></path><path d="M 359.0 199.0 L 665.0 199.0 L 665.0 72.0 L 359.0 72.0 Z M 359.0 199.0 " fill="#ABCCC3" fill-opacity="0.17"></path><path d="M 665.0 199.0 L 971.0 199.0 L 971.0 72.0 L 665.0 72.0 Z M 665.0 199.0 " fill="#ABCCC3" fill-opacity="0.17"></path></g></g><g><clipPath id="clip-35"><path d="M 53.0 580.0 L 971.0 580.0 L 971.0 72.0 L 53.0 72.0 Z M 53.0 580.0 "></path></clipPath><g clip-path="url(#clip-35)"><g><clipPath id="clip-36"><path d="M 53.0 453.5 L 358.0 453.5 L 358.0 580.0 L 53.0 580.0 Z M 53.0 453.5 "></path></clipPath><g clip-path="url(#clip-36)"><text xml:space="preserve" font-family="AvenirNext-Medium" font-size="22.0" fill="#5B5753" transform="matrix(1.00, 0.00, -0.00, -1.00, 140.0, 510.0)">L</text><text xml:space="preserve" font-family="AvenirNext-Medium" font-size="22.0" fill="#5B5753" transform="matrix(1.00, 0.00, -0.00, -1.00, 150.8, 510.0)">e</text><text xml:space="preserve" font-family="AvenirNext-Medium" font-size="22.0" fill="#5B5753" transform="matrix(1.00, 0.00, -0.00, -1.00, 163.3, 510.0)">a</text><text xml:space="preserve" font-family="AvenirNext-Medium" font-size="22.0" fill="#5B5753" transform="matrix(1.00, 0.00, -0.00, -1.00, 175.2, 510.0)">d</text><text xml:space="preserve" font-family="AvenirNext-Medium" font-size="22.0" fill="#5B5753" transform="matrix(1.00, 0.00, -0.00, -1.00, 189.2, 510.0)">e</text><text xml:space="preserve" font-family="AvenirNext-Medium" font-size="22.0" fill="#5B5753" transform="matrix(1.00, 0.00, -0.00, -1.00, 201.8, 510.0)">r</text><text xml:space="preserve" font-family="AvenirNext-Medium" font-size="22.0" fill="#5B5753" transform="matrix(1.00, 0.00, -0.00, -1.00, 209.8, 510.0)">b</text><text xml:space="preserve" font-family="AvenirNext-Medium" font-size="22.0" fill="#5B5753" transform="matrix(1.00, 0.00, -0.00, -1.00, 223.8, 510.0)">o</text><text xml:space="preserve" font-family="AvenirNext-Medium" font-size="22.0" fill="#5B5753" transform="matrix(1.00, 0.00, -0.00, -1.00, 237.2, 510.0)">a</text><text xml:space="preserve" font-family="AvenirNext-Medium" font-size="22.0" fill="#5B5753" transform="matrix(1.00, 0.00, -0.00, -1.00, 249.1, 510.0)">r</text><text xml:space="preserve" font-family="AvenirNext-Medium" font-size="22.0" fill="#5B5753" transform="matrix(1.00, 0.00, -0.00, -1.00, 256.7, 510.0)">d</text></g></g></g></g><g><clipPath id="clip-37"><path d="M 53.0 580.0 L 971.0 580.0 L 971.0 72.0 L 53.0 72.0 Z M 53.0 580.0 "></path></clipPath><g clip-path="url(#clip-37)"><g><clipPath id="clip-38"><path d="M 360.0 453.5 L 664.0 453.5 L 664.0 580.0 L 360.0 580.0 Z M 360.0 453.5 "></path></clipPath><g clip-path="url(#clip-38)"><text xml:space="preserve" font-family="AvenirNext-Medium" font-size="22.0" fill="#5B5753" transform="matrix(1.00, 0.00, -0.00, -1.00, 481.0, 510.0)">L</text><text xml:space="preserve" font-family="AvenirNext-Medium" font-size="22.0" fill="#5B5753" transform="matrix(1.00, 0.00, -0.00, -1.00, 491.8, 510.0)">e</text><text xml:space="preserve" font-family="AvenirNext-Medium" font-size="22.0" fill="#5B5753" transform="matrix(1.00, 0.00, -0.00, -1.00, 504.5, 510.0)">v</text><text xml:space="preserve" font-family="AvenirNext-Medium" font-size="22.0" fill="#5B5753" transform="matrix(1.00, 0.00, -0.00, -1.00, 515.5, 510.0)">e</text><text xml:space="preserve" font-family="AvenirNext-Medium" font-size="22.0" fill="#5B5753" transform="matrix(1.00, 0.00, -0.00, -1.00, 528.1, 510.0)">l</text><text xml:space="preserve" font-family="AvenirNext-Medium" font-size="22.0" fill="#5B5753" transform="matrix(1.00, 0.00, -0.00, -1.00, 533.9, 510.0)">s</text></g></g></g></g><g><clipPath id="clip-39"><path d="M 53.0 580.0 L 971.0 580.0 L 971.0 72.0 L 53.0 72.0 Z M 53.0 580.0 "></path></clipPath><g clip-path="url(#clip-39)"><g><clipPath id="clip-40"><path d="M 666.0 453.5 L 971.0 453.5 L 971.0 580.0 L 666.0 580.0 Z M 666.0 453.5 "></path></clipPath><g clip-path="url(#clip-40)"><text xml:space="preserve" font-family="AvenirNext-Medium" font-size="22.0" fill="#5B5753" transform="matrix(1.00, 0.00, -0.00, -1.00, 775.0, 510.0)">P</text><text xml:space="preserve" font-family="AvenirNext-Medium" font-size="22.0" fill="#5B5753" transform="matrix(1.00, 0.00, -0.00, -1.00, 787.1, 510.0)">r</text><text xml:space="preserve" font-family="AvenirNext-Medium" font-size="22.0" fill="#5B5753" transform="matrix(1.00, 0.00, -0.00, -1.00, 794.6, 510.0)">o</text><text xml:space="preserve" font-family="AvenirNext-Medium" font-size="22.0" fill="#5B5753" transform="matrix(1.00, 0.00, -0.00, -1.00, 808.1, 510.0)">g</text><text xml:space="preserve" font-family="AvenirNext-Medium" font-size="22.0" fill="#5B5753" transform="matrix(1.00, 0.00, -0.00, -1.00, 822.0, 510.0)">r</text><text xml:space="preserve" font-family="AvenirNext-Medium" font-size="22.0" fill="#5B5753" transform="matrix(1.00, 0.00, -0.00, -1.00, 829.5, 510.0)">e</text><text xml:space="preserve" font-family="AvenirNext-Medium" font-size="22.0" fill="#5B5753" transform="matrix(1.00, 0.00, -0.00, -1.00, 842.1, 510.0)">s</text><text xml:space="preserve" font-family="AvenirNext-Medium" font-size="22.0" fill="#5B5753" transform="matrix(1.00, 0.00, -0.00, -1.00, 851.9, 510.0)">s</text></g></g></g></g><g><clipPath id="clip-41"><path d="M 53.0 580.0 L 971.0 580.0 L 971.0 72.0 L 53.0 72.0 Z M 53.0 580.0 "></path></clipPath><g clip-path="url(#clip-41)"><g><clipPath id="clip-42"><path d="M 53.0 326.5 L 358.0 326.5 L 358.0 452.5 L 53.0 452.5 Z M 53.0 326.5 "></path></clipPath><g clip-path="url(#clip-42)"><text xml:space="preserve" font-family="AvenirNext-Medium" font-size="22.0" fill="#5B5753" transform="matrix(1.00, 0.00, -0.00, -1.00, 175.0, 383.0)">P</text><text xml:space="preserve" font-family="AvenirNext-Medium" font-size="22.0" fill="#5B5753" transform="matrix(1.00, 0.00, -0.00, -1.00, 186.7, 383.0)">o</text><text xml:space="preserve" font-family="AvenirNext-Medium" font-size="22.0" fill="#5B5753" transform="matrix(1.00, 0.00, -0.00, -1.00, 200.1, 383.0)">i</text><text xml:space="preserve" font-family="AvenirNext-Medium" font-size="22.0" fill="#5B5753" transform="matrix(1.00, 0.00, -0.00, -1.00, 205.8, 383.0)">n</text><text xml:space="preserve" font-family="AvenirNext-Medium" font-size="22.0" fill="#5B5753" transform="matrix(1.00, 0.00, -0.00, -1.00, 218.6, 383.0)">t</text><text xml:space="preserve" font-family="AvenirNext-Medium" font-size="22.0" fill="#5B5753" transform="matrix(1.00, 0.00, -0.00, -1.00, 225.8, 383.0)">s</text></g></g></g></g><g><clipPath id="clip-43"><path d="M 53.0 580.0 L 971.0 580.0 L 971.0 72.0 L 53.0 72.0 Z M 53.0 580.0 "></path></clipPath><g clip-path="url(#clip-43)"><g><clipPath id="clip-44"><path d="M 360.0 326.5 L 664.0 326.5 L 664.0 452.5 L 360.0 452.5 Z M 360.0 326.5 "></path></clipPath><g clip-path="url(#clip-44)"><text xml:space="preserve" font-family="AvenirNext-Medium" font-size="22.0" fill="#5B5753" transform="matrix(1.00, 0.00, -0.00, -1.00, 477.0, 383.0)">S</text><text xml:space="preserve" font-family="AvenirNext-Medium" font-size="22.0" fill="#5B5753" transform="matrix(1.00, 0.00, -0.00, -1.00, 489.4, 383.0)">t</text><text xml:space="preserve" font-family="AvenirNext-Medium" font-size="22.0" fill="#5B5753" transform="matrix(1.00, 0.00, -0.00, -1.00, 496.6, 383.0)">o</text><text xml:space="preserve" font-family="AvenirNext-Medium" font-size="22.0" fill="#5B5753" transform="matrix(1.00, 0.00, -0.00, -1.00, 510.0, 383.0)">r</text><text xml:space="preserve" font-family="AvenirNext-Medium" font-size="22.0" fill="#5B5753" transform="matrix(1.00, 0.00, -0.00, -1.00, 518.0, 383.0)">i</text><text xml:space="preserve" font-family="AvenirNext-Medium" font-size="22.0" fill="#5B5753" transform="matrix(1.00, 0.00, -0.00, -1.00, 523.7, 383.0)">e</text><text xml:space="preserve" font-family="AvenirNext-Medium" font-size="22.0" fill="#5B5753" transform="matrix(1.00, 0.00, -0.00, -1.00, 536.3, 383.0)">s</text></g></g></g></g><g><clipPath id="clip-45"><path d="M 53.0 580.0 L 971.0 580.0 L 971.0 72.0 L 53.0 72.0 Z M 53.0 580.0 "></path></clipPath><g clip-path="url(#clip-45)"><g><clipPath id="clip-46"><path d="M 666.0 326.5 L 971.0 326.5 L 971.0 452.5 L 666.0 452.5 Z M 666.0 326.5 "></path></clipPath><g clip-path="url(#clip-46)"><text xml:space="preserve" font-family="AvenirNext-Medium" font-size="22.0" fill="#5B5753" transform="matrix(1.00, 0.00, -0.00, -1.00, 760.0, 383.0)">C</text><text xml:space="preserve" font-family="AvenirNext-Medium" font-size="22.0" fill="#5B5753" transform="matrix(1.00, 0.00, -0.00, -1.00, 775.6, 383.0)">l</text><text xml:space="preserve" font-family="AvenirNext-Medium" font-size="22.0" fill="#5B5753" transform="matrix(1.00, 0.00, -0.00, -1.00, 781.3, 383.0)">e</text><text xml:space="preserve" font-family="AvenirNext-Medium" font-size="22.0" fill="#5B5753" transform="matrix(1.00, 0.00, -0.00, -1.00, 793.8, 383.0)">a</text><text xml:space="preserve" font-family="AvenirNext-Medium" font-size="22.0" fill="#5B5753" transform="matrix(1.00, 0.00, -0.00, -1.00, 805.7, 383.0)">r</text><text xml:space="preserve" font-family="AvenirNext-Medium" font-size="22.0" fill="#5B5753" transform="matrix(1.00, 0.00, -0.00, -1.00, 813.7, 383.0)"> </text><text xml:space="preserve" font-family="AvenirNext-Medium" font-size="22.0" fill="#5B5753" transform="matrix(1.00, 0.00, -0.00, -1.00, 819.2, 383.0)">G</text><text xml:space="preserve" font-family="AvenirNext-Medium" font-size="22.0" fill="#5B5753" transform="matrix(1.00, 0.00, -0.00, -1.00, 836.3, 383.0)">o</text><text xml:space="preserve" font-family="AvenirNext-Medium" font-size="22.0" fill="#5B5753" transform="matrix(1.00, 0.00, -0.00, -1.00, 849.7, 383.0)">a</text><text xml:space="preserve" font-family="AvenirNext-Medium" font-size="22.0" fill="#5B5753" transform="matrix(1.00, 0.00, -0.00, -1.00, 861.6, 383.0)">l</text><text xml:space="preserve" font-family="AvenirNext-Medium" font-size="22.0" fill="#5B5753" transform="matrix(1.00, 0.00, -0.00, -1.00, 867.3, 383.0)">s</text></g></g></g></g><g><clipPath id="clip-47"><path d="M 53.0 580.0 L 971.0 580.0 L 971.0 72.0 L 53.0 72.0 Z M 53.0 580.0 "></path></clipPath><g clip-path="url(#clip-47)"><g><clipPath id="clip-48"><path d="M 53.0 199.5 L 358.0 199.5 L 358.0 325.5 L 53.0 325.5 Z M 53.0 199.5 "></path></clipPath><g clip-path="url(#clip-48)"><text xml:space="preserve" font-family="AvenirNext-Medium" font-size="22.0" fill="#5B5753" transform="matrix(1.00, 0.00, -0.00, -1.00, 134.0, 256.0)">A</text><text xml:space="preserve" font-family="AvenirNext-Medium" font-size="22.0" fill="#5B5753" transform="matrix(1.00, 0.00, -0.00, -1.00, 149.6, 256.0)">c</text><text xml:space="preserve" font-family="AvenirNext-Medium" font-size="22.0" fill="#5B5753" transform="matrix(1.00, 0.00, -0.00, -1.00, 160.5, 256.0)">h</text><text xml:space="preserve" font-family="AvenirNext-Medium" font-size="22.0" fill="#5B5753" transform="matrix(1.00, 0.00, -0.00, -1.00, 173.4, 256.0)">i</text><text xml:space="preserve" font-family="AvenirNext-Medium" font-size="22.0" fill="#5B5753" transform="matrix(1.00, 0.00, -0.00, -1.00, 179.1, 256.0)">e</text><text xml:space="preserve" font-family="AvenirNext-Medium" font-size="22.0" fill="#5B5753" transform="matrix(1.00, 0.00, -0.00, -1.00, 191.7, 256.0)">v</text><text xml:space="preserve" font-family="AvenirNext-Medium" font-size="22.0" fill="#5B5753" transform="matrix(1.00, 0.00, -0.00, -1.00, 202.8, 256.0)">e</text><text xml:space="preserve" font-family="AvenirNext-Medium" font-size="22.0" fill="#5B5753" transform="matrix(1.00, 0.00, -0.00, -1.00, 215.4, 256.0)">m</text><text xml:space="preserve" font-family="AvenirNext-Medium" font-size="22.0" fill="#5B5753" transform="matrix(1.00, 0.00, -0.00, -1.00, 234.9, 256.0)">e</text><text xml:space="preserve" font-family="AvenirNext-Medium" font-size="22.0" fill="#5B5753" transform="matrix(1.00, 0.00, -0.00, -1.00, 247.5, 256.0)">n</text><text xml:space="preserve" font-family="AvenirNext-Medium" font-size="22.0" fill="#5B5753" transform="matrix(1.00, 0.00, -0.00, -1.00, 260.3, 256.0)">t</text><text xml:space="preserve" font-family="AvenirNext-Medium" font-size="22.0" fill="#5B5753" transform="matrix(1.00, 0.00, -0.00, -1.00, 267.5, 256.0)">s</text></g></g></g></g><g><clipPath id="clip-49"><path d="M 53.0 580.0 L 971.0 580.0 L 971.0 72.0 L 53.0 72.0 Z M 53.0 580.0 "></path></clipPath><g clip-path="url(#clip-49)"><g><clipPath id="clip-50"><path d="M 360.0 199.5 L 664.0 199.5 L 664.0 325.5 L 360.0 325.5 Z M 360.0 199.5 "></path></clipPath><g clip-path="url(#clip-50)"><text xml:space="preserve" font-family="AvenirNext-Medium" font-size="22.0" fill="#5B5753" transform="matrix(1.00, 0.00, -0.00, -1.00, 462.0, 256.0)">F</text><text xml:space="preserve" font-family="AvenirNext-Medium" font-size="22.0" fill="#5B5753" transform="matrix(1.00, 0.00, -0.00, -1.00, 473.4, 256.0)">e</text><text xml:space="preserve" font-family="AvenirNext-Medium" font-size="22.0" fill="#5B5753" transform="matrix(1.00, 0.00, -0.00, -1.00, 486.0, 256.0)">e</text><text xml:space="preserve" font-family="AvenirNext-Medium" font-size="22.0" fill="#5B5753" transform="matrix(1.00, 0.00, -0.00, -1.00, 498.7, 256.0)">d</text><text xml:space="preserve" font-family="AvenirNext-Medium" font-size="22.0" fill="#5B5753" transform="matrix(1.00, 0.00, -0.00, -1.00, 512.6, 256.0)">b</text><text xml:space="preserve" font-family="AvenirNext-Medium" font-size="22.0" fill="#5B5753" transform="matrix(1.00, 0.00, -0.00, -1.00, 526.6, 256.0)">a</text><text xml:space="preserve" font-family="AvenirNext-Medium" font-size="22.0" fill="#5B5753" transform="matrix(1.00, 0.00, -0.00, -1.00, 538.5, 256.0)">c</text><text xml:space="preserve" font-family="AvenirNext-Medium" font-size="22.0" fill="#5B5753" transform="matrix(1.00, 0.00, -0.00, -1.00, 549.4, 256.0)">k</text></g></g></g></g><g><clipPath id="clip-51"><path d="M 53.0 580.0 L 971.0 580.0 L 971.0 72.0 L 53.0 72.0 Z M 53.0 580.0 "></path></clipPath><g clip-path="url(#clip-51)"><g><clipPath id="clip-52"><path d="M 666.0 199.5 L 971.0 199.5 L 971.0 325.5 L 666.0 325.5 Z M 666.0 199.5 "></path></clipPath><g clip-path="url(#clip-52)"><text xml:space="preserve" font-family="AvenirNext-Medium" font-size="22.0" fill="#5B5753" transform="matrix(1.00, 0.00, -0.00, -1.00, 762.0, 256.0)">C</text><text xml:space="preserve" font-family="AvenirNext-Medium" font-size="22.0" fill="#5B5753" transform="matrix(1.00, 0.00, -0.00, -1.00, 777.6, 256.0)">h</text><text xml:space="preserve" font-family="AvenirNext-Medium" font-size="22.0" fill="#5B5753" transform="matrix(1.00, 0.00, -0.00, -1.00, 790.4, 256.0)">a</text><text xml:space="preserve" font-family="AvenirNext-Medium" font-size="22.0" fill="#5B5753" transform="matrix(1.00, 0.00, -0.00, -1.00, 802.3, 256.0)">l</text><text xml:space="preserve" font-family="AvenirNext-Medium" font-size="22.0" fill="#5B5753" transform="matrix(1.00, 0.00, -0.00, -1.00, 808.1, 256.0)">l</text><text xml:space="preserve" font-family="AvenirNext-Medium" font-size="22.0" fill="#5B5753" transform="matrix(1.00, 0.00, -0.00, -1.00, 813.8, 256.0)">e</text><text xml:space="preserve" font-family="AvenirNext-Medium" font-size="22.0" fill="#5B5753" transform="matrix(1.00, 0.00, -0.00, -1.00, 826.4, 256.0)">n</text><text xml:space="preserve" font-family="AvenirNext-Medium" font-size="22.0" fill="#5B5753" transform="matrix(1.00, 0.00, -0.00, -1.00, 839.2, 256.0)">g</text><text xml:space="preserve" font-family="AvenirNext-Medium" font-size="22.0" fill="#5B5753" transform="matrix(1.00, 0.00, -0.00, -1.00, 853.1, 256.0)">e</text><text xml:space="preserve" font-family="AvenirNext-Medium" font-size="22.0" fill="#5B5753" transform="matrix(1.00, 0.00, -0.00, -1.00, 865.7, 256.0)">s</text></g></g></g></g><g><clipPath id="clip-53"><path d="M 53.0 580.0 L 971.0 580.0 L 971.0 72.0 L 53.0 72.0 Z M 53.0 580.0 "></path></clipPath><g clip-path="url(#clip-53)"><g><clipPath id="clip-54"><path d="M 53.0 72.0 L 358.0 72.0 L 358.0 198.5 L 53.0 198.5 Z M 53.0 72.0 "></path></clipPath><g clip-path="url(#clip-54)"><text xml:space="preserve" font-family="AvenirNext-Medium" font-size="22.0" fill="#5B5753" transform="matrix(1.00, 0.00, -0.00, -1.00, 167.0, 129.0)">B</text><text xml:space="preserve" font-family="AvenirNext-Medium" font-size="22.0" fill="#5B5753" transform="matrix(1.00, 0.00, -0.00, -1.00, 181.1, 129.0)">a</text><text xml:space="preserve" font-family="AvenirNext-Medium" font-size="22.0" fill="#5B5753" transform="matrix(1.00, 0.00, -0.00, -1.00, 193.0, 129.0)">d</text><text xml:space="preserve" font-family="AvenirNext-Medium" font-size="22.0" fill="#5B5753" transform="matrix(1.00, 0.00, -0.00, -1.00, 207.0, 129.0)">g</text><text xml:space="preserve" font-family="AvenirNext-Medium" font-size="22.0" fill="#5B5753" transform="matrix(1.00, 0.00, -0.00, -1.00, 220.9, 129.0)">e</text><text xml:space="preserve" font-family="AvenirNext-Medium" font-size="22.0" fill="#5B5753" transform="matrix(1.00, 0.00, -0.00, -1.00, 233.5, 129.0)">s</text></g></g></g></g><g><clipPath id="clip-55"><path d="M 53.0 580.0 L 971.0 580.0 L 971.0 72.0 L 53.0 72.0 Z M 53.0 580.0 "></path></clipPath><g clip-path="url(#clip-55)"><g><clipPath id="clip-56"><path d="M 360.0 72.0 L 664.0 72.0 L 664.0 198.5 L 360.0 198.5 Z M 360.0 72.0 "></path></clipPath><g clip-path="url(#clip-56)"><text xml:space="preserve" font-family="AvenirNext-Medium" font-size="22.0" fill="#5B5753" transform="matrix(1.00, 0.00, -0.00, -1.00, 469.0, 129.0)">R</text><text xml:space="preserve" font-family="AvenirNext-Medium" font-size="22.0" fill="#5B5753" transform="matrix(1.00, 0.00, -0.00, -1.00, 482.2, 129.0)">e</text><text xml:space="preserve" font-family="AvenirNext-Medium" font-size="22.0" fill="#5B5753" transform="matrix(1.00, 0.00, -0.00, -1.00, 494.9, 129.0)">w</text><text xml:space="preserve" font-family="AvenirNext-Medium" font-size="22.0" fill="#5B5753" transform="matrix(1.00, 0.00, -0.00, -1.00, 511.9, 129.0)">a</text><text xml:space="preserve" font-family="AvenirNext-Medium" font-size="22.0" fill="#5B5753" transform="matrix(1.00, 0.00, -0.00, -1.00, 523.8, 129.0)">r</text><text xml:space="preserve" font-family="AvenirNext-Medium" font-size="22.0" fill="#5B5753" transform="matrix(1.00, 0.00, -0.00, -1.00, 531.3, 129.0)">d</text><text xml:space="preserve" font-family="AvenirNext-Medium" font-size="22.0" fill="#5B5753" transform="matrix(1.00, 0.00, -0.00, -1.00, 545.3, 129.0)">s</text></g></g></g></g><g><clipPath id="clip-57"><path d="M 53.0 580.0 L 971.0 580.0 L 971.0 72.0 L 53.0 72.0 Z M 53.0 580.0 "></path></clipPath><g clip-path="url(#clip-57)"><g><clipPath id="clip-58"><path d="M 358.0 72.0 L 360.0 72.0 L 360.0 580.0 L 358.0 580.0 Z M 358.0 72.0 "></path></clipPath><g clip-path="url(#clip-58)"><path d="M 307.0 1.0 L 307.0 509.0 " fill="none" stroke="#5B5753" stroke-width="2.00" stroke-dasharray="4.0, 4.0" transform="matrix(1.00, 0.00, 0.00, -1.00, 52.0, 581.0)"></path></g></g></g></g><g><clipPath id="clip-59"><path d="M 53.0 580.0 L 971.0 580.0 L 971.0 72.0 L 53.0 72.0 Z M 53.0 580.0 "></path></clipPath><g clip-path="url(#clip-59)"><g><clipPath id="clip-60"><path d="M 664.0 72.0 L 666.0 72.0 L 666.0 580.0 L 664.0 580.0 Z M 664.0 72.0 "></path></clipPath><g clip-path="url(#clip-60)"><path d="M 613.0 1.0 L 613.0 509.0 " fill="none" stroke="#5B5753" stroke-width="2.00" stroke-dasharray="4.0, 4.0" transform="matrix(1.00, 0.00, 0.00, -1.00, 52.0, 581.0)"></path></g></g></g></g><g><clipPath id="clip-61"><path d="M 53.0 580.0 L 971.0 580.0 L 971.0 72.0 L 53.0 72.0 Z M 53.0 580.0 "></path></clipPath><g clip-path="url(#clip-61)"><path d="M 1.0 128.0 L 919.0 128.0 " fill="none" stroke="#5B5753" stroke-width="1.00" transform="matrix(1.00, 0.00, 0.00, -1.00, 52.0, 581.0)"></path><path d="M 1.0 255.0 L 919.0 255.0 " fill="none" stroke="#5B5753" stroke-width="1.00" transform="matrix(1.00, 0.00, 0.00, -1.00, 52.0, 581.0)"></path><path d="M 1.0 382.0 L 919.0 382.0 " fill="none" stroke="#5B5753" stroke-width="1.00" transform="matrix(1.00, 0.00, 0.00, -1.00, 52.0, 581.0)"></path></g></g><text xml:space="preserve" font-family="Avenir-Medium" font-size="24.0" fill="#5B5753" transform="matrix(1.00, 0.00, -0.00, -1.00, 101.0, 614.0)">T</text><text xml:space="preserve" font-family="Avenir-Medium" font-size="24.0" fill="#5B5753" transform="matrix(1.00, 0.00, -0.00, -1.00, 112.1, 614.0)">a</text><text xml:space="preserve" font-family="Avenir-Medium" font-size="24.0" fill="#5B5753" transform="matrix(1.00, 0.00, -0.00, -1.00, 124.6, 614.0)">l</text><text xml:space="preserve" font-family="Avenir-Medium" font-size="24.0" fill="#5B5753" transform="matrix(1.00, 0.00, -0.00, -1.00, 130.3, 614.0)">l</text><text xml:space="preserve" font-family="Avenir-Medium" font-size="24.0" fill="#5B5753" transform="matrix(1.00, 0.00, -0.00, -1.00, 136.1, 614.0)">y</text><text xml:space="preserve" font-family="Avenir-Medium" font-size="24.0" fill="#5B5753" transform="matrix(1.00, 0.00, -0.00, -1.00, 148.1, 614.0)"> </text><text xml:space="preserve" font-family="Avenir-Medium" font-size="24.0" fill="#5B5753" transform="matrix(1.00, 0.00, -0.00, -1.00, 154.8, 614.0)">t</text><text xml:space="preserve" font-family="Avenir-Medium" font-size="24.0" fill="#5B5753" transform="matrix(1.00, 0.00, -0.00, -1.00, 163.6, 614.0)">h</text><text xml:space="preserve" font-family="Avenir-Medium" font-size="24.0" fill="#5B5753" transform="matrix(1.00, 0.00, -0.00, -1.00, 177.0, 614.0)">e</text><text xml:space="preserve" font-family="Avenir-Medium" font-size="24.0" fill="#5B5753" transform="matrix(1.00, 0.00, -0.00, -1.00, 190.3, 614.0)"> </text><text xml:space="preserve" font-family="Avenir-Medium" font-size="24.0" fill="#5B5753" transform="matrix(1.00, 0.00, -0.00, -1.00, 197.0, 614.0)">n</text><text xml:space="preserve" font-family="Avenir-Medium" font-size="24.0" fill="#5B5753" transform="matrix(1.00, 0.00, -0.00, -1.00, 210.3, 614.0)">u</text><text xml:space="preserve" font-family="Avenir-Medium" font-size="24.0" fill="#5B5753" transform="matrix(1.00, 0.00, -0.00, -1.00, 223.7, 614.0)">m</text><text xml:space="preserve" font-family="Avenir-Medium" font-size="24.0" fill="#5B5753" transform="matrix(1.00, 0.00, -0.00, -1.00, 244.1, 614.0)">b</text><text xml:space="preserve" font-family="Avenir-Medium" font-size="24.0" fill="#5B5753" transform="matrix(1.00, 0.00, -0.00, -1.00, 258.8, 614.0)">e</text><text xml:space="preserve" font-family="Avenir-Medium" font-size="24.0" fill="#5B5753" transform="matrix(1.00, 0.00, -0.00, -1.00, 272.1, 614.0)">r</text><text xml:space="preserve" font-family="Avenir-Medium" font-size="24.0" fill="#5B5753" transform="matrix(1.00, 0.00, -0.00, -1.00, 281.0, 614.0)"> </text><text xml:space="preserve" font-family="Avenir-Medium" font-size="24.0" fill="#5B5753" transform="matrix(1.00, 0.00, -0.00, -1.00, 287.7, 614.0)">o</text><text xml:space="preserve" font-family="Avenir-Medium" font-size="24.0" fill="#5B5753" transform="matrix(1.00, 0.00, -0.00, -1.00, 302.0, 614.0)">f</text><text xml:space="preserve" font-family="Avenir-Medium" font-size="24.0" fill="#5B5753" transform="matrix(1.00, 0.00, -0.00, -1.00, 309.9, 614.0)"> </text><text xml:space="preserve" font-family="Avenir-Medium" font-size="24.0" fill="#5B5753" transform="matrix(1.00, 0.00, -0.00, -1.00, 316.6, 614.0)">t</text><text xml:space="preserve" font-family="Avenir-Medium" font-size="24.0" fill="#5B5753" transform="matrix(1.00, 0.00, -0.00, -1.00, 325.5, 614.0)">i</text><text xml:space="preserve" font-family="Avenir-Medium" font-size="24.0" fill="#5B5753" transform="matrix(1.00, 0.00, -0.00, -1.00, 331.3, 614.0)">m</text><text xml:space="preserve" font-family="Avenir-Medium" font-size="24.0" fill="#5B5753" transform="matrix(1.00, 0.00, -0.00, -1.00, 351.7, 614.0)">e</text><text xml:space="preserve" font-family="Avenir-Medium" font-size="24.0" fill="#5B5753" transform="matrix(1.00, 0.00, -0.00, -1.00, 365.0, 614.0)">s</text><text xml:space="preserve" font-family="Avenir-Medium" font-size="24.0" fill="#5B5753" transform="matrix(1.00, 0.00, -0.00, -1.00, 375.7, 614.0)"> </text><text xml:space="preserve" font-family="Avenir-Medium" font-size="24.0" fill="#5B5753" transform="matrix(1.00, 0.00, -0.00, -1.00, 382.4, 614.0)">y</text><text xml:space="preserve" font-family="Avenir-Medium" font-size="24.0" fill="#5B5753" transform="matrix(1.00, 0.00, -0.00, -1.00, 394.4, 614.0)">o</text><text xml:space="preserve" font-family="Avenir-Medium" font-size="24.0" fill="#5B5753" transform="matrix(1.00, 0.00, -0.00, -1.00, 408.6, 614.0)">u</text><text xml:space="preserve" font-family="Avenir-Medium" font-size="24.0" fill="#5B5753" transform="matrix(1.00, 0.00, -0.00, -1.00, 422.0, 614.0)"> </text><text xml:space="preserve" font-family="Avenir-Medium" font-size="24.0" fill="#5B5753" transform="matrix(1.00, 0.00, -0.00, -1.00, 428.6, 614.0)">s</text><text xml:space="preserve" font-family="Avenir-Medium" font-size="24.0" fill="#5B5753" transform="matrix(1.00, 0.00, -0.00, -1.00, 439.3, 614.0)">e</text><text xml:space="preserve" font-family="Avenir-Medium" font-size="24.0" fill="#5B5753" transform="matrix(1.00, 0.00, -0.00, -1.00, 452.6, 614.0)">e</text><text xml:space="preserve" font-family="Avenir-Medium" font-size="24.0" fill="#5B5753" transform="matrix(1.00, 0.00, -0.00, -1.00, 466.0, 614.0)"> </text><text xml:space="preserve" font-family="Avenir-Medium" font-size="24.0" fill="#5B5753" transform="matrix(1.00, 0.00, -0.00, -1.00, 472.7, 614.0)">t</text><text xml:space="preserve" font-family="Avenir-Medium" font-size="24.0" fill="#5B5753" transform="matrix(1.00, 0.00, -0.00, -1.00, 481.5, 614.0)">h</text><text xml:space="preserve" font-family="Avenir-Medium" font-size="24.0" fill="#5B5753" transform="matrix(1.00, 0.00, -0.00, -1.00, 494.9, 614.0)">e</text><text xml:space="preserve" font-family="Avenir-Medium" font-size="24.0" fill="#5B5753" transform="matrix(1.00, 0.00, -0.00, -1.00, 508.2, 614.0)">s</text><text xml:space="preserve" font-family="Avenir-Medium" font-size="24.0" fill="#5B5753" transform="matrix(1.00, 0.00, -0.00, -1.00, 518.9, 614.0)">e</text><text xml:space="preserve" font-family="Avenir-Medium" font-size="24.0" fill="#5B5753" transform="matrix(1.00, 0.00, -0.00, -1.00, 532.2, 614.0)"> </text><text xml:space="preserve" font-family="Avenir-Medium" font-size="24.0" fill="#5B5753" transform="matrix(1.00, 0.00, -0.00, -1.00, 538.9, 614.0)">e</text><text xml:space="preserve" font-family="Avenir-Medium" font-size="24.0" fill="#5B5753" transform="matrix(1.00, 0.00, -0.00, -1.00, 552.2, 614.0)">l</text><text xml:space="preserve" font-family="Avenir-Medium" font-size="24.0" fill="#5B5753" transform="matrix(1.00, 0.00, -0.00, -1.00, 558.0, 614.0)">e</text><text xml:space="preserve" font-family="Avenir-Medium" font-size="24.0" fill="#5B5753" transform="matrix(1.00, 0.00, -0.00, -1.00, 571.4, 614.0)">m</text><text xml:space="preserve" font-family="Avenir-Medium" font-size="24.0" fill="#5B5753" transform="matrix(1.00, 0.00, -0.00, -1.00, 591.8, 614.0)">e</text><text xml:space="preserve" font-family="Avenir-Medium" font-size="24.0" fill="#5B5753" transform="matrix(1.00, 0.00, -0.00, -1.00, 605.1, 614.0)">n</text><text xml:space="preserve" font-family="Avenir-Medium" font-size="24.0" fill="#5B5753" transform="matrix(1.00, 0.00, -0.00, -1.00, 618.5, 614.0)">t</text><text xml:space="preserve" font-family="Avenir-Medium" font-size="24.0" fill="#5B5753" transform="matrix(1.00, 0.00, -0.00, -1.00, 627.4, 614.0)">s</text><text xml:space="preserve" font-family="Avenir-Medium" font-size="24.0" fill="#5B5753" transform="matrix(1.00, 0.00, -0.00, -1.00, 638.0, 614.0)"> </text><text xml:space="preserve" font-family="Avenir-Medium" font-size="24.0" fill="#5B5753" transform="matrix(1.00, 0.00, -0.00, -1.00, 644.7, 614.0)">i</text><text xml:space="preserve" font-family="Avenir-Medium" font-size="24.0" fill="#5B5753" transform="matrix(1.00, 0.00, -0.00, -1.00, 650.5, 614.0)">n</text><text xml:space="preserve" font-family="Avenir-Medium" font-size="24.0" fill="#5B5753" transform="matrix(1.00, 0.00, -0.00, -1.00, 663.8, 614.0)"> </text><text xml:space="preserve" font-family="Avenir-Medium" font-size="24.0" fill="#5B5753" transform="matrix(1.00, 0.00, -0.00, -1.00, 670.5, 614.0)">t</text><text xml:space="preserve" font-family="Avenir-Medium" font-size="24.0" fill="#5B5753" transform="matrix(1.00, 0.00, -0.00, -1.00, 679.4, 614.0)">h</text><text xml:space="preserve" font-family="Avenir-Medium" font-size="24.0" fill="#5B5753" transform="matrix(1.00, 0.00, -0.00, -1.00, 692.7, 614.0)">e</text><text xml:space="preserve" font-family="Avenir-Medium" font-size="24.0" fill="#5B5753" transform="matrix(1.00, 0.00, -0.00, -1.00, 706.0, 614.0)"> </text><text xml:space="preserve" font-family="Avenir-Medium" font-size="24.0" fill="#5B5753" transform="matrix(1.00, 0.00, -0.00, -1.00, 712.7, 614.0)">f</text><text xml:space="preserve" font-family="Avenir-Medium" font-size="24.0" fill="#5B5753" transform="matrix(1.00, 0.00, -0.00, -1.00, 720.7, 614.0)">o</text><text xml:space="preserve" font-family="Avenir-Medium" font-size="24.0" fill="#5B5753" transform="matrix(1.00, 0.00, -0.00, -1.00, 735.0, 614.0)">l</text><text xml:space="preserve" font-family="Avenir-Medium" font-size="24.0" fill="#5B5753" transform="matrix(1.00, 0.00, -0.00, -1.00, 740.7, 614.0)">l</text><text xml:space="preserve" font-family="Avenir-Medium" font-size="24.0" fill="#5B5753" transform="matrix(1.00, 0.00, -0.00, -1.00, 746.5, 614.0)">o</text><text xml:space="preserve" font-family="Avenir-Medium" font-size="24.0" fill="#5B5753" transform="matrix(1.00, 0.00, -0.00, -1.00, 760.7, 614.0)">w</text><text xml:space="preserve" font-family="Avenir-Medium" font-size="24.0" fill="#5B5753" transform="matrix(1.00, 0.00, -0.00, -1.00, 779.0, 614.0)">i</text><text xml:space="preserve" font-family="Avenir-Medium" font-size="24.0" fill="#5B5753" transform="matrix(1.00, 0.00, -0.00, -1.00, 784.7, 614.0)">n</text><text xml:space="preserve" font-family="Avenir-Medium" font-size="24.0" fill="#5B5753" transform="matrix(1.00, 0.00, -0.00, -1.00, 798.1, 614.0)">g</text><text xml:space="preserve" font-family="Avenir-Medium" font-size="24.0" fill="#5B5753" transform="matrix(1.00, 0.00, -0.00, -1.00, 812.7, 614.0)"> </text><text xml:space="preserve" font-family="Avenir-Medium" font-size="24.0" fill="#5B5753" transform="matrix(1.00, 0.00, -0.00, -1.00, 819.4, 614.0)">e</text><text xml:space="preserve" font-family="Avenir-Medium" font-size="24.0" fill="#5B5753" transform="matrix(1.00, 0.00, -0.00, -1.00, 832.7, 614.0)">x</text><text xml:space="preserve" font-family="Avenir-Medium" font-size="24.0" fill="#5B5753" transform="matrix(1.00, 0.00, -0.00, -1.00, 845.2, 614.0)">a</text><text xml:space="preserve" font-family="Avenir-Medium" font-size="24.0" fill="#5B5753" transform="matrix(1.00, 0.00, -0.00, -1.00, 857.6, 614.0)">m</text><text xml:space="preserve" font-family="Avenir-Medium" font-size="24.0" fill="#5B5753" transform="matrix(1.00, 0.00, -0.00, -1.00, 878.1, 614.0)">p</text><text xml:space="preserve" font-family="Avenir-Medium" font-size="24.0" fill="#5B5753" transform="matrix(1.00, 0.00, -0.00, -1.00, 892.8, 614.0)">l</text><text xml:space="preserve" font-family="Avenir-Medium" font-size="24.0" fill="#5B5753" transform="matrix(1.00, 0.00, -0.00, -1.00, 898.5, 614.0)">e</text><text xml:space="preserve" font-family="Avenir-Medium" font-size="24.0" fill="#5B5753" transform="matrix(1.00, 0.00, -0.00, -1.00, 911.9, 614.0)">s</text></g></svg>