<?xml version="1.0" encoding="UTF-8" standalone="no"?><svg xmlns="http://www.w3.org/2000/svg" xmlns:xlink="http://www.w3.org/1999/xlink" clip-rule="evenodd" stroke-miterlimit="4.00" viewBox="0 0 1024 768"><desc>SVG generated by Keynote</desc><defs></defs><g transform="matrix(1.00, 0.00, -0.00, -1.00, 0.0, 768.0)"><g><clipPath id="clip-122"><path d="M 0.0 768.0 L 1024.0 768.0 L 1024.0 0.0 L 0.0 0.0 Z M 0.0 768.0 "></path></clipPath><g clip-path="url(#clip-122)"><image xlink:href="../../AF96F424-7C09-4F78-963E-46EE187EF601/assets/D52BF74205EDDA1E3AD886EF31563845.jpeg" width="1024.00" height="768.00" transform="matrix(1.00, 0.00, -0.00, -1.00, 0.0, 768.0)"></image></g></g><text xml:space="preserve" font-family="Futura-Medium" font-size="26.0" fill="#5B5753" transform="matrix(1.00, 0.00, -0.00, -1.00, 74.0, 633.0)">E</text><text xml:space="preserve" font-family="Futura-Medium" font-size="26.0" fill="#5B5753" transform="matrix(1.00, 0.00, -0.00, -1.00, 91.1, 633.0)">X</text><text xml:space="preserve" font-family="Futura-Medium" font-size="26.0" fill="#5B5753" transform="matrix(1.00, 0.00, -0.00, -1.00, 109.4, 633.0)">P</text><text xml:space="preserve" font-family="Futura-Medium" font-size="26.0" fill="#5B5753" transform="matrix(1.00, 0.00, -0.00, -1.00, 125.8, 633.0)">L</text><text xml:space="preserve" font-family="Futura-Medium" font-size="26.0" fill="#5B5753" transform="matrix(1.00, 0.00, -0.00, -1.00, 138.9, 633.0)">O</text><text xml:space="preserve" font-family="Futura-Medium" font-size="26.0" fill="#5B5753" transform="matrix(1.00, 0.00, -0.00, -1.00, 164.5, 633.0)">R</text><text xml:space="preserve" font-family="Futura-Medium" font-size="26.0" fill="#5B5753" transform="matrix(1.00, 0.00, -0.00, -1.00, 182.5, 633.0)">I</text><text xml:space="preserve" font-family="Futura-Medium" font-size="26.0" fill="#5B5753" transform="matrix(1.00, 0.00, -0.00, -1.00, 192.5, 633.0)">N</text><text xml:space="preserve" font-family="Futura-Medium" font-size="26.0" fill="#5B5753" transform="matrix(1.00, 0.00, -0.00, -1.00, 217.0, 633.0)">G</text><text xml:space="preserve" font-family="Futura-Medium" font-size="26.0" fill="#5B5753" transform="matrix(1.00, 0.00, -0.00, -1.00, 241.2, 633.0)"> </text><text xml:space="preserve" font-family="Futura-Medium" font-size="26.0" fill="#5B5753" transform="matrix(1.00, 0.00, -0.00, -1.00, 251.6, 633.0)">G</text><text xml:space="preserve" font-family="Futura-Medium" font-size="26.0" fill="#5B5753" transform="matrix(1.00, 0.00, -0.00, -1.00, 274.9, 633.0)">A</text><text xml:space="preserve" font-family="Futura-Medium" font-size="26.0" fill="#5B5753" transform="matrix(1.00, 0.00, -0.00, -1.00, 296.5, 633.0)">M</text><text xml:space="preserve" font-family="Futura-Medium" font-size="26.0" fill="#5B5753" transform="matrix(1.00, 0.00, -0.00, -1.00, 323.9, 633.0)">I</text><text xml:space="preserve" font-family="Futura-Medium" font-size="26.0" fill="#5B5753" transform="matrix(1.00, 0.00, -0.00, -1.00, 333.8, 633.0)">F</text><text xml:space="preserve" font-family="Futura-Medium" font-size="26.0" fill="#5B5753" transform="matrix(1.00, 0.00, -0.00, -1.00, 349.4, 633.0)">I</text><text xml:space="preserve" font-family="Futura-Medium" font-size="26.0" fill="#5B5753" transform="matrix(1.00, 0.00, -0.00, -1.00, 359.4, 633.0)">C</text><text xml:space="preserve" font-family="Futura-Medium" font-size="26.0" fill="#5B5753" transform="matrix(1.00, 0.00, -0.00, -1.00, 380.4, 633.0)">A</text><text xml:space="preserve" font-family="Futura-Medium" font-size="26.0" fill="#5B5753" transform="matrix(1.00, 0.00, -0.00, -1.00, 400.9, 633.0)">T</text><text xml:space="preserve" font-family="Futura-Medium" font-size="26.0" fill="#5B5753" transform="matrix(1.00, 0.00, -0.00, -1.00, 415.8, 633.0)">I</text><text xml:space="preserve" font-family="Futura-Medium" font-size="26.0" fill="#5B5753" transform="matrix(1.00, 0.00, -0.00, -1.00, 425.8, 633.0)">O</text><text xml:space="preserve" font-family="Futura-Medium" font-size="26.0" fill="#5B5753" transform="matrix(1.00, 0.00, -0.00, -1.00, 451.3, 633.0)">N</text><text xml:space="preserve" font-family="Futura-Medium" font-size="26.0" fill="#5B5753" transform="matrix(1.00, 0.00, -0.00, -1.00, 475.6, 633.0)"> </text><text xml:space="preserve" font-family="Futura-Medium" font-size="26.0" fill="#5B5753" transform="matrix(1.00, 0.00, -0.00, -1.00, 486.0, 633.0)">E</text><text xml:space="preserve" font-family="Futura-Medium" font-size="26.0" fill="#5B5753" transform="matrix(1.00, 0.00, -0.00, -1.00, 503.0, 633.0)">F</text><text xml:space="preserve" font-family="Futura-Medium" font-size="26.0" fill="#5B5753" transform="matrix(1.00, 0.00, -0.00, -1.00, 518.6, 633.0)">F</text><text xml:space="preserve" font-family="Futura-Medium" font-size="26.0" fill="#5B5753" transform="matrix(1.00, 0.00, -0.00, -1.00, 534.2, 633.0)">E</text><text xml:space="preserve" font-family="Futura-Medium" font-size="26.0" fill="#5B5753" transform="matrix(1.00, 0.00, -0.00, -1.00, 551.2, 633.0)">C</text><text xml:space="preserve" font-family="Futura-Medium" font-size="26.0" fill="#5B5753" transform="matrix(1.00, 0.00, -0.00, -1.00, 571.8, 633.0)">T</text><text xml:space="preserve" font-family="Futura-Medium" font-size="26.0" fill="#5B5753" transform="matrix(1.00, 0.00, -0.00, -1.00, 586.6, 633.0)">S</text><text xml:space="preserve" font-family="Futura-Medium" font-size="26.0" fill="#5B5753" transform="matrix(1.00, 0.00, -0.00, -1.00, 604.2, 633.0)"> </text><text xml:space="preserve" font-family="Futura-Medium" font-size="26.0" fill="#5B5753" transform="matrix(1.00, 0.00, -0.00, -1.00, 614.5, 633.0)">O</text><text xml:space="preserve" font-family="Futura-Medium" font-size="26.0" fill="#5B5753" transform="matrix(1.00, 0.00, -0.00, -1.00, 640.1, 633.0)">N</text><text xml:space="preserve" font-family="Futura-Medium" font-size="26.0" fill="#5B5753" transform="matrix(1.00, 0.00, -0.00, -1.00, 664.4, 633.0)"> </text><text xml:space="preserve" font-family="Futura-Medium" font-size="26.0" fill="#5B5753" transform="matrix(1.00, 0.00, -0.00, -1.00, 674.7, 633.0)">U</text><text xml:space="preserve" font-family="Futura-Medium" font-size="26.0" fill="#5B5753" transform="matrix(1.00, 0.00, -0.00, -1.00, 696.2, 633.0)">S</text><text xml:space="preserve" font-family="Futura-Medium" font-size="26.0" fill="#5B5753" transform="matrix(1.00, 0.00, -0.00, -1.00, 713.7, 633.0)">E</text><text xml:space="preserve" font-family="Futura-Medium" font-size="26.0" fill="#5B5753" transform="matrix(1.00, 0.00, -0.00, -1.00, 730.8, 633.0)">R</text><text xml:space="preserve" font-family="Futura-Medium" font-size="26.0" fill="#5B5753" transform="matrix(1.00, 0.00, -0.00, -1.00, 748.8, 633.0)"> </text><text xml:space="preserve" font-family="Futura-Medium" font-size="26.0" fill="#5B5753" transform="matrix(1.00, 0.00, -0.00, -1.00, 759.1, 633.0)">A</text><text xml:space="preserve" font-family="Futura-Medium" font-size="26.0" fill="#5B5753" transform="matrix(1.00, 0.00, -0.00, -1.00, 779.8, 633.0)">C</text><text xml:space="preserve" font-family="Futura-Medium" font-size="26.0" fill="#5B5753" transform="matrix(1.00, 0.00, -0.00, -1.00, 800.4, 633.0)">C</text><text xml:space="preserve" font-family="Futura-Medium" font-size="26.0" fill="#5B5753" transform="matrix(1.00, 0.00, -0.00, -1.00, 820.9, 633.0)">E</text><text xml:space="preserve" font-family="Futura-Medium" font-size="26.0" fill="#5B5753" transform="matrix(1.00, 0.00, -0.00, -1.00, 838.0, 633.0)">P</text><text xml:space="preserve" font-family="Futura-Medium" font-size="26.0" fill="#5B5753" transform="matrix(1.00, 0.00, -0.00, -1.00, 854.3, 633.0)">T</text><text xml:space="preserve" font-family="Futura-Medium" font-size="26.0" fill="#5B5753" transform="matrix(1.00, 0.00, -0.00, -1.00, 868.2, 633.0)">A</text><text xml:space="preserve" font-family="Futura-Medium" font-size="26.0" fill="#5B5753" transform="matrix(1.00, 0.00, -0.00, -1.00, 889.8, 633.0)">N</text><text xml:space="preserve" font-family="Futura-Medium" font-size="26.0" fill="#5B5753" transform="matrix(1.00, 0.00, -0.00, -1.00, 914.2, 633.0)">C</text><text xml:space="preserve" font-family="Futura-Medium" font-size="26.0" fill="#5B5753" transform="matrix(1.00, 0.00, -0.00, -1.00, 934.8, 633.0)">E</text><text xml:space="preserve" font-family="Futura-Medium" font-size="26.0" fill="#5B5753" transform="matrix(1.00, 0.00, -0.00, -1.00, 951.8, 633.0)"> </text><text xml:space="preserve" font-family="Futura-Medium" font-size="26.0" fill="#5B5753" transform="matrix(1.00, 0.00, -0.00, -1.00, 416.0, 598.0)">C</text><text xml:space="preserve" font-family="Futura-Medium" font-size="26.0" fill="#5B5753" transform="matrix(1.00, 0.00, -0.00, -1.00, 436.4, 598.0)">O</text><text xml:space="preserve" font-family="Futura-Medium" font-size="26.0" fill="#5B5753" transform="matrix(1.00, 0.00, -0.00, -1.00, 462.0, 598.0)">N</text><text xml:space="preserve" font-family="Futura-Medium" font-size="26.0" fill="#5B5753" transform="matrix(1.00, 0.00, -0.00, -1.00, 486.3, 598.0)">S</text><text xml:space="preserve" font-family="Futura-Medium" font-size="26.0" fill="#5B5753" transform="matrix(1.00, 0.00, -0.00, -1.00, 504.1, 598.0)">T</text><text xml:space="preserve" font-family="Futura-Medium" font-size="26.0" fill="#5B5753" transform="matrix(1.00, 0.00, -0.00, -1.00, 519.0, 598.0)">R</text><text xml:space="preserve" font-family="Futura-Medium" font-size="26.0" fill="#5B5753" transform="matrix(1.00, 0.00, -0.00, -1.00, 536.7, 598.0)">U</text><text xml:space="preserve" font-family="Futura-Medium" font-size="26.0" fill="#5B5753" transform="matrix(1.00, 0.00, -0.00, -1.00, 558.3, 598.0)">C</text><text xml:space="preserve" font-family="Futura-Medium" font-size="26.0" fill="#5B5753" transform="matrix(1.00, 0.00, -0.00, -1.00, 578.8, 598.0)">T</text><text xml:space="preserve" font-family="Futura-Medium" font-size="26.0" fill="#5B5753" transform="matrix(1.00, 0.00, -0.00, -1.00, 593.7, 598.0)">S</text><text xml:space="preserve" font-family="Futura-Medium" font-size="28.0" fill="#5B5753" transform="matrix(1.00, 0.00, -0.00, -1.00, 62.0, 689.0)">G</text><text xml:space="preserve" font-family="Futura-Medium" font-size="28.0" fill="#5B5753" transform="matrix(1.00, 0.00, -0.00, -1.00, 85.2, 689.0)">A</text><text xml:space="preserve" font-family="Futura-Medium" font-size="28.0" fill="#5B5753" transform="matrix(1.00, 0.00, -0.00, -1.00, 106.5, 689.0)">M</text><text xml:space="preserve" font-family="Futura-Medium" font-size="28.0" fill="#5B5753" transform="matrix(1.00, 0.00, -0.00, -1.00, 134.0, 689.0)">I</text><text xml:space="preserve" font-family="Futura-Medium" font-size="28.0" fill="#5B5753" transform="matrix(1.00, 0.00, -0.00, -1.00, 142.8, 689.0)">F</text><text xml:space="preserve" font-family="Futura-Medium" font-size="28.0" fill="#5B5753" transform="matrix(1.00, 0.00, -0.00, -1.00, 157.6, 689.0)">I</text><text xml:space="preserve" font-family="Futura-Medium" font-size="28.0" fill="#5B5753" transform="matrix(1.00, 0.00, -0.00, -1.00, 166.4, 689.0)">C</text><text xml:space="preserve" font-family="Futura-Medium" font-size="28.0" fill="#5B5753" transform="matrix(1.00, 0.00, -0.00, -1.00, 187.1, 689.0)">A</text><text xml:space="preserve" font-family="Futura-Medium" font-size="28.0" fill="#5B5753" transform="matrix(1.00, 0.00, -0.00, -1.00, 207.2, 689.0)">T</text><text xml:space="preserve" font-family="Futura-Medium" font-size="28.0" fill="#5B5753" transform="matrix(1.00, 0.00, -0.00, -1.00, 221.3, 689.0)">I</text><text xml:space="preserve" font-family="Futura-Medium" font-size="28.0" fill="#5B5753" transform="matrix(1.00, 0.00, -0.00, -1.00, 230.1, 689.0)">O</text><text xml:space="preserve" font-family="Futura-Medium" font-size="28.0" fill="#5B5753" transform="matrix(1.00, 0.00, -0.00, -1.00, 255.7, 689.0)">N</text><text xml:space="preserve" font-family="Futura-Medium" font-size="28.0" fill="#5B5753" transform="matrix(1.00, 0.00, -0.00, -1.00, 279.9, 689.0)"> </text><text xml:space="preserve" font-family="Futura-Medium" font-size="28.0" fill="#5B5753" transform="matrix(1.00, 0.00, -0.00, -1.00, 289.1, 689.0)">O</text><text xml:space="preserve" font-family="Futura-Medium" font-size="28.0" fill="#5B5753" transform="matrix(1.00, 0.00, -0.00, -1.00, 314.7, 689.0)">F</text><text xml:space="preserve" font-family="Futura-Medium" font-size="28.0" fill="#5B5753" transform="matrix(1.00, 0.00, -0.00, -1.00, 329.5, 689.0)"> </text><text xml:space="preserve" font-family="Futura-Medium" font-size="28.0" fill="#5B5753" transform="matrix(1.00, 0.00, -0.00, -1.00, 338.7, 689.0)">E</text><text xml:space="preserve" font-family="Futura-Medium" font-size="28.0" fill="#5B5753" transform="matrix(1.00, 0.00, -0.00, -1.00, 355.1, 689.0)">N</text><text xml:space="preserve" font-family="Futura-Medium" font-size="28.0" fill="#5B5753" transform="matrix(1.00, 0.00, -0.00, -1.00, 379.3, 689.0)">T</text><text xml:space="preserve" font-family="Futura-Medium" font-size="28.0" fill="#5B5753" transform="matrix(1.00, 0.00, -0.00, -1.00, 393.4, 689.0)">E</text><text xml:space="preserve" font-family="Futura-Medium" font-size="28.0" fill="#5B5753" transform="matrix(1.00, 0.00, -0.00, -1.00, 409.8, 689.0)">R</text><text xml:space="preserve" font-family="Futura-Medium" font-size="28.0" fill="#5B5753" transform="matrix(1.00, 0.00, -0.00, -1.00, 427.2, 689.0)">P</text><text xml:space="preserve" font-family="Futura-Medium" font-size="28.0" fill="#5B5753" transform="matrix(1.00, 0.00, -0.00, -1.00, 442.9, 689.0)">R</text><text xml:space="preserve" font-family="Futura-Medium" font-size="28.0" fill="#5B5753" transform="matrix(1.00, 0.00, -0.00, -1.00, 460.3, 689.0)">I</text><text xml:space="preserve" font-family="Futura-Medium" font-size="28.0" fill="#5B5753" transform="matrix(1.00, 0.00, -0.00, -1.00, 469.1, 689.0)">S</text><text xml:space="preserve" font-family="Futura-Medium" font-size="28.0" fill="#5B5753" transform="matrix(1.00, 0.00, -0.00, -1.00, 486.0, 689.0)">E</text><text xml:space="preserve" font-family="Futura-Medium" font-size="28.0" fill="#5B5753" transform="matrix(1.00, 0.00, -0.00, -1.00, 502.4, 689.0)"> </text><text xml:space="preserve" font-family="Futura-Medium" font-size="28.0" fill="#5B5753" transform="matrix(1.00, 0.00, -0.00, -1.00, 511.6, 689.0)">R</text><text xml:space="preserve" font-family="Futura-Medium" font-size="28.0" fill="#5B5753" transform="matrix(1.00, 0.00, -0.00, -1.00, 529.0, 689.0)">E</text><text xml:space="preserve" font-family="Futura-Medium" font-size="28.0" fill="#5B5753" transform="matrix(1.00, 0.00, -0.00, -1.00, 545.4, 689.0)">S</text><text xml:space="preserve" font-family="Futura-Medium" font-size="28.0" fill="#5B5753" transform="matrix(1.00, 0.00, -0.00, -1.00, 562.3, 689.0)">O</text><text xml:space="preserve" font-family="Futura-Medium" font-size="28.0" fill="#5B5753" transform="matrix(1.00, 0.00, -0.00, -1.00, 587.9, 689.0)">U</text><text xml:space="preserve" font-family="Futura-Medium" font-size="28.0" fill="#5B5753" transform="matrix(1.00, 0.00, -0.00, -1.00, 609.1, 689.0)">R</text><text xml:space="preserve" font-family="Futura-Medium" font-size="28.0" fill="#5B5753" transform="matrix(1.00, 0.00, -0.00, -1.00, 626.1, 689.0)">C</text><text xml:space="preserve" font-family="Futura-Medium" font-size="28.0" fill="#5B5753" transform="matrix(1.00, 0.00, -0.00, -1.00, 646.2, 689.0)">E</text><text xml:space="preserve" font-family="Futura-Medium" font-size="28.0" fill="#5B5753" transform="matrix(1.00, 0.00, -0.00, -1.00, 662.6, 689.0)"> </text><text xml:space="preserve" font-family="Futura-Medium" font-size="28.0" fill="#5B5753" transform="matrix(1.00, 0.00, -0.00, -1.00, 671.8, 689.0)">P</text><text xml:space="preserve" font-family="Futura-Medium" font-size="28.0" fill="#5B5753" transform="matrix(1.00, 0.00, -0.00, -1.00, 687.5, 689.0)">L</text><text xml:space="preserve" font-family="Futura-Medium" font-size="28.0" fill="#5B5753" transform="matrix(1.00, 0.00, -0.00, -1.00, 701.7, 689.0)">A</text><text xml:space="preserve" font-family="Futura-Medium" font-size="28.0" fill="#5B5753" transform="matrix(1.00, 0.00, -0.00, -1.00, 723.0, 689.0)">N</text><text xml:space="preserve" font-family="Futura-Medium" font-size="28.0" fill="#5B5753" transform="matrix(1.00, 0.00, -0.00, -1.00, 747.2, 689.0)">N</text><text xml:space="preserve" font-family="Futura-Medium" font-size="28.0" fill="#5B5753" transform="matrix(1.00, 0.00, -0.00, -1.00, 771.4, 689.0)">I</text><text xml:space="preserve" font-family="Futura-Medium" font-size="28.0" fill="#5B5753" transform="matrix(1.00, 0.00, -0.00, -1.00, 780.2, 689.0)">N</text><text xml:space="preserve" font-family="Futura-Medium" font-size="28.0" fill="#5B5753" transform="matrix(1.00, 0.00, -0.00, -1.00, 804.6, 689.0)">G</text><text xml:space="preserve" font-family="Futura-Medium" font-size="28.0" fill="#5B5753" transform="matrix(1.00, 0.00, -0.00, -1.00, 828.6, 689.0)"> </text><text xml:space="preserve" font-family="Futura-Medium" font-size="28.0" fill="#5B5753" transform="matrix(1.00, 0.00, -0.00, -1.00, 837.8, 689.0)">S</text><text xml:space="preserve" font-family="Futura-Medium" font-size="28.0" fill="#5B5753" transform="matrix(1.00, 0.00, -0.00, -1.00, 854.5, 689.0)">Y</text><text xml:space="preserve" font-family="Futura-Medium" font-size="28.0" fill="#5B5753" transform="matrix(1.00, 0.00, -0.00, -1.00, 871.2, 689.0)">S</text><text xml:space="preserve" font-family="Futura-Medium" font-size="28.0" fill="#5B5753" transform="matrix(1.00, 0.00, -0.00, -1.00, 888.5, 689.0)">T</text><text xml:space="preserve" font-family="Futura-Medium" font-size="28.0" fill="#5B5753" transform="matrix(1.00, 0.00, -0.00, -1.00, 902.6, 689.0)">E</text><text xml:space="preserve" font-family="Futura-Medium" font-size="28.0" fill="#5B5753" transform="matrix(1.00, 0.00, -0.00, -1.00, 919.0, 689.0)">M</text><text xml:space="preserve" font-family="Futura-Medium" font-size="28.0" fill="#5B5753" transform="matrix(1.00, 0.00, -0.00, -1.00, 946.5, 689.0)">S</text><text xml:space="preserve" font-family="Futura-Medium" font-size="28.0" fill="#5B5753" transform="matrix(1.00, 0.00, -0.00, -1.00, 963.4, 689.0)"> </text><text xml:space="preserve" font-family="Avenir-Medium" font-size="21.0" fill="#9A958D" transform="matrix(1.00, 0.00, -0.00, -1.00, 57.0, 550.2)">•</text><text xml:space="preserve" font-family="Avenir-Medium" font-size="28.0" fill="#5B5753" transform="matrix(1.00, 0.00, -0.00, -1.00, 87.0, 548.0)">G</text><text xml:space="preserve" font-family="Avenir-Medium" font-size="28.0" fill="#5B5753" transform="matrix(1.00, 0.00, -0.00, -1.00, 109.3, 548.0)">a</text><text xml:space="preserve" font-family="Avenir-Medium" font-size="28.0" fill="#5B5753" transform="matrix(1.00, 0.00, -0.00, -1.00, 124.4, 548.0)">m</text><text xml:space="preserve" font-family="Avenir-Medium" font-size="28.0" fill="#5B5753" transform="matrix(1.00, 0.00, -0.00, -1.00, 148.9, 548.0)">i</text><text xml:space="preserve" font-family="Avenir-Medium" font-size="28.0" fill="#5B5753" transform="matrix(1.00, 0.00, -0.00, -1.00, 156.1, 548.0)">f</text><text xml:space="preserve" font-family="Avenir-Medium" font-size="28.0" fill="#5B5753" transform="matrix(1.00, 0.00, -0.00, -1.00, 166.0, 548.0)">i</text><text xml:space="preserve" font-family="Avenir-Medium" font-size="28.0" fill="#5B5753" transform="matrix(1.00, 0.00, -0.00, -1.00, 173.3, 548.0)">c</text><text xml:space="preserve" font-family="Avenir-Medium" font-size="28.0" fill="#5B5753" transform="matrix(1.00, 0.00, -0.00, -1.00, 187.4, 548.0)">a</text><text xml:space="preserve" font-family="Avenir-Medium" font-size="28.0" fill="#5B5753" transform="matrix(1.00, 0.00, -0.00, -1.00, 202.4, 548.0)">t</text><text xml:space="preserve" font-family="Avenir-Medium" font-size="28.0" fill="#5B5753" transform="matrix(1.00, 0.00, -0.00, -1.00, 213.4, 548.0)">i</text><text xml:space="preserve" font-family="Avenir-Medium" font-size="28.0" fill="#5B5753" transform="matrix(1.00, 0.00, -0.00, -1.00, 220.6, 548.0)">o</text><text xml:space="preserve" font-family="Avenir-Medium" font-size="28.0" fill="#5B5753" transform="matrix(1.00, 0.00, -0.00, -1.00, 237.8, 548.0)">n</text><text xml:space="preserve" font-family="Avenir-Medium" font-size="28.0" fill="#5B5753" transform="matrix(1.00, 0.00, -0.00, -1.00, 254.0, 548.0)"> </text><text xml:space="preserve" font-family="Avenir-Medium" font-size="28.0" fill="#5B5753" transform="matrix(1.00, 0.00, -0.00, -1.00, 262.3, 548.0)">l</text><text xml:space="preserve" font-family="Avenir-Medium" font-size="28.0" fill="#5B5753" transform="matrix(1.00, 0.00, -0.00, -1.00, 269.6, 548.0)">e</text><text xml:space="preserve" font-family="Avenir-Medium" font-size="28.0" fill="#5B5753" transform="matrix(1.00, 0.00, -0.00, -1.00, 285.7, 548.0)">a</text><text xml:space="preserve" font-family="Avenir-Medium" font-size="28.0" fill="#5B5753" transform="matrix(1.00, 0.00, -0.00, -1.00, 300.8, 548.0)">d</text><text xml:space="preserve" font-family="Avenir-Medium" font-size="28.0" fill="#5B5753" transform="matrix(1.00, 0.00, -0.00, -1.00, 318.5, 548.0)"> </text><text xml:space="preserve" font-family="Avenir-Medium" font-size="28.0" fill="#5B5753" transform="matrix(1.00, 0.00, -0.00, -1.00, 326.8, 548.0)">t</text><text xml:space="preserve" font-family="Avenir-Medium" font-size="28.0" fill="#5B5753" transform="matrix(1.00, 0.00, -0.00, -1.00, 337.7, 548.0)">o</text><text xml:space="preserve" font-family="Avenir-Medium" font-size="28.0" fill="#5B5753" transform="matrix(1.00, 0.00, -0.00, -1.00, 354.9, 548.0)"> </text><text xml:space="preserve" font-family="Avenir-Medium" font-size="28.0" fill="#5B5753" transform="matrix(1.00, 0.00, -0.00, -1.00, 363.3, 548.0)">s</text><text xml:space="preserve" font-family="Avenir-Medium" font-size="28.0" fill="#5B5753" transform="matrix(1.00, 0.00, -0.00, -1.00, 376.3, 548.0)">i</text><text xml:space="preserve" font-family="Avenir-Medium" font-size="28.0" fill="#5B5753" transform="matrix(1.00, 0.00, -0.00, -1.00, 383.5, 548.0)">g</text><text xml:space="preserve" font-family="Avenir-Medium" font-size="28.0" fill="#5B5753" transform="matrix(1.00, 0.00, -0.00, -1.00, 401.2, 548.0)">n</text><text xml:space="preserve" font-family="Avenir-Medium" font-size="28.0" fill="#5B5753" transform="matrix(1.00, 0.00, -0.00, -1.00, 417.3, 548.0)">i</text><text xml:space="preserve" font-family="Avenir-Medium" font-size="28.0" fill="#5B5753" transform="matrix(1.00, 0.00, -0.00, -1.00, 424.6, 548.0)">f</text><text xml:space="preserve" font-family="Avenir-Medium" font-size="28.0" fill="#5B5753" transform="matrix(1.00, 0.00, -0.00, -1.00, 434.5, 548.0)">i</text><text xml:space="preserve" font-family="Avenir-Medium" font-size="28.0" fill="#5B5753" transform="matrix(1.00, 0.00, -0.00, -1.00, 441.8, 548.0)">c</text><text xml:space="preserve" font-family="Avenir-Medium" font-size="28.0" fill="#5B5753" transform="matrix(1.00, 0.00, -0.00, -1.00, 455.8, 548.0)">a</text><text xml:space="preserve" font-family="Avenir-Medium" font-size="28.0" fill="#5B5753" transform="matrix(1.00, 0.00, -0.00, -1.00, 470.9, 548.0)">n</text><text xml:space="preserve" font-family="Avenir-Medium" font-size="28.0" fill="#5B5753" transform="matrix(1.00, 0.00, -0.00, -1.00, 487.1, 548.0)">t</text><text xml:space="preserve" font-family="Avenir-Medium" font-size="28.0" fill="#5B5753" transform="matrix(1.00, 0.00, -0.00, -1.00, 498.0, 548.0)"> </text><text xml:space="preserve" font-family="Avenir-Medium" font-size="28.0" fill="#5B5753" transform="matrix(1.00, 0.00, -0.00, -1.00, 506.3, 548.0)">i</text><text xml:space="preserve" font-family="Avenir-Medium" font-size="28.0" fill="#5B5753" transform="matrix(1.00, 0.00, -0.00, -1.00, 513.6, 548.0)">m</text><text xml:space="preserve" font-family="Avenir-Medium" font-size="28.0" fill="#5B5753" transform="matrix(1.00, 0.00, -0.00, -1.00, 538.0, 548.0)">p</text><text xml:space="preserve" font-family="Avenir-Medium" font-size="28.0" fill="#5B5753" transform="matrix(1.00, 0.00, -0.00, -1.00, 555.7, 548.0)">r</text><text xml:space="preserve" font-family="Avenir-Medium" font-size="28.0" fill="#5B5753" transform="matrix(1.00, 0.00, -0.00, -1.00, 566.1, 548.0)">o</text><text xml:space="preserve" font-family="Avenir-Medium" font-size="28.0" fill="#5B5753" transform="matrix(1.00, 0.00, -0.00, -1.00, 583.3, 548.0)">v</text><text xml:space="preserve" font-family="Avenir-Medium" font-size="28.0" fill="#5B5753" transform="matrix(1.00, 0.00, -0.00, -1.00, 597.9, 548.0)">e</text><text xml:space="preserve" font-family="Avenir-Medium" font-size="28.0" fill="#5B5753" transform="matrix(1.00, 0.00, -0.00, -1.00, 614.0, 548.0)">m</text><text xml:space="preserve" font-family="Avenir-Medium" font-size="28.0" fill="#5B5753" transform="matrix(1.00, 0.00, -0.00, -1.00, 638.4, 548.0)">e</text><text xml:space="preserve" font-family="Avenir-Medium" font-size="28.0" fill="#5B5753" transform="matrix(1.00, 0.00, -0.00, -1.00, 654.5, 548.0)">n</text><text xml:space="preserve" font-family="Avenir-Medium" font-size="28.0" fill="#5B5753" transform="matrix(1.00, 0.00, -0.00, -1.00, 670.7, 548.0)">t</text><text xml:space="preserve" font-family="Avenir-Medium" font-size="28.0" fill="#5B5753" transform="matrix(1.00, 0.00, -0.00, -1.00, 681.6, 548.0)">s</text><text xml:space="preserve" font-family="Avenir-Medium" font-size="28.0" fill="#5B5753" transform="matrix(1.00, 0.00, -0.00, -1.00, 694.6, 548.0)"> </text><text xml:space="preserve" font-family="Avenir-Medium" font-size="28.0" fill="#5B5753" transform="matrix(1.00, 0.00, -0.00, -1.00, 702.9, 548.0)">i</text><text xml:space="preserve" font-family="Avenir-Medium" font-size="28.0" fill="#5B5753" transform="matrix(1.00, 0.00, -0.00, -1.00, 710.2, 548.0)">n</text><text xml:space="preserve" font-family="Avenir-Medium" font-size="28.0" fill="#5B5753" transform="matrix(1.00, 0.00, -0.00, -1.00, 726.3, 548.0)"> </text><text xml:space="preserve" font-family="Avenir-Medium" font-size="28.0" fill="#5B5753" transform="matrix(1.00, 0.00, -0.00, -1.00, 734.7, 548.0)">e</text><text xml:space="preserve" font-family="Avenir-Medium" font-size="28.0" fill="#5B5753" transform="matrix(1.00, 0.00, -0.00, -1.00, 750.8, 548.0)">n</text><text xml:space="preserve" font-family="Avenir-Medium" font-size="28.0" fill="#5B5753" transform="matrix(1.00, 0.00, -0.00, -1.00, 766.9, 548.0)">j</text><text xml:space="preserve" font-family="Avenir-Medium" font-size="28.0" fill="#5B5753" transform="matrix(1.00, 0.00, -0.00, -1.00, 774.2, 548.0)">o</text><text xml:space="preserve" font-family="Avenir-Medium" font-size="28.0" fill="#5B5753" transform="matrix(1.00, 0.00, -0.00, -1.00, 791.4, 548.0)">y</text><text xml:space="preserve" font-family="Avenir-Medium" font-size="28.0" fill="#5B5753" transform="matrix(1.00, 0.00, -0.00, -1.00, 806.0, 548.0)">m</text><text xml:space="preserve" font-family="Avenir-Medium" font-size="28.0" fill="#5B5753" transform="matrix(1.00, 0.00, -0.00, -1.00, 830.4, 548.0)">e</text><text xml:space="preserve" font-family="Avenir-Medium" font-size="28.0" fill="#5B5753" transform="matrix(1.00, 0.00, -0.00, -1.00, 846.5, 548.0)">n</text><text xml:space="preserve" font-family="Avenir-Medium" font-size="28.0" fill="#5B5753" transform="matrix(1.00, 0.00, -0.00, -1.00, 862.6, 548.0)">t</text><text xml:space="preserve" font-family="Avenir-Medium" font-size="28.0" fill="#5B5753" transform="matrix(1.00, 0.00, -0.00, -1.00, 873.5, 548.0)"> </text><text xml:space="preserve" font-family="Avenir-Medium" font-size="28.0" fill="#5B5753" transform="matrix(1.00, 0.00, -0.00, -1.00, 881.9, 548.0)">(</text><text xml:space="preserve" font-family="Avenir-Medium" font-size="28.0" fill="#5B5753" transform="matrix(1.00, 0.00, -0.00, -1.00, 890.2, 548.0)">5</text><text xml:space="preserve" font-family="Avenir-Medium" font-size="28.0" fill="#5B5753" transform="matrix(1.00, 0.00, -0.00, -1.00, 906.4, 548.0)">3</text><text xml:space="preserve" font-family="Avenir-Medium" font-size="28.0" fill="#5B5753" transform="matrix(1.00, 0.00, -0.00, -1.00, 922.5, 548.0)">%</text><text xml:space="preserve" font-family="Avenir-Medium" font-size="28.0" fill="#5B5753" transform="matrix(1.00, 0.00, -0.00, -1.00, 946.9, 548.0)">)</text><text xml:space="preserve" font-family="Avenir-Medium" font-size="28.0" fill="#5B5753" transform="matrix(1.00, 0.00, -0.00, -1.00, 955.3, 548.0)">,</text><text xml:space="preserve" font-family="Avenir-Medium" font-size="28.0" fill="#5B5753" transform="matrix(1.00, 0.00, -0.00, -1.00, 963.6, 548.0)"> </text><text xml:space="preserve" font-family="Avenir-Medium" font-size="28.0" fill="#5B5753" transform="matrix(1.00, 0.00, -0.00, -1.00, 87.0, 510.0)">f</text><text xml:space="preserve" font-family="Avenir-Medium" font-size="28.0" fill="#5B5753" transform="matrix(1.00, 0.00, -0.00, -1.00, 96.9, 510.0)">l</text><text xml:space="preserve" font-family="Avenir-Medium" font-size="28.0" fill="#5B5753" transform="matrix(1.00, 0.00, -0.00, -1.00, 104.2, 510.0)">o</text><text xml:space="preserve" font-family="Avenir-Medium" font-size="28.0" fill="#5B5753" transform="matrix(1.00, 0.00, -0.00, -1.00, 121.4, 510.0)">w</text><text xml:space="preserve" font-family="Avenir-Medium" font-size="28.0" fill="#5B5753" transform="matrix(1.00, 0.00, -0.00, -1.00, 143.2, 510.0)"> </text><text xml:space="preserve" font-family="Avenir-Medium" font-size="28.0" fill="#5B5753" transform="matrix(1.00, 0.00, -0.00, -1.00, 151.5, 510.0)">(</text><text xml:space="preserve" font-family="Avenir-Medium" font-size="28.0" fill="#5B5753" transform="matrix(1.00, 0.00, -0.00, -1.00, 159.9, 510.0)">3</text><text xml:space="preserve" font-family="Avenir-Medium" font-size="28.0" fill="#5B5753" transform="matrix(1.00, 0.00, -0.00, -1.00, 176.0, 510.0)">0</text><text xml:space="preserve" font-family="Avenir-Medium" font-size="28.0" fill="#5B5753" transform="matrix(1.00, 0.00, -0.00, -1.00, 192.1, 510.0)">%</text><text xml:space="preserve" font-family="Avenir-Medium" font-size="28.0" fill="#5B5753" transform="matrix(1.00, 0.00, -0.00, -1.00, 216.5, 510.0)">)</text><text xml:space="preserve" font-family="Avenir-Medium" font-size="28.0" fill="#5B5753" transform="matrix(1.00, 0.00, -0.00, -1.00, 224.9, 510.0)"> </text><text xml:space="preserve" font-family="Avenir-Medium" font-size="28.0" fill="#5B5753" transform="matrix(1.00, 0.00, -0.00, -1.00, 233.2, 510.0)">a</text><text xml:space="preserve" font-family="Avenir-Medium" font-size="28.0" fill="#5B5753" transform="matrix(1.00, 0.00, -0.00, -1.00, 248.3, 510.0)">n</text><text xml:space="preserve" font-family="Avenir-Medium" font-size="28.0" fill="#5B5753" transform="matrix(1.00, 0.00, -0.00, -1.00, 264.4, 510.0)">d</text><text xml:space="preserve" font-family="Avenir-Medium" font-size="28.0" fill="#5B5753" transform="matrix(1.00, 0.00, -0.00, -1.00, 282.1, 510.0)"> </text><text xml:space="preserve" font-family="Avenir-Medium" font-size="28.0" fill="#5B5753" transform="matrix(1.00, 0.00, -0.00, -1.00, 290.4, 510.0)">p</text><text xml:space="preserve" font-family="Avenir-Medium" font-size="28.0" fill="#5B5753" transform="matrix(1.00, 0.00, -0.00, -1.00, 308.1, 510.0)">e</text><text xml:space="preserve" font-family="Avenir-Medium" font-size="28.0" fill="#5B5753" transform="matrix(1.00, 0.00, -0.00, -1.00, 324.2, 510.0)">r</text><text xml:space="preserve" font-family="Avenir-Medium" font-size="28.0" fill="#5B5753" transform="matrix(1.00, 0.00, -0.00, -1.00, 334.7, 510.0)">c</text><text xml:space="preserve" font-family="Avenir-Medium" font-size="28.0" fill="#5B5753" transform="matrix(1.00, 0.00, -0.00, -1.00, 348.7, 510.0)">e</text><text xml:space="preserve" font-family="Avenir-Medium" font-size="28.0" fill="#5B5753" transform="matrix(1.00, 0.00, -0.00, -1.00, 364.8, 510.0)">i</text><text xml:space="preserve" font-family="Avenir-Medium" font-size="28.0" fill="#5B5753" transform="matrix(1.00, 0.00, -0.00, -1.00, 372.1, 510.0)">v</text><text xml:space="preserve" font-family="Avenir-Medium" font-size="28.0" fill="#5B5753" transform="matrix(1.00, 0.00, -0.00, -1.00, 386.7, 510.0)">e</text><text xml:space="preserve" font-family="Avenir-Medium" font-size="28.0" fill="#5B5753" transform="matrix(1.00, 0.00, -0.00, -1.00, 402.8, 510.0)">d</text><text xml:space="preserve" font-family="Avenir-Medium" font-size="28.0" fill="#5B5753" transform="matrix(1.00, 0.00, -0.00, -1.00, 420.5, 510.0)"> </text><text xml:space="preserve" font-family="Avenir-Medium" font-size="28.0" fill="#5B5753" transform="matrix(1.00, 0.00, -0.00, -1.00, 428.8, 510.0)">e</text><text xml:space="preserve" font-family="Avenir-Medium" font-size="28.0" fill="#5B5753" transform="matrix(1.00, 0.00, -0.00, -1.00, 445.0, 510.0)">a</text><text xml:space="preserve" font-family="Avenir-Medium" font-size="28.0" fill="#5B5753" transform="matrix(1.00, 0.00, -0.00, -1.00, 460.0, 510.0)">s</text><text xml:space="preserve" font-family="Avenir-Medium" font-size="28.0" fill="#5B5753" transform="matrix(1.00, 0.00, -0.00, -1.00, 473.0, 510.0)">e</text><text xml:space="preserve" font-family="Avenir-Medium" font-size="28.0" fill="#5B5753" transform="matrix(1.00, 0.00, -0.00, -1.00, 489.2, 510.0)"> </text><text xml:space="preserve" font-family="Avenir-Medium" font-size="28.0" fill="#5B5753" transform="matrix(1.00, 0.00, -0.00, -1.00, 497.5, 510.0)">o</text><text xml:space="preserve" font-family="Avenir-Medium" font-size="28.0" fill="#5B5753" transform="matrix(1.00, 0.00, -0.00, -1.00, 514.7, 510.0)">f</text><text xml:space="preserve" font-family="Avenir-Medium" font-size="28.0" fill="#5B5753" transform="matrix(1.00, 0.00, -0.00, -1.00, 524.6, 510.0)"> </text><text xml:space="preserve" font-family="Avenir-Medium" font-size="28.0" fill="#5B5753" transform="matrix(1.00, 0.00, -0.00, -1.00, 532.9, 510.0)">u</text><text xml:space="preserve" font-family="Avenir-Medium" font-size="28.0" fill="#5B5753" transform="matrix(1.00, 0.00, -0.00, -1.00, 549.1, 510.0)">s</text><text xml:space="preserve" font-family="Avenir-Medium" font-size="28.0" fill="#5B5753" transform="matrix(1.00, 0.00, -0.00, -1.00, 562.0, 510.0)">e</text><text xml:space="preserve" font-family="Avenir-Medium" font-size="28.0" fill="#5B5753" transform="matrix(1.00, 0.00, -0.00, -1.00, 578.2, 510.0)"> </text><text xml:space="preserve" font-family="Avenir-Medium" font-size="28.0" fill="#5B5753" transform="matrix(1.00, 0.00, -0.00, -1.00, 586.5, 510.0)">(</text><text xml:space="preserve" font-family="Avenir-Medium" font-size="28.0" fill="#5B5753" transform="matrix(1.00, 0.00, -0.00, -1.00, 594.9, 510.0)">3</text><text xml:space="preserve" font-family="Avenir-Medium" font-size="28.0" fill="#5B5753" transform="matrix(1.00, 0.00, -0.00, -1.00, 611.0, 510.0)">6</text><text xml:space="preserve" font-family="Avenir-Medium" font-size="28.0" fill="#5B5753" transform="matrix(1.00, 0.00, -0.00, -1.00, 627.1, 510.0)">%</text><text xml:space="preserve" font-family="Avenir-Medium" font-size="28.0" fill="#5B5753" transform="matrix(1.00, 0.00, -0.00, -1.00, 651.5, 510.0)">)</text><text xml:space="preserve" font-family="Avenir-Medium" font-size="28.0" fill="#5B5753" transform="matrix(1.00, 0.00, -0.00, -1.00, 659.9, 510.0)">.</text><text xml:space="preserve" font-family="Avenir-Medium" font-size="28.0" fill="#5B5753" transform="matrix(1.00, 0.00, -0.00, -1.00, 668.2, 510.0)"> </text><text xml:space="preserve" font-family="Avenir-Medium" font-size="21.0" fill="#9A958D" transform="matrix(1.00, 0.00, -0.00, -1.00, 57.0, 440.2)">•</text><text xml:space="preserve" font-family="Avenir-Medium" font-size="28.0" fill="#5B5753" transform="matrix(1.00, 0.00, -0.00, -1.00, 87.0, 438.0)">I</text><text xml:space="preserve" font-family="Avenir-Medium" font-size="28.0" fill="#5B5753" transform="matrix(1.00, 0.00, -0.00, -1.00, 95.3, 438.0)">t</text><text xml:space="preserve" font-family="Avenir-Medium" font-size="28.0" fill="#5B5753" transform="matrix(1.00, 0.00, -0.00, -1.00, 106.3, 438.0)"> </text><text xml:space="preserve" font-family="Avenir-Medium" font-size="28.0" fill="#5B5753" transform="matrix(1.00, 0.00, -0.00, -1.00, 114.6, 438.0)">d</text><text xml:space="preserve" font-family="Avenir-Medium" font-size="28.0" fill="#5B5753" transform="matrix(1.00, 0.00, -0.00, -1.00, 132.3, 438.0)">i</text><text xml:space="preserve" font-family="Avenir-Medium" font-size="28.0" fill="#5B5753" transform="matrix(1.00, 0.00, -0.00, -1.00, 139.6, 438.0)">d</text><text xml:space="preserve" font-family="Avenir-Medium" font-size="28.0" fill="#5B5753" transform="matrix(1.00, 0.00, -0.00, -1.00, 157.2, 438.0)"> </text><text xml:space="preserve" font-family="Avenir-Medium" font-size="28.0" fill="#5B5753" transform="matrix(1.00, 0.00, -0.00, -1.00, 165.6, 438.0)">h</text><text xml:space="preserve" font-family="Avenir-Medium" font-size="28.0" fill="#5B5753" transform="matrix(1.00, 0.00, -0.00, -1.00, 181.7, 438.0)">o</text><text xml:space="preserve" font-family="Avenir-Medium" font-size="28.0" fill="#5B5753" transform="matrix(1.00, 0.00, -0.00, -1.00, 198.9, 438.0)">w</text><text xml:space="preserve" font-family="Avenir-Medium" font-size="28.0" fill="#5B5753" transform="matrix(1.00, 0.00, -0.00, -1.00, 220.7, 438.0)">e</text><text xml:space="preserve" font-family="Avenir-Medium" font-size="28.0" fill="#5B5753" transform="matrix(1.00, 0.00, -0.00, -1.00, 236.8, 438.0)">v</text><text xml:space="preserve" font-family="Avenir-Medium" font-size="28.0" fill="#5B5753" transform="matrix(1.00, 0.00, -0.00, -1.00, 251.4, 438.0)">e</text><text xml:space="preserve" font-family="Avenir-Medium" font-size="28.0" fill="#5B5753" transform="matrix(1.00, 0.00, -0.00, -1.00, 267.5, 438.0)">r</text><text xml:space="preserve" font-family="Avenir-Medium" font-size="28.0" fill="#5B5753" transform="matrix(1.00, 0.00, -0.00, -1.00, 278.4, 438.0)"> </text><text xml:space="preserve" font-family="Avenir-Medium" font-size="28.0" fill="#5B5753" transform="matrix(1.00, 0.00, -0.00, -1.00, 286.8, 438.0)">a</text><text xml:space="preserve" font-family="Avenir-Medium" font-size="28.0" fill="#5B5753" transform="matrix(1.00, 0.00, -0.00, -1.00, 301.9, 438.0)">l</text><text xml:space="preserve" font-family="Avenir-Medium" font-size="28.0" fill="#5B5753" transform="matrix(1.00, 0.00, -0.00, -1.00, 309.2, 438.0)">s</text><text xml:space="preserve" font-family="Avenir-Medium" font-size="28.0" fill="#5B5753" transform="matrix(1.00, 0.00, -0.00, -1.00, 322.1, 438.0)">o</text><text xml:space="preserve" font-family="Avenir-Medium" font-size="28.0" fill="#5B5753" transform="matrix(1.00, 0.00, -0.00, -1.00, 339.3, 438.0)"> </text><text xml:space="preserve" font-family="Avenir-Medium" font-size="28.0" fill="#5B5753" transform="matrix(1.00, 0.00, -0.00, -1.00, 347.7, 438.0)">d</text><text xml:space="preserve" font-family="Avenir-Medium" font-size="28.0" fill="#5B5753" transform="matrix(1.00, 0.00, -0.00, -1.00, 365.3, 438.0)">e</text><text xml:space="preserve" font-family="Avenir-Medium" font-size="28.0" fill="#5B5753" transform="matrix(1.00, 0.00, -0.00, -1.00, 381.5, 438.0)">c</text><text xml:space="preserve" font-family="Avenir-Medium" font-size="28.0" fill="#5B5753" transform="matrix(1.00, 0.00, -0.00, -1.00, 395.5, 438.0)">r</text><text xml:space="preserve" font-family="Avenir-Medium" font-size="28.0" fill="#5B5753" transform="matrix(1.00, 0.00, -0.00, -1.00, 405.9, 438.0)">e</text><text xml:space="preserve" font-family="Avenir-Medium" font-size="28.0" fill="#5B5753" transform="matrix(1.00, 0.00, -0.00, -1.00, 422.1, 438.0)">a</text><text xml:space="preserve" font-family="Avenir-Medium" font-size="28.0" fill="#5B5753" transform="matrix(1.00, 0.00, -0.00, -1.00, 437.2, 438.0)">s</text><text xml:space="preserve" font-family="Avenir-Medium" font-size="28.0" fill="#5B5753" transform="matrix(1.00, 0.00, -0.00, -1.00, 450.2, 438.0)">e</text><text xml:space="preserve" font-family="Avenir-Medium" font-size="28.0" fill="#5B5753" transform="matrix(1.00, 0.00, -0.00, -1.00, 466.3, 438.0)"> </text><text xml:space="preserve" font-family="Avenir-Medium" font-size="28.0" fill="#5B5753" transform="matrix(1.00, 0.00, -0.00, -1.00, 474.6, 438.0)">p</text><text xml:space="preserve" font-family="Avenir-Medium" font-size="28.0" fill="#5B5753" transform="matrix(1.00, 0.00, -0.00, -1.00, 492.3, 438.0)">e</text><text xml:space="preserve" font-family="Avenir-Medium" font-size="28.0" fill="#5B5753" transform="matrix(1.00, 0.00, -0.00, -1.00, 508.4, 438.0)">r</text><text xml:space="preserve" font-family="Avenir-Medium" font-size="28.0" fill="#5B5753" transform="matrix(1.00, 0.00, -0.00, -1.00, 518.8, 438.0)">c</text><text xml:space="preserve" font-family="Avenir-Medium" font-size="28.0" fill="#5B5753" transform="matrix(1.00, 0.00, -0.00, -1.00, 532.9, 438.0)">e</text><text xml:space="preserve" font-family="Avenir-Medium" font-size="28.0" fill="#5B5753" transform="matrix(1.00, 0.00, -0.00, -1.00, 549.0, 438.0)">i</text><text xml:space="preserve" font-family="Avenir-Medium" font-size="28.0" fill="#5B5753" transform="matrix(1.00, 0.00, -0.00, -1.00, 556.3, 438.0)">v</text><text xml:space="preserve" font-family="Avenir-Medium" font-size="28.0" fill="#5B5753" transform="matrix(1.00, 0.00, -0.00, -1.00, 570.9, 438.0)">e</text><text xml:space="preserve" font-family="Avenir-Medium" font-size="28.0" fill="#5B5753" transform="matrix(1.00, 0.00, -0.00, -1.00, 587.0, 438.0)">d</text><text xml:space="preserve" font-family="Avenir-Medium" font-size="28.0" fill="#5B5753" transform="matrix(1.00, 0.00, -0.00, -1.00, 604.7, 438.0)"> </text><text xml:space="preserve" font-family="Avenir-Medium" font-size="28.0" fill="#5B5753" transform="matrix(1.00, 0.00, -0.00, -1.00, 613.0, 438.0)">u</text><text xml:space="preserve" font-family="Avenir-Medium" font-size="28.0" fill="#5B5753" transform="matrix(1.00, 0.00, -0.00, -1.00, 629.1, 438.0)">s</text><text xml:space="preserve" font-family="Avenir-Medium" font-size="28.0" fill="#5B5753" transform="matrix(1.00, 0.00, -0.00, -1.00, 642.1, 438.0)">e</text><text xml:space="preserve" font-family="Avenir-Medium" font-size="28.0" fill="#5B5753" transform="matrix(1.00, 0.00, -0.00, -1.00, 658.3, 438.0)">f</text><text xml:space="preserve" font-family="Avenir-Medium" font-size="28.0" fill="#5B5753" transform="matrix(1.00, 0.00, -0.00, -1.00, 668.1, 438.0)">u</text><text xml:space="preserve" font-family="Avenir-Medium" font-size="28.0" fill="#5B5753" transform="matrix(1.00, 0.00, -0.00, -1.00, 684.3, 438.0)">l</text><text xml:space="preserve" font-family="Avenir-Medium" font-size="28.0" fill="#5B5753" transform="matrix(1.00, 0.00, -0.00, -1.00, 691.5, 438.0)">n</text><text xml:space="preserve" font-family="Avenir-Medium" font-size="28.0" fill="#5B5753" transform="matrix(1.00, 0.00, -0.00, -1.00, 707.7, 438.0)">e</text><text xml:space="preserve" font-family="Avenir-Medium" font-size="28.0" fill="#5B5753" transform="matrix(1.00, 0.00, -0.00, -1.00, 723.8, 438.0)">s</text><text xml:space="preserve" font-family="Avenir-Medium" font-size="28.0" fill="#5B5753" transform="matrix(1.00, 0.00, -0.00, -1.00, 736.8, 438.0)">s</text><text xml:space="preserve" font-family="Avenir-Medium" font-size="28.0" fill="#5B5753" transform="matrix(1.00, 0.00, -0.00, -1.00, 749.8, 438.0)"> </text><text xml:space="preserve" font-family="Avenir-Medium" font-size="28.0" fill="#5B5753" transform="matrix(1.00, 0.00, -0.00, -1.00, 758.1, 438.0)">b</text><text xml:space="preserve" font-family="Avenir-Medium" font-size="28.0" fill="#5B5753" transform="matrix(1.00, 0.00, -0.00, -1.00, 775.8, 438.0)">y</text><text xml:space="preserve" font-family="Avenir-Medium" font-size="28.0" fill="#5B5753" transform="matrix(1.00, 0.00, -0.00, -1.00, 790.4, 438.0)"> </text><text xml:space="preserve" font-family="Avenir-Medium" font-size="28.0" fill="#5B5753" transform="matrix(1.00, 0.00, -0.00, -1.00, 798.7, 438.0)">3</text><text xml:space="preserve" font-family="Avenir-Medium" font-size="28.0" fill="#5B5753" transform="matrix(1.00, 0.00, -0.00, -1.00, 814.8, 438.0)">%</text><text xml:space="preserve" font-family="Avenir-Medium" font-size="28.0" fill="#5B5753" transform="matrix(1.00, 0.00, -0.00, -1.00, 839.2, 438.0)">.</text></g></svg>