<?xml version="1.0" encoding="UTF-8" standalone="no"?><svg xmlns="http://www.w3.org/2000/svg" xmlns:xlink="http://www.w3.org/1999/xlink" clip-rule="evenodd" stroke-miterlimit="4.00" viewBox="0 0 1024 768"><desc>SVG generated by Keynote</desc><defs></defs><g transform="matrix(1.00, 0.00, -0.00, -1.00, 0.0, 768.0)"><g><clipPath id="clip-19"><path d="M 0.0 768.0 L 1024.0 768.0 L 1024.0 0.0 L 0.0 0.0 Z M 0.0 768.0 "></path></clipPath><g clip-path="url(#clip-19)"><image xlink:href="../../7F7A4433-E76C-486C-A6DD-235F8769393F/assets/AC8A38799F83CDE46BAD7F0B4FE74D5F.jpeg" width="1024.00" height="768.00" transform="matrix(1.00, 0.00, -0.00, -1.00, 0.0, 768.0)"></image></g></g><text xml:space="preserve" font-family="Avenir-MediumOblique" font-style="italic" font-size="26.0" fill="#AB6153" transform="matrix(1.00, 0.00, -0.00, -1.00, 352.0, 227.0)">—</text><text xml:space="preserve" font-family="Avenir-MediumOblique" font-style="italic" font-size="26.0" fill="#AB6153" transform="matrix(1.00, 0.00, -0.00, -1.00, 378.5, 227.0)"> </text><text xml:space="preserve" font-family="Avenir-MediumOblique" font-style="italic" font-size="26.0" fill="#AB6153" transform="matrix(1.00, 0.00, -0.00, -1.00, 386.3, 227.0)">(</text><text xml:space="preserve" font-family="Avenir-MediumOblique" font-style="italic" font-size="26.0" fill="#AB6153" transform="matrix(1.00, 0.00, -0.00, -1.00, 394.0, 227.0)">H</text><text xml:space="preserve" font-family="Avenir-MediumOblique" font-style="italic" font-size="26.0" fill="#AB6153" transform="matrix(1.00, 0.00, -0.00, -1.00, 413.8, 227.0)">u</text><text xml:space="preserve" font-family="Avenir-MediumOblique" font-style="italic" font-size="26.0" fill="#AB6153" transform="matrix(1.00, 0.00, -0.00, -1.00, 428.8, 227.0)">o</text><text xml:space="preserve" font-family="Avenir-MediumOblique" font-style="italic" font-size="26.0" fill="#AB6153" transform="matrix(1.00, 0.00, -0.00, -1.00, 444.7, 227.0)">t</text><text xml:space="preserve" font-family="Avenir-MediumOblique" font-style="italic" font-size="26.0" fill="#AB6153" transform="matrix(1.00, 0.00, -0.00, -1.00, 454.9, 227.0)">a</text><text xml:space="preserve" font-family="Avenir-MediumOblique" font-style="italic" font-size="26.0" fill="#AB6153" transform="matrix(1.00, 0.00, -0.00, -1.00, 468.9, 227.0)">r</text><text xml:space="preserve" font-family="Avenir-MediumOblique" font-style="italic" font-size="26.0" fill="#AB6153" transform="matrix(1.00, 0.00, -0.00, -1.00, 479.0, 227.0)">i</text><text xml:space="preserve" font-family="Avenir-MediumOblique" font-style="italic" font-size="26.0" fill="#AB6153" transform="matrix(1.00, 0.00, -0.00, -1.00, 485.8, 227.0)">,</text><text xml:space="preserve" font-family="Avenir-MediumOblique" font-style="italic" font-size="26.0" fill="#AB6153" transform="matrix(1.00, 0.00, -0.00, -1.00, 493.5, 227.0)"> </text><text xml:space="preserve" font-family="Avenir-MediumOblique" font-style="italic" font-size="26.0" fill="#AB6153" transform="matrix(1.00, 0.00, -0.00, -1.00, 501.3, 227.0)">H</text><text xml:space="preserve" font-family="Avenir-MediumOblique" font-style="italic" font-size="26.0" fill="#AB6153" transform="matrix(1.00, 0.00, -0.00, -1.00, 521.1, 227.0)">a</text><text xml:space="preserve" font-family="Avenir-MediumOblique" font-style="italic" font-size="26.0" fill="#AB6153" transform="matrix(1.00, 0.00, -0.00, -1.00, 535.1, 227.0)">m</text><text xml:space="preserve" font-family="Avenir-MediumOblique" font-style="italic" font-size="26.0" fill="#AB6153" transform="matrix(1.00, 0.00, -0.00, -1.00, 557.8, 227.0)">a</text><text xml:space="preserve" font-family="Avenir-MediumOblique" font-style="italic" font-size="26.0" fill="#AB6153" transform="matrix(1.00, 0.00, -0.00, -1.00, 571.8, 227.0)">r</text><text xml:space="preserve" font-family="Avenir-MediumOblique" font-style="italic" font-size="26.0" fill="#AB6153" transform="matrix(1.00, 0.00, -0.00, -1.00, 581.9, 227.0)">i</text><text xml:space="preserve" font-family="Avenir-MediumOblique" font-style="italic" font-size="26.0" fill="#AB6153" transform="matrix(1.00, 0.00, -0.00, -1.00, 588.7, 227.0)">,</text><text xml:space="preserve" font-family="Avenir-MediumOblique" font-style="italic" font-size="26.0" fill="#AB6153" transform="matrix(1.00, 0.00, -0.00, -1.00, 596.4, 227.0)"> </text><text xml:space="preserve" font-family="Avenir-MediumOblique" font-style="italic" font-size="26.0" fill="#AB6153" transform="matrix(1.00, 0.00, -0.00, -1.00, 604.2, 227.0)">2</text><text xml:space="preserve" font-family="Avenir-MediumOblique" font-style="italic" font-size="26.0" fill="#AB6153" transform="matrix(1.00, 0.00, -0.00, -1.00, 619.1, 227.0)">0</text><text xml:space="preserve" font-family="Avenir-MediumOblique" font-style="italic" font-size="26.0" fill="#AB6153" transform="matrix(1.00, 0.00, -0.00, -1.00, 634.1, 227.0)">1</text><text xml:space="preserve" font-family="Avenir-MediumOblique" font-style="italic" font-size="26.0" fill="#AB6153" transform="matrix(1.00, 0.00, -0.00, -1.00, 649.1, 227.0)">6</text><text xml:space="preserve" font-family="Avenir-MediumOblique" font-style="italic" font-size="26.0" fill="#AB6153" transform="matrix(1.00, 0.00, -0.00, -1.00, 664.1, 227.0)">)</text><text xml:space="preserve" font-family="Futura-Medium" font-size="47.0" fill="#5B5753" transform="matrix(1.00, 0.00, -0.00, -1.00, 224.0, 480.0)">G</text><text xml:space="preserve" font-family="Futura-Medium" font-size="47.0" fill="#5B5753" transform="matrix(1.00, 0.00, -0.00, -1.00, 265.8, 480.0)">A</text><text xml:space="preserve" font-family="Futura-Medium" font-size="47.0" fill="#5B5753" transform="matrix(1.00, 0.00, -0.00, -1.00, 304.3, 480.0)">M</text><text xml:space="preserve" font-family="Futura-Medium" font-size="47.0" fill="#5B5753" transform="matrix(1.00, 0.00, -0.00, -1.00, 353.3, 480.0)">I</text><text xml:space="preserve" font-family="Futura-Medium" font-size="47.0" fill="#5B5753" transform="matrix(1.00, 0.00, -0.00, -1.00, 370.9, 480.0)">F</text><text xml:space="preserve" font-family="Futura-Medium" font-size="47.0" fill="#5B5753" transform="matrix(1.00, 0.00, -0.00, -1.00, 398.6, 480.0)">I</text><text xml:space="preserve" font-family="Futura-Medium" font-size="47.0" fill="#5B5753" transform="matrix(1.00, 0.00, -0.00, -1.00, 416.2, 480.0)">C</text><text xml:space="preserve" font-family="Futura-Medium" font-size="47.0" fill="#5B5753" transform="matrix(1.00, 0.00, -0.00, -1.00, 453.7, 480.0)">A</text><text xml:space="preserve" font-family="Futura-Medium" font-size="47.0" fill="#5B5753" transform="matrix(1.00, 0.00, -0.00, -1.00, 490.3, 480.0)">T</text><text xml:space="preserve" font-family="Futura-Medium" font-size="47.0" fill="#5B5753" transform="matrix(1.00, 0.00, -0.00, -1.00, 516.8, 480.0)">I</text><text xml:space="preserve" font-family="Futura-Medium" font-size="47.0" fill="#5B5753" transform="matrix(1.00, 0.00, -0.00, -1.00, 534.4, 480.0)">O</text><text xml:space="preserve" font-family="Futura-Medium" font-size="47.0" fill="#5B5753" transform="matrix(1.00, 0.00, -0.00, -1.00, 580.1, 480.0)">N</text><text xml:space="preserve" font-family="Futura-Medium" font-size="47.0" fill="#5B5753" transform="matrix(1.00, 0.00, -0.00, -1.00, 623.6, 480.0)"> </text><text xml:space="preserve" font-family="Futura-Medium" font-size="47.0" fill="#5B5753" transform="matrix(1.00, 0.00, -0.00, -1.00, 641.8, 480.0)">I</text><text xml:space="preserve" font-family="Futura-Medium" font-size="47.0" fill="#5B5753" transform="matrix(1.00, 0.00, -0.00, -1.00, 659.4, 480.0)">S</text><text xml:space="preserve" font-family="Futura-Medium" font-size="47.0" fill="#5B5753" transform="matrix(1.00, 0.00, -0.00, -1.00, 690.6, 480.0)"> </text><text xml:space="preserve" font-family="Futura-Medium" font-size="47.0" fill="#5B5753" transform="matrix(1.00, 0.00, -0.00, -1.00, 708.8, 480.0)">T</text><text xml:space="preserve" font-family="Futura-Medium" font-size="47.0" fill="#5B5753" transform="matrix(1.00, 0.00, -0.00, -1.00, 735.2, 480.0)">H</text><text xml:space="preserve" font-family="Futura-Medium" font-size="47.0" fill="#5B5753" transform="matrix(1.00, 0.00, -0.00, -1.00, 773.5, 480.0)">E</text><text xml:space="preserve" font-family="Futura-Medium" font-size="47.0" fill="#5B5753" transform="matrix(1.00, 0.00, -0.00, -1.00, 803.8, 480.0)"> </text><text xml:space="preserve" font-family="Futura-Medium" font-size="47.0" fill="#5B5753" transform="matrix(1.00, 0.00, -0.00, -1.00, 97.0, 418.0)">A</text><text xml:space="preserve" font-family="Futura-Medium" font-size="47.0" fill="#5B5753" transform="matrix(1.00, 0.00, -0.00, -1.00, 135.6, 418.0)">P</text><text xml:space="preserve" font-family="Futura-Medium" font-size="47.0" fill="#5B5753" transform="matrix(1.00, 0.00, -0.00, -1.00, 164.7, 418.0)">P</text><text xml:space="preserve" font-family="Futura-Medium" font-size="47.0" fill="#5B5753" transform="matrix(1.00, 0.00, -0.00, -1.00, 193.8, 418.0)">L</text><text xml:space="preserve" font-family="Futura-Medium" font-size="47.0" fill="#5B5753" transform="matrix(1.00, 0.00, -0.00, -1.00, 218.4, 418.0)">I</text><text xml:space="preserve" font-family="Futura-Medium" font-size="47.0" fill="#5B5753" transform="matrix(1.00, 0.00, -0.00, -1.00, 236.1, 418.0)">C</text><text xml:space="preserve" font-family="Futura-Medium" font-size="47.0" fill="#5B5753" transform="matrix(1.00, 0.00, -0.00, -1.00, 273.6, 418.0)">A</text><text xml:space="preserve" font-family="Futura-Medium" font-size="47.0" fill="#5B5753" transform="matrix(1.00, 0.00, -0.00, -1.00, 310.2, 418.0)">T</text><text xml:space="preserve" font-family="Futura-Medium" font-size="47.0" fill="#5B5753" transform="matrix(1.00, 0.00, -0.00, -1.00, 336.6, 418.0)">I</text><text xml:space="preserve" font-family="Futura-Medium" font-size="47.0" fill="#5B5753" transform="matrix(1.00, 0.00, -0.00, -1.00, 354.2, 418.0)">O</text><text xml:space="preserve" font-family="Futura-Medium" font-size="47.0" fill="#5B5753" transform="matrix(1.00, 0.00, -0.00, -1.00, 400.0, 418.0)">N</text><text xml:space="preserve" font-family="Futura-Medium" font-size="47.0" fill="#5B5753" transform="matrix(1.00, 0.00, -0.00, -1.00, 443.5, 418.0)"> </text><text xml:space="preserve" font-family="Futura-Medium" font-size="47.0" fill="#5B5753" transform="matrix(1.00, 0.00, -0.00, -1.00, 461.7, 418.0)">O</text><text xml:space="preserve" font-family="Futura-Medium" font-size="47.0" fill="#5B5753" transform="matrix(1.00, 0.00, -0.00, -1.00, 507.4, 418.0)">F</text><text xml:space="preserve" font-family="Futura-Medium" font-size="47.0" fill="#5B5753" transform="matrix(1.00, 0.00, -0.00, -1.00, 535.1, 418.0)"> </text><text xml:space="preserve" font-family="Futura-Medium" font-size="47.0" fill="#5B5753" transform="matrix(1.00, 0.00, -0.00, -1.00, 553.4, 418.0)">G</text><text xml:space="preserve" font-family="Futura-Medium" font-size="47.0" fill="#5B5753" transform="matrix(1.00, 0.00, -0.00, -1.00, 595.1, 418.0)">A</text><text xml:space="preserve" font-family="Futura-Medium" font-size="47.0" fill="#5B5753" transform="matrix(1.00, 0.00, -0.00, -1.00, 633.7, 418.0)">M</text><text xml:space="preserve" font-family="Futura-Medium" font-size="47.0" fill="#5B5753" transform="matrix(1.00, 0.00, -0.00, -1.00, 682.7, 418.0)">E</text><text xml:space="preserve" font-family="Futura-Medium" font-size="47.0" fill="#5B5753" transform="matrix(1.00, 0.00, -0.00, -1.00, 713.0, 418.0)">-</text><text xml:space="preserve" font-family="Futura-Medium" font-size="47.0" fill="#5B5753" transform="matrix(1.00, 0.00, -0.00, -1.00, 727.0, 418.0)">D</text><text xml:space="preserve" font-family="Futura-Medium" font-size="47.0" fill="#5B5753" transform="matrix(1.00, 0.00, -0.00, -1.00, 764.9, 418.0)">E</text><text xml:space="preserve" font-family="Futura-Medium" font-size="47.0" fill="#5B5753" transform="matrix(1.00, 0.00, -0.00, -1.00, 795.2, 418.0)">S</text><text xml:space="preserve" font-family="Futura-Medium" font-size="47.0" fill="#5B5753" transform="matrix(1.00, 0.00, -0.00, -1.00, 826.4, 418.0)">I</text><text xml:space="preserve" font-family="Futura-Medium" font-size="47.0" fill="#5B5753" transform="matrix(1.00, 0.00, -0.00, -1.00, 844.0, 418.0)">G</text><text xml:space="preserve" font-family="Futura-Medium" font-size="47.0" fill="#5B5753" transform="matrix(1.00, 0.00, -0.00, -1.00, 887.4, 418.0)">N</text><text xml:space="preserve" font-family="Futura-Medium" font-size="47.0" fill="#5B5753" transform="matrix(1.00, 0.00, -0.00, -1.00, 930.8, 418.0)"> </text><text xml:space="preserve" font-family="Futura-Medium" font-size="47.0" fill="#5B5753" transform="matrix(1.00, 0.00, -0.00, -1.00, 68.0, 356.0)">E</text><text xml:space="preserve" font-family="Futura-Medium" font-size="47.0" fill="#5B5753" transform="matrix(1.00, 0.00, -0.00, -1.00, 98.4, 356.0)">L</text><text xml:space="preserve" font-family="Futura-Medium" font-size="47.0" fill="#5B5753" transform="matrix(1.00, 0.00, -0.00, -1.00, 123.0, 356.0)">E</text><text xml:space="preserve" font-family="Futura-Medium" font-size="47.0" fill="#5B5753" transform="matrix(1.00, 0.00, -0.00, -1.00, 153.3, 356.0)">M</text><text xml:space="preserve" font-family="Futura-Medium" font-size="47.0" fill="#5B5753" transform="matrix(1.00, 0.00, -0.00, -1.00, 202.3, 356.0)">E</text><text xml:space="preserve" font-family="Futura-Medium" font-size="47.0" fill="#5B5753" transform="matrix(1.00, 0.00, -0.00, -1.00, 232.6, 356.0)">N</text><text xml:space="preserve" font-family="Futura-Medium" font-size="47.0" fill="#5B5753" transform="matrix(1.00, 0.00, -0.00, -1.00, 276.1, 356.0)">T</text><text xml:space="preserve" font-family="Futura-Medium" font-size="47.0" fill="#5B5753" transform="matrix(1.00, 0.00, -0.00, -1.00, 302.5, 356.0)">S</text><text xml:space="preserve" font-family="Futura-Medium" font-size="47.0" fill="#5B5753" transform="matrix(1.00, 0.00, -0.00, -1.00, 333.7, 356.0)"> </text><text xml:space="preserve" font-family="Futura-Medium" font-size="47.0" fill="#5B5753" transform="matrix(1.00, 0.00, -0.00, -1.00, 351.9, 356.0)">A</text><text xml:space="preserve" font-family="Futura-Medium" font-size="47.0" fill="#5B5753" transform="matrix(1.00, 0.00, -0.00, -1.00, 390.5, 356.0)">N</text><text xml:space="preserve" font-family="Futura-Medium" font-size="47.0" fill="#5B5753" transform="matrix(1.00, 0.00, -0.00, -1.00, 433.9, 356.0)">D</text><text xml:space="preserve" font-family="Futura-Medium" font-size="47.0" fill="#5B5753" transform="matrix(1.00, 0.00, -0.00, -1.00, 471.8, 356.0)"> </text><text xml:space="preserve" font-family="Futura-Medium" font-size="47.0" fill="#5B5753" transform="matrix(1.00, 0.00, -0.00, -1.00, 490.1, 356.0)">G</text><text xml:space="preserve" font-family="Futura-Medium" font-size="47.0" fill="#5B5753" transform="matrix(1.00, 0.00, -0.00, -1.00, 531.8, 356.0)">A</text><text xml:space="preserve" font-family="Futura-Medium" font-size="47.0" fill="#5B5753" transform="matrix(1.00, 0.00, -0.00, -1.00, 570.4, 356.0)">M</text><text xml:space="preserve" font-family="Futura-Medium" font-size="47.0" fill="#5B5753" transform="matrix(1.00, 0.00, -0.00, -1.00, 619.3, 356.0)">E</text><text xml:space="preserve" font-family="Futura-Medium" font-size="47.0" fill="#5B5753" transform="matrix(1.00, 0.00, -0.00, -1.00, 649.7, 356.0)"> </text><text xml:space="preserve" font-family="Futura-Medium" font-size="47.0" fill="#5B5753" transform="matrix(1.00, 0.00, -0.00, -1.00, 667.9, 356.0)">P</text><text xml:space="preserve" font-family="Futura-Medium" font-size="47.0" fill="#5B5753" transform="matrix(1.00, 0.00, -0.00, -1.00, 697.1, 356.0)">R</text><text xml:space="preserve" font-family="Futura-Medium" font-size="47.0" fill="#5B5753" transform="matrix(1.00, 0.00, -0.00, -1.00, 729.2, 356.0)">I</text><text xml:space="preserve" font-family="Futura-Medium" font-size="47.0" fill="#5B5753" transform="matrix(1.00, 0.00, -0.00, -1.00, 746.8, 356.0)">N</text><text xml:space="preserve" font-family="Futura-Medium" font-size="47.0" fill="#5B5753" transform="matrix(1.00, 0.00, -0.00, -1.00, 790.6, 356.0)">C</text><text xml:space="preserve" font-family="Futura-Medium" font-size="47.0" fill="#5B5753" transform="matrix(1.00, 0.00, -0.00, -1.00, 827.2, 356.0)">I</text><text xml:space="preserve" font-family="Futura-Medium" font-size="47.0" fill="#5B5753" transform="matrix(1.00, 0.00, -0.00, -1.00, 844.8, 356.0)">P</text><text xml:space="preserve" font-family="Futura-Medium" font-size="47.0" fill="#5B5753" transform="matrix(1.00, 0.00, -0.00, -1.00, 874.0, 356.0)">L</text><text xml:space="preserve" font-family="Futura-Medium" font-size="47.0" fill="#5B5753" transform="matrix(1.00, 0.00, -0.00, -1.00, 898.6, 356.0)">E</text><text xml:space="preserve" font-family="Futura-Medium" font-size="47.0" fill="#5B5753" transform="matrix(1.00, 0.00, -0.00, -1.00, 928.9, 356.0)">S</text><text xml:space="preserve" font-family="Futura-Medium" font-size="47.0" fill="#5B5753" transform="matrix(1.00, 0.00, -0.00, -1.00, 960.1, 356.0)"> </text><text xml:space="preserve" font-family="Futura-Medium" font-size="47.0" fill="#5B5753" transform="matrix(1.00, 0.00, -0.00, -1.00, 166.0, 294.0)">I</text><text xml:space="preserve" font-family="Futura-Medium" font-size="47.0" fill="#5B5753" transform="matrix(1.00, 0.00, -0.00, -1.00, 183.6, 294.0)">N</text><text xml:space="preserve" font-family="Futura-Medium" font-size="47.0" fill="#5B5753" transform="matrix(1.00, 0.00, -0.00, -1.00, 227.1, 294.0)"> </text><text xml:space="preserve" font-family="Futura-Medium" font-size="47.0" fill="#5B5753" transform="matrix(1.00, 0.00, -0.00, -1.00, 245.3, 294.0)">N</text><text xml:space="preserve" font-family="Futura-Medium" font-size="47.0" fill="#5B5753" transform="matrix(1.00, 0.00, -0.00, -1.00, 289.1, 294.0)">O</text><text xml:space="preserve" font-family="Futura-Medium" font-size="47.0" fill="#5B5753" transform="matrix(1.00, 0.00, -0.00, -1.00, 334.8, 294.0)">N</text><text xml:space="preserve" font-family="Futura-Medium" font-size="47.0" fill="#5B5753" transform="matrix(1.00, 0.00, -0.00, -1.00, 378.3, 294.0)">-</text><text xml:space="preserve" font-family="Futura-Medium" font-size="47.0" fill="#5B5753" transform="matrix(1.00, 0.00, -0.00, -1.00, 392.3, 294.0)">G</text><text xml:space="preserve" font-family="Futura-Medium" font-size="47.0" fill="#5B5753" transform="matrix(1.00, 0.00, -0.00, -1.00, 434.0, 294.0)">A</text><text xml:space="preserve" font-family="Futura-Medium" font-size="47.0" fill="#5B5753" transform="matrix(1.00, 0.00, -0.00, -1.00, 472.6, 294.0)">M</text><text xml:space="preserve" font-family="Futura-Medium" font-size="47.0" fill="#5B5753" transform="matrix(1.00, 0.00, -0.00, -1.00, 521.6, 294.0)">E</text><text xml:space="preserve" font-family="Futura-Medium" font-size="47.0" fill="#5B5753" transform="matrix(1.00, 0.00, -0.00, -1.00, 551.9, 294.0)"> </text><text xml:space="preserve" font-family="Futura-Medium" font-size="47.0" fill="#5B5753" transform="matrix(1.00, 0.00, -0.00, -1.00, 570.2, 294.0)">C</text><text xml:space="preserve" font-family="Futura-Medium" font-size="47.0" fill="#5B5753" transform="matrix(1.00, 0.00, -0.00, -1.00, 606.6, 294.0)">O</text><text xml:space="preserve" font-family="Futura-Medium" font-size="47.0" fill="#5B5753" transform="matrix(1.00, 0.00, -0.00, -1.00, 652.4, 294.0)">N</text><text xml:space="preserve" font-family="Futura-Medium" font-size="47.0" fill="#5B5753" transform="matrix(1.00, 0.00, -0.00, -1.00, 695.8, 294.0)">T</text><text xml:space="preserve" font-family="Futura-Medium" font-size="47.0" fill="#5B5753" transform="matrix(1.00, 0.00, -0.00, -1.00, 722.3, 294.0)">E</text><text xml:space="preserve" font-family="Futura-Medium" font-size="47.0" fill="#5B5753" transform="matrix(1.00, 0.00, -0.00, -1.00, 752.7, 294.0)">X</text><text xml:space="preserve" font-family="Futura-Medium" font-size="47.0" fill="#5B5753" transform="matrix(1.00, 0.00, -0.00, -1.00, 785.5, 294.0)">T</text><text xml:space="preserve" font-family="Futura-Medium" font-size="47.0" fill="#5B5753" transform="matrix(1.00, 0.00, -0.00, -1.00, 811.9, 294.0)">S</text><text xml:space="preserve" font-family="Futura-Medium" font-size="47.0" fill="#5B5753" transform="matrix(1.00, 0.00, -0.00, -1.00, 843.0, 294.0)">.</text><text xml:space="preserve" font-family="Baskerville-SemiBold" font-weight="bold" font-size="90.0" fill="#5B5753" transform="matrix(1.00, 0.00, -0.00, -1.00, 486.0, 127.0)">”</text><text xml:space="preserve" font-family="Baskerville-SemiBold" font-weight="bold" font-size="90.0" fill="#5B5753" transform="matrix(1.00, 0.00, -0.00, -1.00, 486.0, 523.0)">“</text></g></svg>