<?xml version="1.0" encoding="UTF-8" standalone="no"?><svg xmlns="http://www.w3.org/2000/svg" xmlns:xlink="http://www.w3.org/1999/xlink" clip-rule="evenodd" stroke-miterlimit="4.00" viewBox="0 0 1024 768"><desc>SVG generated by Keynote</desc><defs></defs><g transform="matrix(1.00, 0.00, -0.00, -1.00, 0.0, 768.0)"><g><clipPath id="clip-1"><path d="M 0.0 768.0 L 1024.0 768.0 L 1024.0 0.0 L 0.0 0.0 Z M 0.0 768.0 "></path></clipPath><g clip-path="url(#clip-1)"><image xlink:href="44C05FA6463F1338D8B68767B96CEE18.jpeg" width="1024.00" height="768.00" transform="matrix(1.00, 0.00, -0.00, -1.00, 0.0, 768.0)"></image></g></g><text xml:space="preserve" font-family="Futura-Medium" font-size="70.0" fill="#5B5753" transform="matrix(1.00, 0.00, -0.00, -1.00, 101.0, 351.0)">@</text><text xml:space="preserve" font-family="Futura-Medium" font-size="70.0" fill="#5B5753" transform="matrix(1.00, 0.00, -0.00, -1.00, 164.1, 351.0)">S</text><text xml:space="preserve" font-family="Futura-Medium" font-size="70.0" fill="#5B5753" transform="matrix(1.00, 0.00, -0.00, -1.00, 206.3, 351.0)">K</text><text xml:space="preserve" font-family="Futura-Medium" font-size="70.0" fill="#5B5753" transform="matrix(1.00, 0.00, -0.00, -1.00, 254.0, 351.0)">1</text><text xml:space="preserve" font-family="Futura-Medium" font-size="70.0" fill="#5B5753" transform="matrix(1.00, 0.00, -0.00, -1.00, 293.4, 351.0)">8</text><text xml:space="preserve" font-family="Futura-Medium" font-size="70.0" fill="#5B5753" transform="matrix(1.00, 0.00, -0.00, -1.00, 335.5, 351.0)">7</text><text xml:space="preserve" font-family="Futura-Medium" font-size="40.0" fill="#5B5753" transform="matrix(1.00, 0.00, -0.00, -1.00, 137.0, 451.0)">S</text><text xml:space="preserve" font-family="Futura-Medium" font-size="40.0" fill="#5B5753" transform="matrix(1.00, 0.00, -0.00, -1.00, 161.1, 451.0)">U</text><text xml:space="preserve" font-family="Futura-Medium" font-size="40.0" fill="#5B5753" transform="matrix(1.00, 0.00, -0.00, -1.00, 191.5, 451.0)">N</text><text xml:space="preserve" font-family="Futura-Medium" font-size="40.0" fill="#5B5753" transform="matrix(1.00, 0.00, -0.00, -1.00, 226.4, 451.0)">G</text><text xml:space="preserve" font-family="Futura-Medium" font-size="40.0" fill="#5B5753" transform="matrix(1.00, 0.00, -0.00, -1.00, 260.9, 451.0)"> </text><text xml:space="preserve" font-family="Futura-Medium" font-size="40.0" fill="#5B5753" transform="matrix(1.00, 0.00, -0.00, -1.00, 274.0, 451.0)">K</text><text xml:space="preserve" font-family="Futura-Medium" font-size="40.0" fill="#5B5753" transform="matrix(1.00, 0.00, -0.00, -1.00, 301.3, 451.0)">I</text><text xml:space="preserve" font-family="Futura-Medium" font-size="40.0" fill="#5B5753" transform="matrix(1.00, 0.00, -0.00, -1.00, 313.9, 451.0)">M</text><image xlink:href="17AD062BE711C73E5FF4E94B551EB8AD.png" width="531.00" height="784.00" transform="matrix(1.00, 0.00, -0.00, -1.00, 453.7, 775.2)"></image><image xlink:href="C8075B48045D7956A449FC2AB8A2233D.jpeg" width="451.00" height="440.00" transform="matrix(1.00, 0.00, -0.00, -1.00, 494.0, 604.0)"></image><text xml:space="preserve" font-family="Avenir-Medium" font-size="24.0" fill="#5B5753" transform="matrix(1.00, 0.00, -0.00, -1.00, 145.0, 270.0)">S</text><text xml:space="preserve" font-family="Avenir-Medium" font-size="24.0" fill="#5B5753" transform="matrix(1.00, 0.00, -0.00, -1.00, 158.3, 270.0)">o</text><text xml:space="preserve" font-family="Avenir-Medium" font-size="24.0" fill="#5B5753" transform="matrix(1.00, 0.00, -0.00, -1.00, 172.6, 270.0)">f</text><text xml:space="preserve" font-family="Avenir-Medium" font-size="24.0" fill="#5B5753" transform="matrix(1.00, 0.00, -0.00, -1.00, 180.6, 270.0)">t</text><text xml:space="preserve" font-family="Avenir-Medium" font-size="24.0" fill="#5B5753" transform="matrix(1.00, 0.00, -0.00, -1.00, 189.5, 270.0)">w</text><text xml:space="preserve" font-family="Avenir-Medium" font-size="24.0" fill="#5B5753" transform="matrix(1.00, 0.00, -0.00, -1.00, 207.7, 270.0)">a</text><text xml:space="preserve" font-family="Avenir-Medium" font-size="24.0" fill="#5B5753" transform="matrix(1.00, 0.00, -0.00, -1.00, 220.1, 270.0)">r</text><text xml:space="preserve" font-family="Avenir-Medium" font-size="24.0" fill="#5B5753" transform="matrix(1.00, 0.00, -0.00, -1.00, 228.6, 270.0)">e</text><text xml:space="preserve" font-family="Avenir-Medium" font-size="24.0" fill="#5B5753" transform="matrix(1.00, 0.00, -0.00, -1.00, 241.9, 270.0)"> </text><text xml:space="preserve" font-family="Avenir-Medium" font-size="24.0" fill="#5B5753" transform="matrix(1.00, 0.00, -0.00, -1.00, 248.6, 270.0)">E</text><text xml:space="preserve" font-family="Avenir-Medium" font-size="24.0" fill="#5B5753" transform="matrix(1.00, 0.00, -0.00, -1.00, 263.3, 270.0)">n</text><text xml:space="preserve" font-family="Avenir-Medium" font-size="24.0" fill="#5B5753" transform="matrix(1.00, 0.00, -0.00, -1.00, 276.6, 270.0)">g</text><text xml:space="preserve" font-family="Avenir-Medium" font-size="24.0" fill="#5B5753" transform="matrix(1.00, 0.00, -0.00, -1.00, 291.3, 270.0)">i</text><text xml:space="preserve" font-family="Avenir-Medium" font-size="24.0" fill="#5B5753" transform="matrix(1.00, 0.00, -0.00, -1.00, 297.0, 270.0)">n</text><text xml:space="preserve" font-family="Avenir-Medium" font-size="24.0" fill="#5B5753" transform="matrix(1.00, 0.00, -0.00, -1.00, 310.4, 270.0)">e</text><text xml:space="preserve" font-family="Avenir-Medium" font-size="24.0" fill="#5B5753" transform="matrix(1.00, 0.00, -0.00, -1.00, 323.7, 270.0)">e</text><text xml:space="preserve" font-family="Avenir-Medium" font-size="24.0" fill="#5B5753" transform="matrix(1.00, 0.00, -0.00, -1.00, 337.1, 270.0)">r</text><text xml:space="preserve" font-family="Avenir-Medium" font-size="24.0" fill="#5B5753" transform="matrix(1.00, 0.00, -0.00, -1.00, 346.0, 270.0)"> </text><text xml:space="preserve" font-family="Avenir-Medium" font-size="24.0" fill="#5B5753" transform="matrix(1.00, 0.00, -0.00, -1.00, 352.6, 270.0)"> </text><text xml:space="preserve" font-family="Avenir-Medium" font-size="24.0" fill="#5B5753" transform="matrix(1.00, 0.00, -0.00, -1.00, 122.0, 237.0)">@</text><text xml:space="preserve" font-family="Avenir-Medium" font-size="24.0" fill="#5B5753" transform="matrix(1.00, 0.00, -0.00, -1.00, 141.2, 237.0)"> </text><text xml:space="preserve" font-family="Avenir-Medium" font-size="24.0" fill="#5B5753" transform="matrix(1.00, 0.00, -0.00, -1.00, 147.9, 237.0)">B</text><text xml:space="preserve" font-family="Avenir-Medium" font-size="24.0" fill="#5B5753" transform="matrix(1.00, 0.00, -0.00, -1.00, 163.0, 237.0)">o</text><text xml:space="preserve" font-family="Avenir-Medium" font-size="24.0" fill="#5B5753" transform="matrix(1.00, 0.00, -0.00, -1.00, 177.2, 237.0)">o</text><text xml:space="preserve" font-family="Avenir-Medium" font-size="24.0" fill="#5B5753" transform="matrix(1.00, 0.00, -0.00, -1.00, 191.5, 237.0)">z</text><text xml:space="preserve" font-family="Avenir-Medium" font-size="24.0" fill="#5B5753" transform="matrix(1.00, 0.00, -0.00, -1.00, 202.6, 237.0)"> </text><text xml:space="preserve" font-family="Avenir-Medium" font-size="24.0" fill="#5B5753" transform="matrix(1.00, 0.00, -0.00, -1.00, 209.3, 237.0)">A</text><text xml:space="preserve" font-family="Avenir-Medium" font-size="24.0" fill="#5B5753" transform="matrix(1.00, 0.00, -0.00, -1.00, 226.2, 237.0)">l</text><text xml:space="preserve" font-family="Avenir-Medium" font-size="24.0" fill="#5B5753" transform="matrix(1.00, 0.00, -0.00, -1.00, 231.9, 237.0)">l</text><text xml:space="preserve" font-family="Avenir-Medium" font-size="24.0" fill="#5B5753" transform="matrix(1.00, 0.00, -0.00, -1.00, 237.7, 237.0)">e</text><text xml:space="preserve" font-family="Avenir-Medium" font-size="24.0" fill="#5B5753" transform="matrix(1.00, 0.00, -0.00, -1.00, 251.0, 237.0)">n</text><text xml:space="preserve" font-family="Avenir-Medium" font-size="24.0" fill="#5B5753" transform="matrix(1.00, 0.00, -0.00, -1.00, 264.4, 237.0)"> </text><text xml:space="preserve" font-family="Avenir-Medium" font-size="24.0" fill="#5B5753" transform="matrix(1.00, 0.00, -0.00, -1.00, 271.1, 237.0)">H</text><text xml:space="preserve" font-family="Avenir-Medium" font-size="24.0" fill="#5B5753" transform="matrix(1.00, 0.00, -0.00, -1.00, 288.8, 237.0)">a</text><text xml:space="preserve" font-family="Avenir-Medium" font-size="24.0" fill="#5B5753" transform="matrix(1.00, 0.00, -0.00, -1.00, 301.3, 237.0)">m</text><text xml:space="preserve" font-family="Avenir-Medium" font-size="24.0" fill="#5B5753" transform="matrix(1.00, 0.00, -0.00, -1.00, 321.8, 237.0)">i</text><text xml:space="preserve" font-family="Avenir-Medium" font-size="24.0" fill="#5B5753" transform="matrix(1.00, 0.00, -0.00, -1.00, 327.5, 237.0)">l</text><text xml:space="preserve" font-family="Avenir-Medium" font-size="24.0" fill="#5B5753" transform="matrix(1.00, 0.00, -0.00, -1.00, 333.3, 237.0)">t</text><text xml:space="preserve" font-family="Avenir-Medium" font-size="24.0" fill="#5B5753" transform="matrix(1.00, 0.00, -0.00, -1.00, 342.2, 237.0)">o</text><text xml:space="preserve" font-family="Avenir-Medium" font-size="24.0" fill="#5B5753" transform="matrix(1.00, 0.00, -0.00, -1.00, 356.4, 237.0)">n</text></g></svg>