<?xml version="1.0" encoding="UTF-8" standalone="no"?><svg xmlns="http://www.w3.org/2000/svg" xmlns:xlink="http://www.w3.org/1999/xlink" clip-rule="evenodd" stroke-miterlimit="4.00" viewBox="0 0 1024 768"><desc>SVG generated by Keynote</desc><defs></defs><g transform="matrix(1.00, 0.00, -0.00, -1.00, 0.0, 768.0)"><g><clipPath id="clip-0"><path d="M 0.0 768.0 L 1024.0 768.0 L 1024.0 0.0 L 0.0 0.0 Z M 0.0 768.0 "></path></clipPath><g clip-path="url(#clip-0)"><image xlink:href="CA5AF1C47B8CB0C6F39FFA66D65B758C.jpeg" width="1024.00" height="768.00" transform="matrix(1.00, 0.00, -0.00, -1.00, 0.0, 768.0)"></image></g></g><text xml:space="preserve" font-family="Futura-Medium" font-size="104.0" fill="#FEFFFF" transform="matrix(1.00, 0.00, -0.00, -1.00, 185.0, 519.0)">L</text><text xml:space="preserve" font-family="Futura-Medium" font-size="104.0" fill="#FEFFFF" transform="matrix(1.00, 0.00, -0.00, -1.00, 233.2, 519.0)">E</text><text xml:space="preserve" font-family="Futura-Medium" font-size="104.0" fill="#FEFFFF" transform="matrix(1.00, 0.00, -0.00, -1.00, 294.2, 519.0)">T</text><text xml:space="preserve" font-family="Futura-Medium" font-size="104.0" fill="#FEFFFF" transform="matrix(1.00, 0.00, -0.00, -1.00, 346.5, 519.0)">’</text><text xml:space="preserve" font-family="Futura-Medium" font-size="104.0" fill="#FEFFFF" transform="matrix(1.00, 0.00, -0.00, -1.00, 382.4, 519.0)">S</text><text xml:space="preserve" font-family="Futura-Medium" font-size="104.0" fill="#FEFFFF" transform="matrix(1.00, 0.00, -0.00, -1.00, 445.2, 519.0)"> </text><text xml:space="preserve" font-family="Futura-Medium" font-size="104.0" fill="#FEFFFF" transform="matrix(1.00, 0.00, -0.00, -1.00, 479.3, 519.0)">P</text><text xml:space="preserve" font-family="Futura-Medium" font-size="104.0" fill="#FEFFFF" transform="matrix(1.00, 0.00, -0.00, -1.00, 537.6, 519.0)">L</text><text xml:space="preserve" font-family="Futura-Medium" font-size="104.0" fill="#FEFFFF" transform="matrix(1.00, 0.00, -0.00, -1.00, 590.2, 519.0)">A</text><text xml:space="preserve" font-family="Futura-Medium" font-size="104.0" fill="#FEFFFF" transform="matrix(1.00, 0.00, -0.00, -1.00, 662.4, 519.0)">Y</text><text xml:space="preserve" font-family="Futura-Medium" font-size="104.0" fill="#FEFFFF" transform="matrix(1.00, 0.00, -0.00, -1.00, 726.9, 519.0)"> </text><text xml:space="preserve" font-family="Futura-Medium" font-size="104.0" fill="#FEFFFF" transform="matrix(1.00, 0.00, -0.00, -1.00, 761.0, 519.0)">A</text><text xml:space="preserve" font-family="Futura-Medium" font-size="104.0" fill="#FEFFFF" transform="matrix(1.00, 0.00, -0.00, -1.00, 840.1, 519.0)"> </text><text xml:space="preserve" font-family="Futura-Medium" font-size="104.0" fill="#FEFFFF" transform="matrix(1.00, 0.00, -0.00, -1.00, 349.0, 381.0)">G</text><text xml:space="preserve" font-family="Futura-Medium" font-size="104.0" fill="#FEFFFF" transform="matrix(1.00, 0.00, -0.00, -1.00, 435.2, 381.0)">A</text><text xml:space="preserve" font-family="Futura-Medium" font-size="104.0" fill="#FEFFFF" transform="matrix(1.00, 0.00, -0.00, -1.00, 514.3, 381.0)">M</text><text xml:space="preserve" font-family="Futura-Medium" font-size="104.0" fill="#FEFFFF" transform="matrix(1.00, 0.00, -0.00, -1.00, 616.4, 381.0)">E</text><text xml:space="preserve" font-family="Futura-Medium" font-size="50.2" fill="#FEFFFF" transform="matrix(1.00, 0.00, -0.00, -1.00, 82.0, 269.0)">G</text><text xml:space="preserve" font-family="Futura-Medium" font-size="50.2" fill="#FEFFFF" transform="matrix(1.00, 0.00, -0.00, -1.00, 124.6, 269.0)">A</text><text xml:space="preserve" font-family="Futura-Medium" font-size="50.2" fill="#FEFFFF" transform="matrix(1.00, 0.00, -0.00, -1.00, 163.8, 269.0)">M</text><text xml:space="preserve" font-family="Futura-Medium" font-size="50.2" fill="#FEFFFF" transform="matrix(1.00, 0.00, -0.00, -1.00, 214.1, 269.0)">I</text><text xml:space="preserve" font-family="Futura-Medium" font-size="50.2" fill="#FEFFFF" transform="matrix(1.00, 0.00, -0.00, -1.00, 230.9, 269.0)">F</text><text xml:space="preserve" font-family="Futura-Medium" font-size="50.2" fill="#FEFFFF" transform="matrix(1.00, 0.00, -0.00, -1.00, 258.5, 269.0)">I</text><text xml:space="preserve" font-family="Futura-Medium" font-size="50.2" fill="#FEFFFF" transform="matrix(1.00, 0.00, -0.00, -1.00, 275.3, 269.0)">C</text><text xml:space="preserve" font-family="Futura-Medium" font-size="50.2" fill="#FEFFFF" transform="matrix(1.00, 0.00, -0.00, -1.00, 313.4, 269.0)">A</text><text xml:space="preserve" font-family="Futura-Medium" font-size="50.2" fill="#FEFFFF" transform="matrix(1.00, 0.00, -0.00, -1.00, 350.5, 269.0)">T</text><text xml:space="preserve" font-family="Futura-Medium" font-size="50.2" fill="#FEFFFF" transform="matrix(1.00, 0.00, -0.00, -1.00, 376.8, 269.0)">I</text><text xml:space="preserve" font-family="Futura-Medium" font-size="50.2" fill="#FEFFFF" transform="matrix(1.00, 0.00, -0.00, -1.00, 393.6, 269.0)">O</text><text xml:space="preserve" font-family="Futura-Medium" font-size="50.2" fill="#FEFFFF" transform="matrix(1.00, 0.00, -0.00, -1.00, 440.5, 269.0)">N</text><text xml:space="preserve" font-family="Futura-Medium" font-size="50.2" fill="#FEFFFF" transform="matrix(1.00, 0.00, -0.00, -1.00, 484.9, 269.0)">:</text><text xml:space="preserve" font-family="Futura-Medium" font-size="50.2" fill="#FEFFFF" transform="matrix(1.00, 0.00, -0.00, -1.00, 502.4, 269.0)"> </text><text xml:space="preserve" font-family="Futura-Medium" font-size="50.2" fill="#FEFFFF" transform="matrix(1.00, 0.00, -0.00, -1.00, 519.9, 269.0)">W</text><text xml:space="preserve" font-family="Futura-Medium" font-size="50.2" fill="#FEFFFF" transform="matrix(1.00, 0.00, -0.00, -1.00, 575.1, 269.0)">H</text><text xml:space="preserve" font-family="Futura-Medium" font-size="50.2" fill="#FEFFFF" transform="matrix(1.00, 0.00, -0.00, -1.00, 614.0, 269.0)">A</text><text xml:space="preserve" font-family="Futura-Medium" font-size="50.2" fill="#FEFFFF" transform="matrix(1.00, 0.00, -0.00, -1.00, 651.1, 269.0)">T</text><text xml:space="preserve" font-family="Futura-Medium" font-size="50.2" fill="#FEFFFF" transform="matrix(1.00, 0.00, -0.00, -1.00, 677.3, 269.0)"> </text><text xml:space="preserve" font-family="Futura-Medium" font-size="50.2" fill="#FEFFFF" transform="matrix(1.00, 0.00, -0.00, -1.00, 694.8, 269.0)">I</text><text xml:space="preserve" font-family="Futura-Medium" font-size="50.2" fill="#FEFFFF" transform="matrix(1.00, 0.00, -0.00, -1.00, 711.7, 269.0)">S</text><text xml:space="preserve" font-family="Futura-Medium" font-size="50.2" fill="#FEFFFF" transform="matrix(1.00, 0.00, -0.00, -1.00, 742.9, 269.0)"> </text><text xml:space="preserve" font-family="Futura-Medium" font-size="50.2" fill="#FEFFFF" transform="matrix(1.00, 0.00, -0.00, -1.00, 760.5, 269.0)">I</text><text xml:space="preserve" font-family="Futura-Medium" font-size="50.2" fill="#FEFFFF" transform="matrix(1.00, 0.00, -0.00, -1.00, 777.3, 269.0)">T</text><text xml:space="preserve" font-family="Futura-Medium" font-size="50.2" fill="#FEFFFF" transform="matrix(1.00, 0.00, -0.00, -1.00, 803.5, 269.0)"> </text><text xml:space="preserve" font-family="Futura-Medium" font-size="50.2" fill="#FEFFFF" transform="matrix(1.00, 0.00, -0.00, -1.00, 821.0, 269.0)">A</text><text xml:space="preserve" font-family="Futura-Medium" font-size="50.2" fill="#FEFFFF" transform="matrix(1.00, 0.00, -0.00, -1.00, 860.2, 269.0)">N</text><text xml:space="preserve" font-family="Futura-Medium" font-size="50.2" fill="#FEFFFF" transform="matrix(1.00, 0.00, -0.00, -1.00, 904.7, 269.0)">D</text><text xml:space="preserve" font-family="Futura-Medium" font-size="50.2" fill="#FEFFFF" transform="matrix(1.00, 0.00, -0.00, -1.00, 943.1, 269.0)"> </text><text xml:space="preserve" font-family="Futura-Medium" font-size="50.2" fill="#FEFFFF" transform="matrix(1.00, 0.00, -0.00, -1.00, 196.0, 203.0)">W</text><text xml:space="preserve" font-family="Futura-Medium" font-size="50.2" fill="#FEFFFF" transform="matrix(1.00, 0.00, -0.00, -1.00, 251.2, 203.0)">H</text><text xml:space="preserve" font-family="Futura-Medium" font-size="50.2" fill="#FEFFFF" transform="matrix(1.00, 0.00, -0.00, -1.00, 290.1, 203.0)">Y</text><text xml:space="preserve" font-family="Futura-Medium" font-size="50.2" fill="#FEFFFF" transform="matrix(1.00, 0.00, -0.00, -1.00, 322.3, 203.0)"> </text><text xml:space="preserve" font-family="Futura-Medium" font-size="50.2" fill="#FEFFFF" transform="matrix(1.00, 0.00, -0.00, -1.00, 339.8, 203.0)">S</text><text xml:space="preserve" font-family="Futura-Medium" font-size="50.2" fill="#FEFFFF" transform="matrix(1.00, 0.00, -0.00, -1.00, 371.1, 203.0)">H</text><text xml:space="preserve" font-family="Futura-Medium" font-size="50.2" fill="#FEFFFF" transform="matrix(1.00, 0.00, -0.00, -1.00, 409.9, 203.0)">O</text><text xml:space="preserve" font-family="Futura-Medium" font-size="50.2" fill="#FEFFFF" transform="matrix(1.00, 0.00, -0.00, -1.00, 456.8, 203.0)">U</text><text xml:space="preserve" font-family="Futura-Medium" font-size="50.2" fill="#FEFFFF" transform="matrix(1.00, 0.00, -0.00, -1.00, 495.9, 203.0)">L</text><text xml:space="preserve" font-family="Futura-Medium" font-size="50.2" fill="#FEFFFF" transform="matrix(1.00, 0.00, -0.00, -1.00, 520.2, 203.0)">D</text><text xml:space="preserve" font-family="Futura-Medium" font-size="50.2" fill="#FEFFFF" transform="matrix(1.00, 0.00, -0.00, -1.00, 558.7, 203.0)"> </text><text xml:space="preserve" font-family="Futura-Medium" font-size="50.2" fill="#FEFFFF" transform="matrix(1.00, 0.00, -0.00, -1.00, 576.2, 203.0)">W</text><text xml:space="preserve" font-family="Futura-Medium" font-size="50.2" fill="#FEFFFF" transform="matrix(1.00, 0.00, -0.00, -1.00, 631.4, 203.0)">E</text><text xml:space="preserve" font-family="Futura-Medium" font-size="50.2" fill="#FEFFFF" transform="matrix(1.00, 0.00, -0.00, -1.00, 661.8, 203.0)"> </text><text xml:space="preserve" font-family="Futura-Medium" font-size="50.2" fill="#FEFFFF" transform="matrix(1.00, 0.00, -0.00, -1.00, 679.3, 203.0)">P</text><text xml:space="preserve" font-family="Futura-Medium" font-size="50.2" fill="#FEFFFF" transform="matrix(1.00, 0.00, -0.00, -1.00, 708.5, 203.0)">L</text><text xml:space="preserve" font-family="Futura-Medium" font-size="50.2" fill="#FEFFFF" transform="matrix(1.00, 0.00, -0.00, -1.00, 734.9, 203.0)">A</text><text xml:space="preserve" font-family="Futura-Medium" font-size="50.2" fill="#FEFFFF" transform="matrix(1.00, 0.00, -0.00, -1.00, 770.7, 203.0)">Y</text><text xml:space="preserve" font-family="Futura-Medium" font-size="50.2" fill="#FEFFFF" transform="matrix(1.00, 0.00, -0.00, -1.00, 802.9, 203.0)">?</text><text xml:space="preserve" font-family="Futura-Medium" font-size="54.0" fill="#FEFFFF" transform="matrix(1.00, 0.00, -0.00, -1.00, 242.0, 59.0)">S</text><text xml:space="preserve" font-family="Futura-Medium" font-size="54.0" fill="#FEFFFF" transform="matrix(1.00, 0.00, -0.00, -1.00, 275.6, 59.0)">U</text><text xml:space="preserve" font-family="Futura-Medium" font-size="54.0" fill="#FEFFFF" transform="matrix(1.00, 0.00, -0.00, -1.00, 317.7, 59.0)">N</text><text xml:space="preserve" font-family="Futura-Medium" font-size="54.0" fill="#FEFFFF" transform="matrix(1.00, 0.00, -0.00, -1.00, 365.9, 59.0)">G</text><text xml:space="preserve" font-family="Futura-Medium" font-size="54.0" fill="#FEFFFF" transform="matrix(1.00, 0.00, -0.00, -1.00, 413.5, 59.0)"> </text><text xml:space="preserve" font-family="Futura-Medium" font-size="54.0" fill="#FEFFFF" transform="matrix(1.00, 0.00, -0.00, -1.00, 432.3, 59.0)">K</text><text xml:space="preserve" font-family="Futura-Medium" font-size="54.0" fill="#FEFFFF" transform="matrix(1.00, 0.00, -0.00, -1.00, 470.3, 59.0)">I</text><text xml:space="preserve" font-family="Futura-Medium" font-size="54.0" fill="#FEFFFF" transform="matrix(1.00, 0.00, -0.00, -1.00, 488.4, 59.0)">M</text><text xml:space="preserve" font-family="Futura-Medium" font-size="54.0" fill="#FEFFFF" transform="matrix(1.00, 0.00, -0.00, -1.00, 542.4, 59.0)"> </text><text xml:space="preserve" font-family="Futura-Medium" font-size="54.0" fill="#FEFFFF" transform="matrix(1.00, 0.00, -0.00, -1.00, 561.3, 59.0)">@</text><text xml:space="preserve" font-family="Futura-Medium" font-size="54.0" fill="#FEFFFF" transform="matrix(1.00, 0.00, -0.00, -1.00, 611.0, 59.0)">S</text><text xml:space="preserve" font-family="Futura-Medium" font-size="54.0" fill="#FEFFFF" transform="matrix(1.00, 0.00, -0.00, -1.00, 644.6, 59.0)">K</text><text xml:space="preserve" font-family="Futura-Medium" font-size="54.0" fill="#FEFFFF" transform="matrix(1.00, 0.00, -0.00, -1.00, 682.6, 59.0)">1</text><text xml:space="preserve" font-family="Futura-Medium" font-size="54.0" fill="#FEFFFF" transform="matrix(1.00, 0.00, -0.00, -1.00, 714.0, 59.0)">8</text><text xml:space="preserve" font-family="Futura-Medium" font-size="54.0" fill="#FEFFFF" transform="matrix(1.00, 0.00, -0.00, -1.00, 747.5, 59.0)">7</text></g></svg>